{
.appVersion = "3326";
.formatVersion = 3;
DisplayStrings = (
"AA AG OAO AQA AT AU AV AW AY
BA BE BL BP BR BU BV BW BY QAZAQ
CAOTATA CO CRDDD
DA DD DE DI DL DM DN DO DP DR DU DV DW DY
OAOAOAOA
ZZ
EC EO TFA FC FG FO
GE GO GR GU
HO
IC IG IO
JA JO
KOKQXOXQQOOO
LC LG LO LT LU LV LW LY LIGHT 
MC MG MO
NC NG NO
OA OB OD OE OF OH OI OK OL OM ON OP OR OT OU OV OW OX OY
PA PE PL PO PP PU PY
QU
RC RG RY RT RU RV RW RY
SI SM ST SU
PV PW PY PXTA TC TO
UA UC UG UO US
VA VC VG VO VS
WA WC WG WO
YA YC YO YS
ATTAATTATATAATATTA
WCWCWCWVOVA
AVAVVA",
"Ac Ad Ae Ag Ao Ap Aq At Au Av Aw Ay
Bb Bi Bk Bl Br Bu By
Ca Cr
Da
Eu Ev FaFeFfFiFoFrFtFuFy
Gu
HeHoHuHy
IcIdIqIoIt
JaJeJoJu
KeKoKuKvKwKy
Lu Ly
Ma Mc Md Me Mo
Nu Na Ne Ni No Nu
Oa Ob Oh Ok Ol
Pa Pe Po
Rd Re Ro Rt Ru
Si Sp Su
Ta Tc Te Ti To Tr Ts Tu Tw Ty Ua Ug Um Un Up Us
Va Ve Vi Vo Vr Vu Vy
Wa Wd We Wi Wm Wr Wt Wu Wy
Xa Xe Xo Xu Xy
Yd Ye Yi Yp Yu Yv",
"ac ad ae ag ap af at au av aw ay ap bl br bu by
ca ch ck
da dc de dg do dt du dv dw dy
ea ei el em en ep er et eu ev ew ey fa fe ff fi fl fo
ga ge gh gl go gg
hc hd he hg ho hp ht hu hv hw hy ic id ie ig io ip it iu iv
ja je jo ju
ka kc kd ke kg ko
la lc ld le lf lg lo lp lq lu lv lw ly
ma mc md me mg mn mo mp mt mu mv my nc nd ne ng no np nt nu nv nw ny
ob of oh oj ok ol om on op or ou
ov ow ox oy
pa ph pi pl pp pu
qu
ra rd re rg rk rl rm rn ro rq rr rt rv ry
sh st su
td ta te to
ua uc ud ue ug uo up uq ut uv uw uy
va vb vc vd ve vg vo vv vy
wa wx wd we wg wh wo
xa xe xo
ya yc yd ye yo",
"ГаГеГсГзГо

glyphs = (
{
glyphname = A;
kernLeft = A;
kernRight = A;
lastChange = "2024-10-16 19:43:51 +0000";
layers = (
{
anchors = (
{
name = top;
pos = (371,712);
}
);
guides = (
{
angle = 270;
pos = (371,590);
}
);
layerId = m01;
shapes = (
{
closed = 1;
nodes = (
(232,0,l),
(382,562,l),
(360,562,l),
(518,0,l),
(763,0,l),
(544,712,l),
(205,712,l),
(10,0,l)
);
},
{
closed = 1;
nodes = (
(562,138,l),
(562,326,l),
(184,326,l),
(184,138,l)
);
}
);
width = 773;
},
{
anchors = (
{
name = top;
pos = (333,700);
}
);
guides = (
{
angle = 270;
pos = (333,0);
}
);
layerId = "257EBA85-25A6-4EFE-A653-BCCD9A912022";
shapes = (
{
closed = 1;
nodes = (
(61,0,l),
(346,691,l),
(322,687,l),
(605,0,l),
(650,0,l),
(360,700,l),
(306,700,l),
(16,0,l)
);
},
{
closed = 1;
nodes = (
(517,238,l),
(517,276,l),
(146,276,l),
(146,238,l)
);
}
);
width = 670;
},
{
anchors = (
{
name = top;
pos = (362,706);
}
);
layerId = "6D4AB606-1E4E-4A6F-BC39-70F25E2B516B";
shapes = (
{
closed = 1;
nodes = (
(152,0,l),
(374,625,l),
(351,623,l),
(565,0,l),
(706,0,l),
(463,706,l),
(271,706,l),
(20,0,l)
);
},
{
closed = 1;
nodes = (
(549,191,l),
(549,318,l),
(175,318,l),
(175,191,l)
);
}
);
width = 731;
}
);
metricLeft = "=V";
metricRight = "=V";
unicode = 65;
},
{
glyphname = B;
kernRight = P;
lastChange = "2024-10-16 19:40:04 +0000";
layers = (
{
layerId = m01;
shapes = (
{
closed = 1;
nodes = (
(358,0,ls),
(516,0,o),
(596,44,o),
(596,215,cs),
(596,379,o),
(503,397,o),
(392,397,c),
(392,379,l),
(480,390,o),
(566,429,o),
(566,552,cs),
(566,659,o),
(501,712,o),
(366,712,cs),
(36,712,l),
(36,0,l)
);
},
{
closed = 1;
nodes = (
(266,294,l),
(309,294,ls),
(340,294,o),
(364,273,o),
(364,223,cs),
(364,168,o),
(334,156,o),
(304,156,cs),
(266,156,l)
);
},
{
closed = 1;
nodes = (
(266,567,l),
(302,567,ls),
(328,567,o),
(342,548,o),
(342,517,cs),
(342,489,o),
(331,463,o),
(302,463,cs),
(266,463,l)
);
}
);
width = 626;
},
{
layerId = "257EBA85-25A6-4EFE-A653-BCCD9A912022";
shapes = (
{
closed = 1;
nodes = (
(342,0,ls),
(476,0,o),
(590,53,o),
(590,203,cs),
(590,318,o),
(523,372,o),
(444,397,c),
(444,389,l),
(518,419,o),
(557,478,o),
(557,541,cs),
(557,629,o),
(482,700,o),
(350,700,cs),
(99,700,l),
(99,0,l)
);
},
{
closed = 1;
nodes = (
(141,373,l),
(364,373,ls),
(466,373,o),
(546,322,o),
(546,200,cs),
(546,66,o),
(448,38,o),
(349,38,cs),
(141,38,l)
);
},
{
closed = 1;
nodes = (
(141,662,l),
(356,662,ls),
(457,662,o),
(513,616,o),
(513,540,cs),
(513,471,o),
(466,410,o),
(357,410,cs),
(141,410,l)
);
}
);
width = 595;
},
{
layerId = "6D4AB606-1E4E-4A6F-BC39-70F25E2B516B";
shapes = (
{
closed = 1;
nodes = (
(362,0,ls),
(508,0,o),
(613,48,o),
(613,209,cs),
(613,349,o),
(525,385,o),
(429,397,c),
(429,384,l),
(510,404,o),
(574,453,o),
(574,547,cs),
(574,644,o),
(504,706,o),
(370,706,cs),
(71,706,l),
(71,0,l)
);
},
{
closed = 1;
nodes = (
(217,332,l),
(348,332,ls),
(413,332,o),
(464,297,o),
(464,212,cs),
(464,119,o),
(401,99,o),
(338,99,cs),
(217,99,l)
);
},
{
closed = 1;
nodes = (
(217,613,l),
(340,613,ls),
(402,613,o),
(437,581,o),
(437,528,cs),
(437,480,o),
(408,437,o),
(341,437,cs),
(217,437,l)
);
}
);
width = 623;
}
);
metricLeft = "=N";
unicode = 66;
},
{
glyphname = C;
kernLeft = O;
kernRight = C;
lastChange = "2024-10-16 19:42:44 +0000";
layers = (
{
guides = (
{
angle = 270;
pos = (396,448);
showMeasurement = 1;
}
);
layerId = m01;
shapes = (
{
closed = 1;
nodes = (
(437,-16,o),
(533,-5,o),
(601,53,c),
(585,3,l),
(585,258,l),
(598,248,l),
(548,208,o),
(476,177,o),
(417,177,cs),
(305,177,o),
(258,296,o),
(258,360,cs),
(258,424,o),
(305,531,o),
(422,531,cs),
(479,531,o),
(539,517,o),
(591,472,c),
(566,472,l),
(566,717,l),
(581,668,l),
(516,717,o),
(425,728,o),
(355,728,cs),
(145,728,o),
(26,539,o),
(26,357,cs),
(26,174,o),
(145,-16,o),
(364,-16,cs)
);
}
);
width = 608;
},
{
layerId = "257EBA85-25A6-4EFE-A653-BCCD9A912022";
shapes = (
{
closed = 1;
nodes = (
(459,-16,o),
(563,12,o),
(636,98,c),
(614,30,l),
(614,176,l),
(636,157,l),
(561,59,o),
(450,22,o),
(357,22,cs),
(188.178,22,o),
(85,144.169,o),
(85,355,cs),
(85,565.379,o),
(187.628,677,o),
(370,677,cs),
(454,677,o),
(532,653,o),
(611,560,c),
(586,542,l),
(586,685,l),
(611,616,l),
(536,696,o),
(447,715,o),
(368,715,cs),
(162.372,715,o),
(43,584.621,o),
(43,355,cs),
(43,125.831,o),
(161.822,-16,o),
(368,-16,cs)
);
}
);
width = 640;
},
{
layerId = "6D4AB606-1E4E-4A6F-BC39-70F25E2B516B";
shapes = (
{
closed = 1;
nodes = (
(455,-16,o),
(550,0,o),
(624,79,c),
(602,11,l),
(602,230,l),
(624,217,l),
(562,148,o),
(471,122,o),
(395,122,cs),
(256,122,o),
(182,205,o),
(182,360,cs),
(182,493,o),
(256,584,o),
(401,584,cs),
(475,584,o),
(533,568,o),
(598,502,c),
(568,493,l),
(568,711,l),
(593,642,l),
(523,708,o),
(454,722,o),
(372,722,cs),
(170,722,o),
(36,561,o),
(36,362,cs),
(36,148,o),
(156,-16,o),
(365,-16,cs)
);
}
);
width = 631;
},
{
associatedMasterId = m01;
guides = (
{
angle = 270;
pos = (411,448);
showMeasurement = 1;
}
);
layerId = "C9D8E90B-0D72-487B-9C76-2DF0EF82BD86";
name = "24 Apr 24 at 20:45";
shapes = (
{
closed = 1;
nodes = (
(452,-16,o),
(537,5,o),
(612,81,c),
(590,12,l),
(590,281,l),
(613,273,l),
(563,231,o),
(491,216,o),
(430,216,cs),
(320,216,o),
(273,296,o),
(273,365,cs),
(273,424,o),
(320,497,o),
(430,497,cs),
(494,497,o),
(534,487,o),
(586,447,c),
(551,447,l),
(551,717,l),
(576,648,l),
(511,703,o),
(440,728,o),
(348,728,cs),
(150,728,o),
(29,596,o),
(29,369,cs),
(29,128,o),
(150,-16,o),
(363,-16,cs)
);
}
);
width = 623;
}
);
metricLeft = "=O";
unicode = 67;
},
{
glyphname = D;
kernRight = D;
lastChange = "2024-10-16 19:43:18 +0000";
layers = (
{
layerId = m01;
shapes = (
{
closed = 1;
nodes = (
(322,0,ls),
(529,0,o),
(648,134,o),
(648,375,cs),
(648,602,o),
(522,712,o),
(325,712,cs),
(36,712,l),
(36,0,l)
);
},
{
closed = 1;
nodes = (
(266,558,l),
(236,524,l),
(299,524,ls),
(383,524,o),
(416,487,o),
(416,365,cs),
(416,235,o),
(384,188,o),
(298,188,cs),
(236,188,l),
(266,154,l)
);
}
);
width = 674;
},
{
layerId = "257EBA85-25A6-4EFE-A653-BCCD9A912022";
shapes = (
{
closed = 1;
nodes = (
(336,0,l),
(538.795,0,o),
(656,131.518,o),
(656,369,c),
(656,591.81,o),
(532.271,700,o),
(339,700,c),
(99,700,l),
(99,0,l)
);
},
{
closed = 1;
nodes = (
(141,688,l),
(115,665,l),
(339,662,l),
(509.729,662,o),
(612,570,o),
(612,369,c),
(612,150,o),
(513.205,38,o),
(336,38,c),
(115,35,l),
(141,12,l)
);
}
);
width = 699;
},
{
layerId = "6D4AB606-1E4E-4A6F-BC39-70F25E2B516B";
shapes = (
{
closed = 1;
nodes = (
(364,0,l),
(569,0,o),
(687,133,o),
(687,372,c),
(687,597,o),
(562,706,o),
(367,706,c),
(72,706,l),
(72,0,l)
);
},
{
closed = 1;
nodes = (
(217,609,l),
(189,580,l),
(348,578,l),
(469,578,o),
(540,511,o),
(540,366,c),
(540,210,o),
(471,129,o),
(346,129,c),
(189,127,l),
(217,97,l)
);
}
);
width = 723;
}
);
metricLeft = "=|H";
metricRight = "=O";
unicode = 68;
},
{
glyphname = E;
kernRight = E;
lastChange = "2024-10-16 19:27:04 +0000";
layers = (
{
anchors = (
{
name = top;
pos = (274,712);
}
);
layerId = m01;
shapes = (
{
closed = 1;
nodes = (
(547,0,l),
(547,188,l),
(266,188,l),
(266,524,l),
(534,524,l),
(534,712,l),
(36,712,l),
(36,0,l)
);
},
{
closed = 1;
nodes = (
(499,263,l),
(499,451,l),
(246,451,l),
(246,263,l)
);
}
);
width = 576;
},
{
anchors = (
{
name = top;
pos = (342,700);
}
);
layerId = "257EBA85-25A6-4EFE-A653-BCCD9A912022";
shapes = (
{
closed = 1;
nodes = (
(605,0,l),
(605,38,l),
(141,38,l),
(141,662,l),
(595,662,l),
(595,700,l),
(99,700,l),
(99,0,l)
);
},
{
closed = 1;
nodes = (
(547,352,l),
(547,390,l),
(120,390,l),
(120,352,l)
);
}
);
width = 684;
},
{
anchors = (
{
name = top;
pos = (312,706);
}
);
associatedMasterId = "257EBA85-25A6-4EFE-A653-BCCD9A912022";
attr = {
coordinates = (
145
);
};
layerId = "60F8E3F0-6D59-48B0-A65B-CDD52B44663D";
name = "8 Feb 24, 22:24";
shapes = (
{
closed = 1;
nodes = (
(586,0,l),
(586,136,l),
(216,136,l),
(216,570,l),
(574,570,l),
(574,706,l),
(71,706,l),
(71,0,l)
);
},
{
closed = 1;
nodes = (
(533,297,l),
(533,433,l),
(196,433,l),
(196,297,l)
);
}
);
width = 644;
},
{
anchors = (
{
name = top;
pos = (316,706);
}
);
layerId = "6D4AB606-1E4E-4A6F-BC39-70F25E2B516B";
shapes = (
{
closed = 1;
nodes = (
(574,0,l),
(574,136,l),
(216,136,l),
(216,570,l),
(560,570,l),
(560,706,l),
(71,706,l),
(71,0,l)
);
},
{
closed = 1;
nodes = (
(526,298,l),
(526,432,l),
(197,432,l),
(197,298,l)
);
}
);
width = 632;
}
);
metricLeft = "=H";
metricRight = "=H*.8";
unicode = 69;
},
{
glyphname = F;
kernRight = F;
lastChange = "2024-10-16 19:45:41 +0000";
layers = (
{
guides = (
{
angle = 270;
pos = (466,823);
showMeasurement = 1;
},
{
pos = (-164,614);
showMeasurement = 1;
}
);
layerId = m01;
shapes = (
{
closed = 1;
nodes = (
(266,0,l),
(266,541,l),
(221,524,l),
(524,524,l),
(524,712,l),
(36,712,l),
(36,0,l)
);
},
{
closed = 1;
nodes = (
(488,243,l),
(488,431,l),
(245,431,l),
(245,243,l)
);
}
);
width = 553;
},
{
layerId = "257EBA85-25A6-4EFE-A653-BCCD9A912022";
shapes = (
{
closed = 1;
nodes = (
(141,0,l),
(141,678,l),
(130,662,l),
(583,662,l),
(583,700,l),
(99,700,l),
(99,0,l)
);
},
{
closed = 1;
nodes = (
(547,319,l),
(547,357,l),
(120,357,l),
(120,319,l)
);
}
);
width = 662;
},
{
layerId = "6D4AB606-1E4E-4A6F-BC39-70F25E2B516B";
shapes = (
{
closed = 1;
nodes = (
(217,0,l),
(217,601,l),
(189,570,l),
(564,570,l),
(564,706,l),
(72,706,l),
(72,0,l)
);
},
{
closed = 1;
nodes = (
(523,257,l),
(523,388,l),
(196,388,l),
(196,257,l)
);
}
);
width = 622;
}
);
metricLeft = "=|H";
metricRight = "=E";
unicode = 70;
},
{
glyphname = G;
kernLeft = O;
lastChange = "2024-10-16 19:35:13 +0000";
layers = (
{
background = {
shapes = (
{
pos = (-6,0);
ref = O;
}
);
};
guides = (
{
pos = (210,207);
showMeasurement = 1;
}
);
layerId = m01;
shapes = (
{
closed = 1;
nodes = (
(599,-16,o),
(735,110,o),
(735,394,cs),
(735,437,l),
(351,437,l),
(351,249,l),
(636,249,l),
(533,409,l),
(538,271,o),
(532,175,o),
(417,175,cs),
(324,175,o),
(258,219,o),
(258,363,cs),
(258,497,o),
(374,539,o),
(448,539,cs),
(522,539,o),
(594,516,o),
(655,482,c),
(655,676,l),
(598,710,o),
(504,728,o),
(415,728,cs),
(215,728,o),
(26,591,o),
(26,351,cs),
(26,162,o),
(175,-16,o),
(388,-16,cs)
);
}
);
width = 761;
},
{
layerId = "257EBA85-25A6-4EFE-A653-BCCD9A912022";
shapes = (
{
closed = 1;
nodes = (
(551,-16,o),
(673,125,o),
(673,361,cs),
(673,382,l),
(377,382,l),
(377,344,l),
(655,344,l),
(635,363,l),
(642,156,o),
(531,22,o),
(356,22,cs),
(188.178,22,o),
(87,144,o),
(87,355,cs),
(87,565,o),
(187.628,677,o),
(372,677,cs),
(446,677,o),
(551,659,o),
(629,575,c),
(629,629,l),
(553,699,o),
(440,715,o),
(368,715,cs),
(162.372,715,o),
(43,584.621,o),
(43,355,cs),
(43,125.831,o),
(161.822,-16,o),
(357,-16,cs)
);
}
);
width = 716;
},
{
layerId = "6D4AB606-1E4E-4A6F-BC39-70F25E2B516B";
shapes = (
{
closed = 1;
nodes = (
(577,-16,o),
(706,117,o),
(706,378,cs),
(706,405,l),
(365,405,l),
(365,291,l),
(647,291,l),
(562,387,l),
(562,215,o),
(527,120,o),
(388,120,cs),
(275,120,o),
(183,183,o),
(183,356,cs),
(183,531,o),
(278,585,o),
(407,585,cs),
(479,585,o),
(575,568,o),
(644,522,c),
(644,653,l),
(569,706,o),
(462,722,o),
(385,722,cs),
(164,722,o),
(36,590,o),
(36,358,cs),
(36,127,o),
(163,-16,o),
(374,-16,cs)
);
}
);
width = 742;
}
);
metricLeft = "=O";
metricRight = "=O";
unicode = 71;
},
{
glyphname = H;
kernLeft = H;
kernRight = H;
lastChange = "2024-10-16 19:55:41 +0000";
layers = (
{
layerId = m01;
shapes = (
{
closed = 1;
nodes = (
(266,0,l),
(266,284,l),
(456,284,l),
(456,0,l),
(686,0,l),
(686,712,l),
(456,712,l),
(456,472,l),
(266,472,l),
(266,712,l),
(36,712,l),
(36,0,l)
);
}
);
width = 722;
},
{
layerId = "257EBA85-25A6-4EFE-A653-BCCD9A912022";
shapes = (
{
closed = 1;
nodes = (
(141,0,l),
(141,374,l),
(617,374,l),
(617,0,l),
(659,0,l),
(659,700,l),
(617,700,l),
(617,412,l),
(141,412,l),
(141,700,l),
(99,700,l),
(99,0,l)
);
}
);
width = 758;
},
{
layerId = "6D4AB606-1E4E-4A6F-BC39-70F25E2B516B";
shapes = (
{
closed = 1;
nodes = (
(216,0,l),
(216,315,l),
(563,315,l),
(563,0,l),
(708,0,l),
(708,706,l),
(563,706,l),
(563,451,l),
(216,451,l),
(216,706,l),
(71,706,l),
(71,0,l)
);
}
);
width = 780;
}
);
unicode = 72;
},
{
glyphname = I;
lastChange = "2024-10-16 16:34:06 +0000";
layers = (
{
anchors = (
{
name = top;
pos = (157,712);
}
);
layerId = m01;
shapes = (
{
closed = 1;
nodes = (
(266,0,l),
(266,712,l),
(36,712,l),
(36,0,l)
);
}
);
width = 329;
},
{
anchors = (
{
name = top;
pos = (121,700);
}
);
layerId = "257EBA85-25A6-4EFE-A653-BCCD9A912022";
shapes = (
{
closed = 1;
nodes = (
(141,0,l),
(141,700,l),
(99,700,l),
(99,0,l)
);
}
);
width = 210;
},
{
anchors = (
{
name = top;
pos = (147,706);
}
);
layerId = "6D4AB606-1E4E-4A6F-BC39-70F25E2B516B";
shapes = (
{
closed = 1;
nodes = (
(216,0,l),
(216,706,l),
(71,706,l),
(71,0,l)
);
}
);
width = 279;
}
);
metricLeft = "=N";
unicode = 73;
},
{
glyphname = J;
lastChange = "2024-10-16 16:34:00 +0000";
layers = (
{
layerId = m01;
shapes = (
{
closed = 1;
nodes = (
(-31,-213,l),
(139,-213,o),
(338,-200,o),
(338,65,cs),
(338,712,l),
(108,712,l),
(108,53,ls),
(108,-23,o),
(38,-23,o),
(-31,-23,c),
(-10,22,l),
(-10,-234,l)
);
}
);
width = 374;
},
{
layerId = "257EBA85-25A6-4EFE-A653-BCCD9A912022";
shapes = (
{
closed = 1;
nodes = (
(-61,-133,l),
(72,-143,o),
(180,-92,o),
(180,89,cs),
(180,700,l),
(138,700,l),
(138,89,ls),
(138,-95,o),
(18,-98,o),
(-51,-96,c),
(-30,-51,l),
(-30,-179,l)
);
}
);
width = 279;
},
{
layerId = "6D4AB606-1E4E-4A6F-BC39-70F25E2B516B";
shapes = (
{
closed = 1;
nodes = (
(-46,-174,l),
(107,-179,o),
(268,-148,o),
(268,77,cs),
(268,706,l),
(123,706,l),
(123,74,ls),
(123,-54,o),
(28,-57,o),
(-41,-55,c),
(-20,-10,l),
(-20,-207,l)
);
}
);
width = 340;
}
);
metricRight = "=H";
unicode = 74;
},
{
glyphname = K;
kernRight = K;
lastChange = "2024-10-16 19:32:40 +0000";
layers = (
{
layerId = m01;
shapes = (
{
closed = 1;
nodes = (
(711,0,l),
(455,475,l),
(460,355,l),
(680,712,l),
(432,712,l),
(249,388,l),
(447,0,l)
);
},
{
closed = 1;
nodes = (
(266,0,l),
(266,712,l),
(36,712,l),
(36,0,l)
);
}
);
width = 720;
},
{
layerId = "257EBA85-25A6-4EFE-A653-BCCD9A912022";
shapes = (
{
closed = 1;
nodes = (
(628,0,l),
(186,402,l),
(184,364,l),
(615,700,l),
(552,700,l),
(143,381,l),
(562,0,l)
);
},
{
closed = 1;
nodes = (
(141,0,l),
(141,700,l),
(99,700,l),
(99,0,l)
);
}
);
width = 653;
},
{
layerId = "6D4AB606-1E4E-4A6F-BC39-70F25E2B516B";
shapes = (
{
closed = 1;
nodes = (
(699,0,l),
(317,455,l),
(316,332,l),
(683,706,l),
(507,706,l),
(203,385,l),
(515,0,l)
);
},
{
closed = 1;
nodes = (
(216,0,l),
(216,706,l),
(71,706,l),
(71,0,l)
);
}
);
width = 720;
}
);
metricLeft = "=H";
metricRight = "=X";
unicode = 75;
},
{
glyphname = L;
kernRight = L;
lastChange = "2024-10-16 19:34:50 +0000";
layers = (
{
layerId = m01;
shapes = (
{
closed = 1;
nodes = (
(514,0,l),
(514,188,l),
(221,188,l),
(266,155,l),
(266,712,l),
(36,712,l),
(36,0,l)
);
}
);
width = 524;
},
{
layerId = "257EBA85-25A6-4EFE-A653-BCCD9A912022";
shapes = (
{
closed = 1;
nodes = (
(564,0,l),
(564,38,l),
(126,38,l),
(141,24,l),
(141,700,l),
(99,700,l),
(99,0,l)
);
}
);
width = 594;
},
{
layerId = "6D4AB606-1E4E-4A6F-BC39-70F25E2B516B";
shapes = (
{
closed = 1;
nodes = (
(559,0,l),
(559,136,l),
(186,136,l),
(216,106,l),
(216,706,l),
(71,706,l),
(71,0,l)
);
}
);
width = 574;
}
);
metricLeft = "=H";
unicode = 76;
},
{
glyphname = M;
lastChange = "2024-10-16 18:25:43 +0000";
layers = (
{
layerId = m01;
shapes = (
{
closed = 1;
nodes = (
(266,0,l),
(266,615,l),
(203,615,l),
(426,0,l),
(524,0,l),
(743,623,l),
(684,623,l),
(684,0,l),
(914,0,l),
(914,712,l),
(607,712,l),
(437,260,l),
(533,250,l),
(362,712,l),
(36,712,l),
(36,0,l)
);
}
);
width = 950;
},
{
layerId = "257EBA85-25A6-4EFE-A653-BCCD9A912022";
shapes = (
{
closed = 1;
nodes = (
(141,0,l),
(141,699,l),
(124,696,l),
(411,0,l),
(437,0,l),
(724,696,l),
(707,699,l),
(707,0,l),
(749,0,l),
(749,700,l),
(684,700,l),
(419,56,l),
(430,56,l),
(167,700,l),
(99,700,l),
(99,0,l)
);
}
);
width = 848;
},
{
layerId = "6D4AB606-1E4E-4A6F-BC39-70F25E2B516B";
shapes = (
{
closed = 1;
nodes = (
(216,0,l),
(216,704,l),
(137,704,l),
(409,0,l),
(513,0,l),
(785,704,l),
(706,704,l),
(706,0,l),
(851,0,l),
(851,704,l),
(654,704,l),
(439,156,l),
(494,156,l),
(281,704,l),
(71,704,l),
(71,0,l)
);
}
);
width = 923;
},
{
associatedMasterId = "257EBA85-25A6-4EFE-A653-BCCD9A912022";
layerId = "E2A7A13A-63D0-4FAF-AE81-6DCD3E71A1BB";
name = "old M";
shapes = (
{
closed = 1;
nodes = (
(141,0,l),
(141,699,l),
(124,696,l),
(411,0,l),
(437,0,l),
(724,696,l),
(707,699,l),
(707,0,l),
(749,0,l),
(749,700,l),
(684,700,l),
(419,56,l),
(430,56,l),
(167,700,l),
(99,700,l),
(99,0,l)
);
}
);
width = 848;
},
{
associatedMasterId = "6D4AB606-1E4E-4A6F-BC39-70F25E2B516B";
layerId = "332C7D64-BF00-4603-8325-315532D35671";
name = "old M";
shapes = (
{
closed = 1;
nodes = (
(216,0,l),
(216,705,l),
(137,704,l),
(409,0,l),
(513,0,l),
(785,704,l),
(706,705,l),
(706,0,l),
(851,0,l),
(851,706,l),
(654,706,l),
(439,156,l),
(494,156,l),
(281,706,l),
(71,706,l),
(71,0,l)
);
}
);
width = 923;
},
{
associatedMasterId = m01;
layerId = "0CC0A15A-B21C-409C-8F60-D934FFDB5D97";
name = "old M";
shapes = (
{
closed = 1;
nodes = (
(287,0,l),
(287,615,l),
(234,615,l),
(407,0,l),
(585,0,l),
(764,623,l),
(705,623,l),
(705,0,l),
(947,0,l),
(947,712,l),
(599,712,l),
(458,250,l),
(554,250,l),
(412,712,l),
(45,712,l),
(45,0,l)
);
}
);
width = 992;
},
{
associatedMasterId = m01;
layerId = "8A5C51B5-6D30-4042-B501-04BB8CD0D3A1";
name = "16 Oct 24 at 23:23";
shapes = (
{
closed = 1;
nodes = (
(266,0,l),
(266,615,l),
(223,515,l),
(432,194,l),
(618,493,l),
(594,623,l),
(594,0,l),
(824,0,l),
(824,712,l),
(565,712,l),
(390,438,l),
(495,450,l),
(315,712,l),
(36,712,l),
(36,0,l)
);
}
);
width = 860;
},
{
associatedMasterId = "6D4AB606-1E4E-4A6F-BC39-70F25E2B516B";
layerId = "96A10FE7-8724-4DB1-85E3-A65980D10A11";
name = "16 Oct 24 at 23:23";
shapes = (
{
closed = 1;
nodes = (
(216,0,l),
(216,685,l),
(132,667,l),
(436,211,l),
(721,659,l),
(646,675,l),
(646,0,l),
(791,0,l),
(791,706,l),
(594,706,l),
(421,425,l),
(462,433,l),
(281,706,l),
(71,706,l),
(71,0,l)
);
}
);
width = 863;
},
{
associatedMasterId = "257EBA85-25A6-4EFE-A653-BCCD9A912022";
layerId = "D6847DAA-DE01-4995-B907-41285B28EF23";
name = "16 Oct 24 at 23:23";
shapes = (
{
closed = 1;
nodes = (
(141,0,l),
(141,689,l),
(127,691,l),
(405,300,l),
(684,696,l),
(667,688,l),
(667,0,l),
(709,0,l),
(709,700,l),
(644,700,l),
(399,356,l),
(414,359,l),
(172,700,l),
(99,700,l),
(99,0,l)
);
}
);
width = 808;
}
);
metricLeft = "=H";
metricRight = "=H";
unicode = 77;
},
{
glyphname = N;
lastChange = "2024-10-16 16:34:00 +0000";
layers = (
{
hints = (
{
place = (141,30);
type = Stem;
}
);
layerId = m01;
shapes = (
{
closed = 1;
nodes = (
(266,0,l),
(266,512,l),
(163,488,l),
(504,0,l),
(722,0,l),
(722,712,l),
(492,712,l),
(492,205,l),
(626,191,l),
(265,712,l),
(36,712,l),
(36,0,l)
);
}
);
width = 758;
},
{
hints = (
{
place = (141,30);
type = Stem;
}
);
layerId = "257EBA85-25A6-4EFE-A653-BCCD9A912022";
shapes = (
{
closed = 1;
nodes = (
(141,0,l),
(141,662,l),
(120,660,l),
(612,0,l),
(659,0,l),
(659,700,l),
(617,700,l),
(617,38,l),
(638,38,l),
(145,700,l),
(99,700,l),
(99,0,l)
);
}
);
width = 758;
},
{
hints = (
{
place = (141,30);
type = Stem;
}
);
layerId = "6D4AB606-1E4E-4A6F-BC39-70F25E2B516B";
shapes = (
{
closed = 1;
nodes = (
(216,0,l),
(216,662,l),
(128,661,l),
(528,0,l),
(708,0,l),
(708,706,l),
(563,706,l),
(563,38,l),
(646,38,l),
(246,706,l),
(71,706,l),
(71,0,l)
);
}
);
width = 780;
}
);
metricLeft = "=H";
metricRight = "=H";
unicode = 78;
},
{
glyphname = O;
kernLeft = O;
kernRight = O;
lastChange = "2024-10-22 06:30:16 +0000";
layers = (
{
anchors = (
{
name = top;
pos = (386,712);
}
);
guides = (
{
angle = 270;
pos = (392,768);
showMeasurement = 1;
},
{
angle = 180;
pos = (763,358);
showMeasurement = 1;
}
);
layerId = m01;
shapes = (
{
closed = 1;
nodes = (
(615,-16,o),
(746,129,o),
(746,370,cs),
(746,595,o),
(615,728,o),
(386,728,cs),
(157,728,o),
(26,595,o),
(26,370,cs),
(26,129,o),
(157,-16,o),
(386,-16,cs)
);
},
{
closed = 1;
nodes = (
(304,174,o),
(258,265,o),
(258,362,cs),
(258,478,o),
(304,538,o),
(386,538,cs),
(468,538,o),
(514,452,o),
(514,362,cs),
(514,265,o),
(468,174,o),
(386,174,cs)
);
}
);
width = 772;
},
{
anchors = (
{
name = top;
pos = (350,700);
}
);
layerId = "257EBA85-25A6-4EFE-A653-BCCD9A912022";
shapes = (
{
closed = 1;
nodes = (
(545,-16,o),
(657,126,o),
(657,355,cs),
(657,584,o),
(545,715,o),
(350,715,cs),
(155,715,o),
(43,584,o),
(43,355,cs),
(43,126,o),
(155,-16,o),
(350,-16,cs)
);
},
{
closed = 1;
nodes = (
(181,22,o),
(87,144,o),
(87,355,cs),
(87,566,o),
(181,677,o),
(350,677,cs),
(519,677,o),
(613,566,o),
(613,355,cs),
(613,144,o),
(519,22,o),
(350,22,cs)
);
}
);
width = 700;
},
{
anchors = (
{
name = top;
pos = (370,722);
}
);
layerId = "6D4AB606-1E4E-4A6F-BC39-70F25E2B516B";
shapes = (
{
closed = 1;
nodes = (
(583,-16,o),
(704,128,o),
(704,363,cs),
(704,590,o),
(583,722,o),
(370,722,cs),
(158,722,o),
(36,590,o),
(36,363,cs),
(36,128,o),
(158,-16,o),
(370,-16,cs)
);
},
{
closed = 1;
nodes = (
(251,120,o),
(183,206,o),
(183,359,cs),
(183,507,o),
(251,586,o),
(370,586,cs),
(490,586,o),
(557,507,o),
(557,359,cs),
(557,206,o),
(490,120,o),
(370,120,cs)
);
}
);
width = 740;
}
);
unicode = 79;
},
{
glyphname = P;
kernRight = P;
lastChange = "2024-10-16 19:37:05 +0000";
layers = (
{
layerId = m01;
shapes = (
{
closed = 1;
nodes = (
(266,0,l),
(266,170,l),
(333,170,ls),
(513,170,o),
(601,294,o),
(601,451,cs),
(601,638,o),
(474,712,o),
(337,712,cs),
(36,712,l),
(36,0,l)
);
},
{
closed = 1;
nodes = (
(266,524,l),
(312,524,ls),
(342,524,o),
(370,499,o),
(370,439,cs),
(370,405,o),
(346,358,o),
(309,358,cs),
(266,358,l)
);
}
);
width = 627;
},
{
layerId = "257EBA85-25A6-4EFE-A653-BCCD9A912022";
shapes = (
{
closed = 1;
nodes = (
(141,0,l),
(141,276,l),
(314,276,ls),
(468,276,o),
(557,369,o),
(557,498,cs),
(557,634,o),
(458,700,o),
(323,700,cs),
(99,700,l),
(99,0,l)
);
},
{
closed = 1;
nodes = (
(141,662,l),
(324,662,ls),
(436,662,o),
(513,608,o),
(513,496,cs),
(513,391,o),
(446,314,o),
(317,314,cs),
(141,314,l)
);
}
);
width = 600;
},
{
layerId = "6D4AB606-1E4E-4A6F-BC39-70F25E2B516B";
shapes = (
{
closed = 1;
nodes = (
(216,0,l),
(216,243,l),
(354,243,ls),
(509,243,o),
(598,332,o),
(598,476,cs),
(598,638,o),
(484,706,o),
(348,706,cs),
(71,706,l),
(71,0,l)
);
},
{
closed = 1;
nodes = (
(216,598,l),
(329,598,ls),
(398,598,o),
(450,559,o),
(450,480,cs),
(450,406,o),
(405,351,o),
(324,351,cs),
(216,351,l)
);
}
);
width = 634;
}
);
metricLeft = "=N";
metricRight = "=O";
unicode = 80;
},
{
glyphname = Q;
kernLeft = O;
kernRight = O;
lastChange = "2024-10-16 19:34:16 +0000";
layers = (
{
layerId = m01;
shapes = (
{
closed = 1;
nodes = (
(615,-16,o),
(746,129,o),
(746,370,cs),
(746,595,o),
(615,728,o),
(386,728,cs),
(157,728,o),
(26,595,o),
(26,370,cs),
(26,129,o),
(157,-16,o),
(386,-16,cs)
);
},
{
closed = 1;
nodes = (
(621,-130,l),
(491,64,l),
(276,64,l),
(389,-130,l)
);
},
{
closed = 1;
nodes = (
(299,175,o),
(258,248,o),
(258,363,cs),
(258,470,o),
(299,538,o),
(386,538,cs),
(473,538,o),
(514,470,o),
(514,363,cs),
(514,248,o),
(473,175,o),
(386,175,cs)
);
}
);
width = 772;
},
{
layerId = "257EBA85-25A6-4EFE-A653-BCCD9A912022";
shapes = (
{
closed = 1;
nodes = (
(545,-16,o),
(657,126,o),
(657,355,cs),
(657,584,o),
(545,715,o),
(350,715,cs),
(155,715,o),
(43,584,o),
(43,355,cs),
(43,126,o),
(155,-16,o),
(350,-16,cs)
);
},
{
closed = 1;
nodes = (
(448,-155,l),
(359,-2,l),
(311,-2,l),
(400,-155,l)
);
},
{
closed = 1;
nodes = (
(181,22,o),
(87,144,o),
(87,355,cs),
(87,566,o),
(181,677,o),
(350,677,cs),
(519,677,o),
(613,566,o),
(613,355,cs),
(613,144,o),
(519,22,o),
(350,22,cs)
);
}
);
width = 700;
},
{
layerId = "6D4AB606-1E4E-4A6F-BC39-70F25E2B516B";
shapes = (
{
closed = 1;
nodes = (
(583,-16,o),
(704,128,o),
(704,363,cs),
(704,590,o),
(583,722,o),
(370,722,cs),
(158,722,o),
(36,590,o),
(36,363,cs),
(36,128,o),
(158,-16,o),
(370,-16,cs)
);
},
{
closed = 1;
nodes = (
(551,-160,l),
(448,20,l),
(291,20,l),
(388,-160,l)
);
},
{
closed = 1;
nodes = (
(251,120,o),
(183,206,o),
(183,359,cs),
(183,507,o),
(251,586,o),
(370,586,cs),
(490,586,o),
(557,507,o),
(557,359,cs),
(557,206,o),
(490,120,o),
(370,120,cs)
);
}
);
width = 740;
}
);
metricLeft = "=O";
metricRight = "=O";
unicode = 81;
},
{
glyphname = R;
kernRight = P;
lastChange = "2024-10-16 19:36:38 +0000";
layers = (
{
layerId = m01;
shapes = (
{
closed = 1;
nodes = (
(266,0,l),
(266,211,l),
(350,211,ls),
(506,211,o),
(602,319,o),
(602,471,cs),
(602,642,o),
(487,712,o),
(350,712,cs),
(36,712,l),
(36,0,l)
);
},
{
closed = 1;
nodes = (
(647,0,l),
(480,276,l),
(241,261,l),
(386,0,l)
);
},
{
closed = 1;
nodes = (
(266,524,l),
(312,524,ls),
(342,524,o),
(370,505,o),
(370,464,cs),
(370,413,o),
(339,395,o),
(309,395,cs),
(266,395,l)
);
}
);
width = 660;
},
{
layerId = "257EBA85-25A6-4EFE-A653-BCCD9A912022";
shapes = (
{
closed = 1;
nodes = (
(141,0,l),
(141,313,l),
(360,313,ls),
(504,313,o),
(603,369,o),
(603,502,cs),
(603,634,o),
(504,700,o),
(369,700,cs),
(99,700,l),
(99,0,l)
);
},
{
closed = 1;
nodes = (
(615,0,l),
(356,337,l),
(321,322,l),
(568,0,l)
);
},
{
closed = 1;
nodes = (
(141,662,l),
(370,662,ls),
(482,662,o),
(559,608,o),
(559,499,cs),
(559,391,o),
(483,351,o),
(363,351,cs),
(141,351,l)
);
}
);
width = 630;
},
{
layerId = "6D4AB606-1E4E-4A6F-BC39-70F25E2B516B";
shapes = (
{
closed = 1;
nodes = (
(216,0,l),
(216,260,l),
(376,260,ls),
(526,260,o),
(621,332,o),
(621,478,cs),
(621,638,o),
(506,706,o),
(370,706,cs),
(71,706,l),
(71,0,l)
);
},
{
closed = 1;
nodes = (
(642,0,l),
(431,306,l),
(289,291,l),
(483,0,l)
);
},
{
closed = 1;
nodes = (
(216,598,l),
(351,598,ls),
(421,598,o),
(472,559,o),
(472,481,cs),
(472,406,o),
(423,369,o),
(346,369,cs),
(216,369,l)
);
}
);
width = 656;
}
);
metricLeft = "=H";
unicode = 82;
},
{
glyphname = S;
lastChange = "2024-10-14 12:07:59 +0000";
layers = (
{
layerId = m01;
shapes = (
{
closed = 1;
nodes = (
(405,-16,o),
(539,73,o),
(539,247,cs),
(539,422,o),
(321,440,o),
(321,504,cs),
(321,522,o),
(348,535,o),
(397,535,cs),
(454,535,o),
(501,511,o),
(531,482,c),
(531,673,l),
(479,705,o),
(428,728,o),
(333,728,cs),
(126,728,o),
(64,620,o),
(64,486,cs),
(64,313,o),
(270,278,o),
(270,212,cs),
(270,191,o),
(237,180,o),
(203,180,cs),
(147,180,o),
(84,210,o),
(33,255,c),
(33,37,l),
(90,2,o),
(177,-16,o),
(256,-16,cs)
);
}
);
width = 572;
},
{
layerId = "257EBA85-25A6-4EFE-A653-BCCD9A912022";
shapes = (
{
closed = 1;
nodes = (
(446,-16,o),
(517,90,o),
(517,192,cs),
(517,434,o),
(120,369,o),
(120,552,cs),
(120,633,o),
(197,677,o),
(294,677,cs),
(379,677,o),
(460,643,o),
(504,601,c),
(504,654,l),
(463,689,o),
(376,715,o),
(297,715,cs),
(180,715,o),
(78,659,o),
(78,548,cs),
(78,330,o),
(475,400,o),
(475,187,cs),
(475,106,o),
(418,22,o),
(263,22,cs),
(161,22,o),
(92,58,o),
(43,97,c),
(43,43,l),
(91,10,o),
(165,-16,o),
(258,-16,cs)
);
}
);
width = 567;
},
{
layerId = "6D4AB606-1E4E-4A6F-BC39-70F25E2B516B";
shapes = (
{
closed = 1;
nodes = (
(445,-16,o),
(499,89,o),
(499,179,cs),
(499,380,o),
(198,456,o),
(198,540,cs),
(198,588,o),
(272,598,o),
(319,598,cs),
(391,598,o),
(447,575,o),
(489,551,c),
(489,678,l),
(443,700,o),
(391,722,o),
(305,722,cs),
(188,722,o),
(51,683,o),
(51,543,cs),
(51,348,o),
(352,283,o),
(352,174,cs),
(352,133,o),
(324,112,o),
(242,112,cs),
(154,112,o),
(93,136,o),
(36,170,c),
(36,35,l),
(94,6,o),
(170,-16,o),
(256,-16,cs)
);
}
);
width = 543;
},
{
associatedMasterId = m01;
layerId = "E1A1841C-B1FF-432E-9AC5-32D4C549CF1A";
name = "24 Apr 24 at 20:47";
shapes = (
{
closed = 1;
nodes = (
(458,-16,o),
(591,87,o),
(591,220,cs),
(591,407,o),
(273,457,o),
(273,517,cs),
(273,547,o),
(356,552,o),
(391,552,cs),
(443,552,o),
(498,541,o),
(547,519,c),
(547,687,l),
(488,716,o),
(418,728,o),
(352,728,cs),
(210,728,o),
(29,672,o),
(29,521,cs),
(29,318,o),
(357,277,o),
(357,202,cs),
(357,174,o),
(312,170,o),
(268,170,cs),
(161,170,o),
(101,193,o),
(38,224,c),
(38,32,l),
(104,7,o),
(189,-16,o),
(275,-16,cs)
);
}
);
width = 629;
}
);
unicode = 83;
},
{
glyphname = T;
kernLeft = T;
kernRight = T;
lastChange = "2024-10-16 19:38:12 +0000";
layers = (
{
layerId = m01;
shapes = (
{
closed = 1;
nodes = (
(430,0,l),
(430,681,l),
(200,681,l),
(200,0,l)
);
},
{
closed = 1;
nodes = (
(610,524,l),
(610,712,l),
(20,712,l),
(20,524,l)
);
}
);
width = 630;
},
{
layerId = "257EBA85-25A6-4EFE-A653-BCCD9A912022";
shapes = (
{
closed = 1;
nodes = (
(335,0,l),
(335,681,l),
(293,681,l),
(293,0,l)
);
},
{
closed = 1;
nodes = (
(619,662,l),
(619,700,l),
(10,700,l),
(10,662,l)
);
}
);
width = 629;
},
{
layerId = "6D4AB606-1E4E-4A6F-BC39-70F25E2B516B";
shapes = (
{
closed = 1;
nodes = (
(392,0,l),
(392,681,l),
(247,681,l),
(247,0,l)
);
},
{
closed = 1;
nodes = (
(625,570,l),
(625,706,l),
(15,706,l),
(15,570,l)
);
}
);
width = 640;
}
);
metricLeft = "=|";
unicode = 84;
},
{
glyphname = U;
kernLeft = O;
kernRight = U;
lastChange = "2024-10-16 19:37:38 +0000";
layers = (
{
anchors = (
{
name = top;
pos = (369,712);
}
);
layerId = m01;
shapes = (
{
closed = 1;
nodes = (
(590,-16,o),
(702,70,o),
(702,338,cs),
(702,757,l),
(742,712,l),
(434,712,l),
(472,757,l),
(472,350,ls),
(472,241,o),
(472,186,o),
(367,186,cs),
(267,186,o),
(267,241,o),
(267,350,cs),
(267,757,l),
(315,712,l),
(2,712,l),
(36,757,l),
(36,338,ls),
(36,70,o),
(139,-16,o),
(365,-16,cs)
);
}
);
width = 738;
},
{
anchors = (
{
name = top;
pos = (369,700);
}
);
layerId = "257EBA85-25A6-4EFE-A653-BCCD9A912022";
shapes = (
{
closed = 1;
nodes = (
(566,-5,o),
(639,104,o),
(639,229,cs),
(639,745,l),
(684,700,l),
(553,700,l),
(598,745,l),
(598,229,ls),
(598,104,o),
(515,33,o),
(365,33,cs),
(214,33,o),
(141,104,o),
(141,229,cs),
(141,745,l),
(186,700,l),
(54,700,l),
(99,745,l),
(99,229,ls),
(99,104,o),
(166,-5,o),
(366,-5,cs)
);
}
);
width = 738;
},
{
anchors = (
{
name = top;
pos = (380,706);
}
);
layerId = "6D4AB606-1E4E-4A6F-BC39-70F25E2B516B";
shapes = (
{
closed = 1;
nodes = (
(595,-11,o),
(688,86,o),
(688,254,cs),
(688,751,l),
(731,706,l),
(503,706,l),
(544,751,l),
(544,291,ls),
(544,182,o),
(504,120,o),
(377,120,cs),
(252,120,o),
(217,182,o),
(217,291,cs),
(217,751,l),
(263,706,l),
(32,706,l),
(71,751,l),
(71,254,ls),
(71,86,o),
(157,-11,o),
(376,-11,cs)
);
}
);
width = 760;
}
);
metricLeft = "=H";
metricRight = "=H";
unicode = 85;
},
{
glyphname = V;
kernLeft = V;
kernRight = V;
lastChange = "2024-10-16 19:40:31 +0000";
layers = (
{
layerId = m01;
shapes = (
{
closed = 1;
nodes = (
(549,0,l),
(796,712,l),
(558,712,l),
(356,88,l),
(463,88,l),
(261,712,l),
(10,712,l),
(257,0,l)
);
}
);
width = 806;
},
{
layerId = "257EBA85-25A6-4EFE-A653-BCCD9A912022";
shapes = (
{
closed = 1;
nodes = (
(327,0,l),
(588,700,l),
(547,700,l),
(289,8,l),
(319,8,l),
(61,700,l),
(16,700,l),
(277,0,l)
);
}
);
width = 608;
},
{
associatedMasterId = "257EBA85-25A6-4EFE-A653-BCCD9A912022";
background = {
shapes = (
{
attr = {
strokeHeight = 38;
strokeWidth = 42;
};
closed = 1;
nodes = (
(524,3,o),
(628,135,o),
(628,363,cs),
(628,575,o),
(524,696,o),
(342,696,cs),
(160,696,o),
(56,575,o),
(56,363,cs),
(56,135,o),
(160,3,o),
(342,3,cs)
);
}
);
};
layerId = "BED7211F-735F-4F4B-AA55-91F0B428FFDB";
name = "14 Dec 23, 22:53";
shapes = (
{
attr = {
lineCapEnd = 4;
lineCapStart = 4;
strokeHeight = 38;
strokeWidth = 42;
};
closed = 0;
nodes = (
(65,699,l),
(320,19,l),
(360,19,l),
(615,700,l)
);
}
);
width = 687;
},
{
layerId = "6D4AB606-1E4E-4A6F-BC39-70F25E2B516B";
shapes = (
{
closed = 1;
nodes = (
(448,0,l),
(702,706,l),
(558,706,l),
(329,49,l),
(398,49,l),
(169,706,l),
(20,706,l),
(274,0,l)
);
}
);
width = 727;
}
);
unicode = 86;
},
{
glyphname = W;
kernLeft = V;
kernRight = V;
lastChange = "2024-10-16 19:39:12 +0000";
layers = (
{
anchors = (
{
name = top;
pos = (478,712);
}
);
layerId = m01;
shapes = (
{
closed = 1;
nodes = (
(410,0,l),
(542,457,l),
(412,457,l),
(555,0,l),
(793,0,l),
(944,712,l),
(719,712,l),
(609,216,l),
(697,59,l),
(558,712,l),
(396,712,l),
(250,60,l),
(337,216,l),
(250,712,l),
(10,712,l),
(162,0,l)
);
}
);
width = 954;
},
{
anchors = (
{
name = top;
pos = (432,700);
}
);
layerId = "257EBA85-25A6-4EFE-A653-BCCD9A912022";
shapes = (
{
closed = 1;
nodes = (
(253,0,l),
(434,645,l),
(424,645,l),
(602,0,l),
(648,0,l),
(838,700,l),
(794,700,l),
(618,40,l),
(630,40,l),
(448,700,l),
(410,700,l),
(223,40,l),
(237,40,l),
(60,700,l),
(16,700,l),
(207,0,l)
);
}
);
width = 858;
},
{
anchors = (
{
name = top;
pos = (493,706);
}
);
layerId = "6D4AB606-1E4E-4A6F-BC39-70F25E2B516B";
shapes = (
{
closed = 1;
nodes = (
(372,0,l),
(528,651,l),
(458,651,l),
(621,0,l),
(786,0,l),
(961,706,l),
(822,706,l),
(680,40,l),
(727,40,l),
(570,706,l),
(425,706,l),
(275,40,l),
(323,40,l),
(170,706,l),
(20,706,l),
(197,0,l)
);
}
);
width = 986;
},
{
anchors = (
{
name = top;
pos = (547,712);
}
);
associatedMasterId = m01;
layerId = "A83D67EB-9DBA-43E7-8F49-12451F7FBE83";
name = "old W";
shapes = (
{
closed = 1;
nodes = (
(480,0,l),
(612,657,l),
(486,657,l),
(635,0,l),
(912,0,l),
(1074,712,l),
(844,712,l),
(734,40,l),
(814,40,l),
(682,712,l),
(436,712,l),
(320,40,l),
(400,40,l),
(270,712,l),
(20,712,l),
(183,0,l)
);
}
);
width = 1094;
}
);
metricLeft = "=V";
metricRight = "=V";
unicode = 87;
},
{
glyphname = X;
kernLeft = X;
kernRight = X;
lastChange = "2024-10-16 19:37:07 +0000";
layers = (
{
background = {
shapes = (
{
pos = (-32,0);
ref = O;
}
);
};
layerId = m01;
shapes = (
{
closed = 1;
nodes = (
(745,0,l),
(285,712,l),
(8,712,l),
(469,0,l)
);
},
{
closed = 1;
nodes = (
(274,0,l),
(411,230,l),
(310,455,l),
(5,0,l)
);
},
{
closed = 1;
nodes = (
(744,712,l),
(478,712,l),
(321,454,l),
(430,230,l)
);
}
);
width = 754;
},
{
layerId = "257EBA85-25A6-4EFE-A653-BCCD9A912022";
shapes = (
{
closed = 1;
nodes = (
(602,0,l),
(85,700,l),
(30,700,l),
(548,0,l)
);
},
{
closed = 1;
nodes = (
(70,0,l),
(332,335,l),
(307,365,l),
(22,0,l)
);
},
{
closed = 1;
nodes = (
(617,700,l),
(569,700,l),
(307,365,l),
(332,335,l)
);
}
);
width = 642;
},
{
layerId = "6D4AB606-1E4E-4A6F-BC39-70F25E2B516B";
shapes = (
{
closed = 1;
nodes = (
(714,0,l),
(197,706,l),
(24,706,l),
(542,0,l)
);
},
{
closed = 1;
nodes = (
(172,0,l),
(406,302,l),
(330,406,l),
(16,0,l)
);
},
{
closed = 1;
nodes = (
(719,706,l),
(563,706,l),
(330,406,l),
(406,302,l)
);
}
);
width = 740;
}
);
unicode = 88;
},
{
glyphname = Y;
kernLeft = V;
kernRight = V;
lastChange = "2024-10-16 19:43:21 +0000";
layers = (
{
anchors = (
{
name = top;
pos = (366,712);
}
);
layerId = m01;
shapes = (
{
closed = 1;
nodes = (
(481,0,l),
(481,199,l),
(722,712,l),
(497,712,l),
(275,130,l),
(475,130,l),
(261,712,l),
(10,712,l),
(251,199,l),
(251,0,l)
);
}
);
width = 732;
},
{
anchors = (
{
name = top;
pos = (293,700);
}
);
background = {
shapes = (
{
closed = 1;
nodes = (
(227,94,o),
(195,40,o),
(131,40,cs),
(105,40,l),
(105,0,l),
(120,0,ls),
(206,0,o),
(242,41,o),
(304,161,cs),
(582,700,l),
(539,700,l),
(281,196,l),
(313,191,l),
(26,700,l),
(-22,700,l),
(272,179,l)
);
}
);
};
layerId = "257EBA85-25A6-4EFE-A653-BCCD9A912022";
shapes = (
{
closed = 1;
nodes = (
(309,0,l),
(309,209,l),
(560,700,l),
(517,700,l),
(282,239,l),
(299,239,l),
(63,700,l),
(16,700,l),
(267,209,l),
(267,0,l)
);
}
);
width = 580;
},
{
anchors = (
{
name = top;
pos = (338,706);
}
);
layerId = "6D4AB606-1E4E-4A6F-BC39-70F25E2B516B";
shapes = (
{
closed = 1;
nodes = (
(408,0,l),
(408,194,l),
(651,706,l),
(514,706,l),
(282,173,l),
(398,173,l),
(171,706,l),
(20,706,l),
(263,194,l),
(263,0,l)
);
}
);
width = 676;
}
);
metricLeft = "=V";
metricRight = "=V";
unicode = 89;
},
{
glyphname = Z;
kernLeft = Z;
kernRight = Z;
lastChange = "2024-10-16 19:44:05 +0000";
layers = (
{
layerId = m01;
shapes = (
{
closed = 1;
nodes = (
(540,0,l),
(540,188,l),
(64,188,l),
(294,179,l),
(533,524,l),
(533,712,l),
(57,712,l),
(57,524,l),
(503,524,l),
(375,663,l),
(36,188,l),
(36,0,l)
);
}
);
width = 576;
},
{
layerId = "257EBA85-25A6-4EFE-A653-BCCD9A912022";
shapes = (
{
closed = 1;
nodes = (
(634,0,l),
(634,38,l),
(127,38,l),
(144,27,l),
(632,662,l),
(632,700,l),
(130,700,l),
(130,662,l),
(603,662,l),
(589,675,l),
(99,38,l),
(99,0,l)
);
}
);
width = 733;
},
{
layerId = "6D4AB606-1E4E-4A6F-BC39-70F25E2B516B";
shapes = (
{
closed = 1;
nodes = (
(613,0,l),
(613,130,l),
(99,130,l),
(223,105,l),
(609,577,l),
(609,706,l),
(97,706,l),
(97,577,l),
(579,577,l),
(515,669,l),
(71,130,l),
(71,0,l)
);
}
);
width = 685;
}
);
metricLeft = "=H";
metricRight = "=H";
unicode = 90;
},
{
glyphname = a;
kernLeft = a;
kernRight = n;
lastChange = "2024-10-16 19:44:57 +0000";
layers = (
{
anchors = (
{
name = top;
pos = (269,528);
}
);
background = {
shapes = (
{
closed = 1;
nodes = (
(498,0,l),
(497,351,ls),
(497,484,o),
(454,516,o),
(383,516,cs),
(291,516,o),
(146,462,o),
(146,242,c),
(192,242,l),
(192,289,o),
(217,318,o),
(248,318,cs),
(270,318,o),
(277,303,o),
(277,268,cs),
(278,0,l)
);
},
{
closed = 1;
nodes = (
(192,0,l),
(192,500,l),
(-28,500,l),
(-28,0,l)
);
}
);
};
layerId = m01;
shapes = (
{
closed = 1;
nodes = (
(497,0,l),
(496,295,ls),
(496,447,o),
(445,528,o),
(269,528,cs),
(180,528,o),
(95,515,o),
(21,491,c),
(21,317,l),
(67,356,o),
(149,376,o),
(208,376,cs),
(264,376,o),
(278,358,o),
(278,303,cs),
(278,127,l),
(293,0,l)
);
},
{
closed = 1;
nodes = (
(199,-16,o),
(296,2,o),
(315,169,c),
(289,178,l),
(280,147,o),
(263,134,o),
(248,134,cs),
(230,134,o),
(217,152,o),
(217,182,cs),
(217,219,o),
(238,230,o),
(260,230,cs),
(266,230,o),
(277,229,o),
(290,226,c),
(297,320,l),
(274,322,o),
(252,324,o),
(229,324,cs),
(92,324,o),
(4,250,o),
(4,138,cs),
(4,51,o),
(57,-16,o),
(151,-16,cs)
);
}
);
width = 511;
},
{
anchors = (
{
name = top;
pos = (237,516);
}
);
layerId = "257EBA85-25A6-4EFE-A653-BCCD9A912022";
shapes = (
{
closed = 1;
nodes = (
(432,0,l),
(431,295,ls),
(431,439,o),
(367,516,o),
(237,516,cs),
(164,516,o),
(96,492,o),
(47,450,c),
(47,403,l),
(96,451,o),
(163,478,o),
(236,478,cs),
(339,478,o),
(391,423,o),
(391,297,cs),
(391,137,l),
(392,0,l)
);
},
{
closed = 1;
nodes = (
(293,-16,o),
(369,50,o),
(412,161,c),
(393,175,l),
(353,77,o),
(283,22,o),
(198,22,cs),
(117,22,o),
(70,71,o),
(70,144,cs),
(70,212,o),
(110,266,o),
(232,266,cs),
(284,266,o),
(347,256,o),
(404,238,c),
(411,277,l),
(335,299,o),
(285,304,o),
(242,304,cs),
(87,304,o),
(30,238,o),
(30,148,cs),
(30,51,o),
(95,-16,o),
(194,-16,cs)
);
}
);
width = 508;
},
{
associatedMasterId = "257EBA85-25A6-4EFE-A653-BCCD9A912022";
background = {
shapes = (
{
attr = {
strokeHeight = 38;
strokeWidth = 40;
};
closed = 0;
nodes = (
(45,500,l),
(45,0,l)
);
},
{
attr = {
strokeHeight = 38;
strokeWidth = 40;
};
closed = 0;
nodes = (
(45,134,l),
(45,433,o),
(155,497,o),
(254,497,cs),
(332,497,o),
(409,454,o),
(410,345,cs),
(412,0,l)
);
}
);
};
layerId = "EDDA1CEC-C64A-42A8-9B16-BFF9D7F66D24";
name = norm;
shapes = (
{
closed = 1;
nodes = (
(432,0,l),
(431,295,ls),
(431,439,o),
(387,516,o),
(256,516,cs),
(184,516,o),
(96,492,o),
(47,450,c),
(47,402,l),
(95,451,o),
(183,478,o),
(255,478,cs),
(359,478,o),
(391,423,o),
(391,297,cs),
(391,168,l),
(391,155,l),
(392,0,l)
);
},
{
closed = 1;
nodes = (
(293,-16,o),
(369,50,o),
(412,161,c),
(393,175,l),
(353,77,o),
(283,22,o),
(194,22,cs),
(117,22,o),
(70,71,o),
(70,144,cs),
(70,212,o),
(110,266,o),
(232,266,cs),
(284,266,o),
(347,256,o),
(404,238,c),
(411,277,l),
(352,295,o),
(285,304,o),
(233,304,cs),
(92,304,o),
(30,238,o),
(30,146,cs),
(30,51,o),
(95,-16,o),
(191,-16,cs)
);
}
);
width = 507;
},
{
anchors = (
{
name = top;
pos = (253,522);
}
);
layerId = "6D4AB606-1E4E-4A6F-BC39-70F25E2B516B";
shapes = (
{
closed = 1;
nodes = (
(466,0,l),
(466,295,ls),
(466,443,o),
(407,522,o),
(248,522,cs),
(172,522,o),
(95,504,o),
(34,471,c),
(34,359,l),
(73,380,o),
(156,408,o),
(220,408,cs),
(300,408,o),
(333,390,o),
(333,300,cs),
(333,132,l),
(338,0,l)
);
},
{
closed = 1;
nodes = (
(245,-16,o),
(326,20,o),
(356,107,c),
(341,153,l),
(317,110,o),
(273,85,o),
(225,85,cs),
(175,85,o),
(146,113,o),
(146,155,cs),
(146,197,o),
(176,219,o),
(255,219,cs),
(279,219,o),
(314,217,o),
(345,207,c),
(352,294,l),
(320,305,o),
(284,314,o),
(233,314,cs),
(90,314,o),
(17,244,o),
(17,142,cs),
(17,51,o),
(75,-16,o),
(173,-16,cs)
);
}
);
width = 510;
}
);
metricRight = "=n";
unicode = 97;
},
{
glyphname = a.001;
kernRight = n;
lastChange = "2024-03-02 02:26:44 +0000";
layers = (
{
layerId = m01;
shapes = (
{
closed = 1;
nodes = (
(342,-16,o),
(360,142,o),
(360,297,cs),
(360,404,o),
(328,528,o),
(209,528,cs),
(105,528,o),
(11,432,o),
(11,255,cs),
(11,102,o),
(81,-16,o),
(202,-16,cs)
);
},
{
closed = 1;
nodes = (
(247,187,o),
(231,214,o),
(231,253,cs),
(231,299,o),
(254,321,o),
(288,323,cs),
(322,324,o),
(339,304,o),
(339,264,cs),
(339,217,o),
(315,187,o),
(280,187,cs)
);
},
{
closed = 1;
nodes = (
(560,0,l),
(560,512,l),
(340,512,l),
(340,0,l)
);
}
);
width = 574;
},
{
layerId = "257EBA85-25A6-4EFE-A653-BCCD9A912022";
shapes = (
{
closed = 1;
nodes = (
(407,-16,o),
(483,106,o),
(483,285,cs),
(483,427,o),
(435,516,o),
(294,516,cs),
(150,516,o),
(54,422,o),
(54,246,cs),
(54,99,o),
(120,-16,o),
(261,-16,cs)
);
},
{
closed = 1;
nodes = (
(148,22,o),
(95,115,o),
(95,245,cs),
(95,402,o),
(172,478,o),
(294,478,cs),
(407,478,o),
(462,411,o),
(462,282,cs),
(462,124,o),
(381,22,o),
(262,22,cs)
);
},
{
closed = 1;
nodes = (
(503,0,l),
(503,500,l),
(463,500,l),
(463,0,l)
);
}
);
width = 579;
},
{
associatedMasterId = "257EBA85-25A6-4EFE-A653-BCCD9A912022";
background = {
shapes = (
{
attr = {
strokeHeight = 38;
strokeWidth = 40;
};
closed = 0;
nodes = (
(45,500,l),
(45,0,l)
);
},
{
attr = {
strokeHeight = 38;
strokeWidth = 40;
};
closed = 0;
nodes = (
(45,134,l),
(45,433,o),
(155,497,o),
(254,497,cs),
(332,497,o),
(409,454,o),
(410,345,cs),
(412,0,l)
);
}
);
};
layerId = "EDDA1CEC-C64A-42A8-9B16-BFF9D7F66D24";
name = norm;
shapes = (
{
closed = 1;
nodes = (
(432,0,l),
(431,295,ls),
(431,439,o),
(387,516,o),
(256,516,cs),
(184,516,o),
(96,492,o),
(47,450,c),
(47,402,l),
(95,451,o),
(183,478,o),
(255,478,cs),
(359,478,o),
(391,423,o),
(391,297,cs),
(391,168,l),
(391,155,l),
(392,0,l)
);
},
{
closed = 1;
nodes = (
(293,-16,o),
(369,50,o),
(412,161,c),
(393,175,l),
(353,77,o),
(283,22,o),
(194,22,cs),
(117,22,o),
(70,71,o),
(70,144,cs),
(70,212,o),
(110,266,o),
(232,266,cs),
(284,266,o),
(347,256,o),
(404,238,c),
(411,277,l),
(352,295,o),
(285,304,o),
(233,304,cs),
(92,304,o),
(30,238,o),
(30,146,cs),
(30,51,o),
(95,-16,o),
(191,-16,cs)
);
}
);
width = 507;
},
{
layerId = "6D4AB606-1E4E-4A6F-BC39-70F25E2B516B";
shapes = (
{
closed = 1;
nodes = (
(374,-16,o),
(420,125,o),
(420,291,cs),
(420,415,o),
(380,522,o),
(250,522,cs),
(127,522,o),
(32,427,o),
(32,251,cs),
(32,101,o),
(100,-16,o),
(231,-16,cs)
);
},
{
closed = 1;
nodes = (
(199,107,o),
(165,166,o),
(165,249,cs),
(165,349,o),
(214,397,o),
(291,398,cs),
(363,399,o),
(399,356,o),
(399,273,cs),
(399,172,o),
(347,107,o),
(271,107,cs)
);
},
{
closed = 1;
nodes = (
(532,0,l),
(532,506,l),
(400,506,l),
(400,0,l)
);
}
);
width = 576;
}
);
metricLeft = "=o";
metricRight = "=n";
},
{
glyphname = b;
lastChange = "2024-10-14 12:08:17 +0000";
layers = (
{
guides = (
{
angle = 90;
pos = (236,563);
}
);
layerId = m01;
shapes = (
{
closed = 1;
nodes = (
(466,-16,o),
(547,91,o),
(547,258,cs),
(547,418,o),
(472,528,o),
(365,528,cs),
(244,528,o),
(203,391,o),
(203,257,cs),
(203,152,o),
(228,-16,o),
(360,-16,cs)
);
},
{
closed = 1;
nodes = (
(229,0,l),
(236,123,l),
(236,730,l),
(16,730,l),
(16,0,l)
);
},
{
closed = 1;
nodes = (
(258,198,o),
(236,211,o),
(236,257,cs),
(236,302,o),
(257,314,o),
(283,314,cs),
(314,314,o),
(328,296,o),
(328,259,cs),
(328,222,o),
(314,198,o),
(282,198,cs)
);
}
);
width = 558;
},
{
background = {
shapes = (
{
pos = (-1,0);
ref = n;
}
);
};
layerId = "257EBA85-25A6-4EFE-A653-BCCD9A912022";
shapes = (
{
closed = 1;
nodes = (
(434,-16,o),
(524,88,o),
(524,264,cs),
(524,420,o),
(453,516,o),
(311,516,cs),
(169,516,o),
(95,420,o),
(95,240,cs),
(95,88,o),
(148,-16,o),
(291,-16,cs)
);
},
{
closed = 1;
nodes = (
(119,0,l),
(119,151,l),
(119,730,l),
(79,730,l),
(79,0,l)
);
},
{
closed = 1;
nodes = (
(174,22,o),
(119,106,o),
(119,243,cs),
(119,401,o),
(193,478,o),
(311,478,cs),
(429,478,o),
(483,401,o),
(483,266,cs),
(483,106,o),
(408,22,o),
(291,22,cs)
);
}
);
width = 578;
},
{
associatedMasterId = "257EBA85-25A6-4EFE-A653-BCCD9A912022";
layerId = "7FBE815C-9AFA-4CEA-B435-A0F0A0DB4A5F";
name = old;
shapes = (
{
closed = 1;
nodes = (
(425,-16,o),
(527,94,o),
(527,282,c),
(527,417,o),
(466,516,o),
(322,516,c),
(157,516,o),
(97,383,o),
(97,224,c),
(97,93,o),
(140,-16,o),
(283,-16,c)
);
},
{
closed = 1;
nodes = (
(119,0,l),
(119,800,l),
(79,800,l),
(79,0,l)
);
},
{
closed = 1;
nodes = (
(167,22,o),
(119,99,o),
(119,224,c),
(119,378,o),
(190,478,o),
(322,478,c),
(438,478,o),
(486,402,o),
(486,282,c),
(486,114,o),
(410,22,o),
(283,22,c)
);
}
);
width = 581;
},
{
associatedMasterId = "257EBA85-25A6-4EFE-A653-BCCD9A912022";
layerId = "8D649CA9-FE4D-4B69-87BB-0F483C941C76";
name = "24 Jan 24 at 03:08";
shapes = (
{
closed = 1;
nodes = (
(119,0,l),
(116,127,l),
(110,119,l),
(135,34,o),
(191,-16,o),
(287,-16,cs),
(427,-16,o),
(514,91,o),
(514,260,cs),
(514,418,o),
(439,516,o),
(296,516,cs),
(199,516,o),
(135,470,o),
(107,391,c),
(119,374,l),
(119,800,l),
(79,800,l),
(79,0,l)
);
},
{
closed = 1;
nodes = (
(119,354,l),
(140,435,o),
(199,478,o),
(293,478,cs),
(411,478,o),
(473,409,o),
(473,260,cs),
(473,112,o),
(410,22,o),
(293,22,cs),
(202,22,o),
(143,73,o),
(119,167,c)
);
}
);
width = 568;
},
{
layerId = "6D4AB606-1E4E-4A6F-BC39-70F25E2B516B";
shapes = (
{
closed = 1;
nodes = (
(450,-16,o),
(536,90,o),
(536,261,cs),
(536,419,o),
(463,522,o),
(339,522,cs),
(208,522,o),
(131,405,o),
(131,249,cs),
(131,121,o),
(189,-16,o),
(327,-16,cs)
);
},
{
closed = 1;
nodes = (
(176,0,l),
(179,137,l),
(179,730,l),
(47,730,l),
(47,0,l)
);
},
{
closed = 1;
nodes = (
(217,113,o),
(179,160,o),
(179,250,cs),
(179,350,o),
(226,394,o),
(297,394,cs),
(370,394,o),
(403,347,o),
(403,262,cs),
(403,166,o),
(360,113,o),
(286,113,cs)
);
}
);
width = 568;
}
);
metricLeft = "=n*0.88";
metricRight = "=o";
unicode = 98;
},
{
glyphname = c;
kernLeft = o;
lastChange = "2024-10-14 12:08:17 +0000";
layers = (
{
background = {
shapes = (
{
closed = 1;
nodes = (
(242,192,o),
(226,218,o),
(226,259,cs),
(226,300,o),
(242,320,o),
(272,320,cs),
(302,320,o),
(318,300,o),
(318,259,cs),
(318,218,o),
(302,192,o),
(272,192,cs)
);
},
{
closed = 1;
nodes = (
(415,-16,o),
(533,78,o),
(533,259,cs),
(533,440,o),
(414,528,o),
(272,528,cs),
(130,528,o),
(11,440,o),
(11,259,cs),
(11,78,o),
(129,-16,o),
(272,-16,cs)
);
}
);
};
layerId = m01;
shapes = (
{
closed = 1;
nodes = (
(309,-16,o),
(392,0,o),
(428,25,c),
(428,212,l),
(409,200,o),
(353,192,o),
(326,192,cs),
(273,192,o),
(236,224,o),
(236,260,cs),
(236,296,o),
(273,320,o),
(325,320,cs),
(355,320,o),
(410,312,o),
(428,302,c),
(428,506,l),
(387,520,o),
(312,528,o),
(269,528,cs),
(118,528,o),
(11,432,o),
(11,262,cs),
(11,93,o),
(116,-16,o),
(256,-16,cs)
);
}
);
width = 439;
},
{
layerId = "257EBA85-25A6-4EFE-A653-BCCD9A912022";
shapes = (
{
closed = 1;
nodes = (
(340,-16,o),
(391,0,o),
(432,25,c),
(432,72,l),
(392,44,o),
(339,22,o),
(283,22,cs),
(175,22,o),
(94,106,o),
(94,254,cs),
(94,401,o),
(174,478,o),
(285,478,cs),
(339,478,o),
(391,460,o),
(424,429,c),
(424,474,l),
(385,502,o),
(340,516,o),
(288,516,cs),
(151,516,o),
(54,420,o),
(54,254,cs),
(54,88,o),
(150,-16,o),
(286,-16,cs)
);
}
);
width = 486;
},
{
associatedMasterId = m01;
background = {
shapes = (
{
closed = 1;
nodes = (
(242,192,o),
(226,218,o),
(226,259,cs),
(226,300,o),
(242,320,o),
(272,320,cs),
(302,320,o),
(318,300,o),
(318,259,cs),
(318,218,o),
(302,192,o),
(272,192,cs)
);
},
{
closed = 1;
nodes = (
(415,-16,o),
(533,78,o),
(533,259,cs),
(533,440,o),
(414,528,o),
(272,528,cs),
(130,528,o),
(11,440,o),
(11,259,cs),
(11,78,o),
(129,-16,o),
(272,-16,cs)
);
}
);
};
layerId = "1BCF4A37-91C3-484B-B346-AB41E3CB311F";
name = "28 Feb 24 at 14:13";
shapes = (
{
closed = 1;
nodes = (
(309,-16,o),
(368,0,o),
(404,25,c),
(404,212,l),
(385,200,o),
(353,192,o),
(326,192,cs),
(273,192,o),
(236,224,o),
(236,260,cs),
(236,296,o),
(273,320,o),
(325,320,cs),
(355,320,o),
(380,312,o),
(398,302,c),
(398,506,l),
(357,520,o),
(312,528,o),
(269,528,cs),
(118,528,o),
(11,432,o),
(11,262,cs),
(11,93,o),
(116,-16,o),
(256,-16,cs)
);
}
);
width = 414;
},
{
layerId = "6D4AB606-1E4E-4A6F-BC39-70F25E2B516B";
shapes = (
{
closed = 1;
nodes = (
(324,-16,o),
(392,0,o),
(430,25,c),
(430,144,l),
(401,124,o),
(346,110,o),
(305,110,cs),
(225,110,o),
(167,167,o),
(167,257,cs),
(167,347,o),
(225,397,o),
(306,397,cs),
(347,397,o),
(401,384,o),
(426,364,c),
(426,490,l),
(386,511,o),
(326,522,o),
(278,522,cs),
(134,522,o),
(32,426,o),
(32,258,cs),
(32,91,o),
(132,-16,o),
(271,-16,cs)
);
}
);
width = 462;
}
);
metricLeft = "=o";
metricRight = "=|n*0.6";
unicode = 99;
},
{
glyphname = d;
kernLeft = o;
lastChange = "2024-10-14 12:08:17 +0000";
layers = (
{
background = {
shapes = (
{
pos = (5,0);
ref = o;
}
);
};
layerId = m01;
shapes = (
{
closed = 1;
nodes = (
(303,-16,o),
(347,81,o),
(347,251,cs),
(347,426,o),
(316,528,o),
(211,528,cs),
(101,528,o),
(11,420,o),
(11,260,cs),
(11,88,o),
(96,-16,o),
(206,-16,cs)
);
},
{
closed = 1;
nodes = (
(247,198,o),
(230,217,o),
(230,257,cs),
(230,293,o),
(246,314,o),
(276,314,cs),
(298,314,o),
(322,306,o),
(322,257,cs),
(322,215,o),
(302,198,o),
(277,198,cs)
);
},
{
closed = 1;
nodes = (
(542,0,l),
(542,730,l),
(322,730,l),
(322,103,l),
(333,0,l)
);
}
);
width = 560;
},
{
layerId = "257EBA85-25A6-4EFE-A653-BCCD9A912022";
shapes = (
{
closed = 1;
nodes = (
(410,-16,o),
(483,88,o),
(483,265,cs),
(483,420,o),
(427,516,o),
(285,516,cs),
(143,516,o),
(54,420,o),
(54,244,cs),
(54,88,o),
(124,-16,o),
(267,-16,cs)
);
},
{
closed = 1;
nodes = (
(150,22,o),
(95,106,o),
(95,243,cs),
(95,401,o),
(169,478,o),
(287,478,cs),
(405,478,o),
(459,401,o),
(459,266,cs),
(459,106,o),
(384,22,o),
(267,22,cs)
);
},
{
closed = 1;
nodes = (
(499,0,l),
(499,730,l),
(459,730,l),
(459,126,l),
(460,0,l)
);
}
);
width = 589;
},
{
associatedMasterId = "257EBA85-25A6-4EFE-A653-BCCD9A912022";
layerId = "E4DB8C57-60A9-4FD6-B99B-7BA2AC81C279";
name = old;
shapes = (
{
closed = 1;
nodes = (
(503,800,l),
(463,800,l),
(463,0,l),
(503,0,l)
);
},
{
closed = 1;
nodes = (
(417,478,o),
(462,391,o),
(462,276,c),
(462,124,o),
(381,22,o),
(264,22,c),
(148,22,o),
(95,115,o),
(95,234,c),
(95,402,o),
(172,478,o),
(291,478,c)
);
},
{
closed = 1;
nodes = (
(150,516,o),
(54,422,o),
(54,234,c),
(54,99,o),
(120,-16,o),
(264,-16,c),
(407,-16,o),
(485,106,o),
(485,276,c),
(485,407,o),
(444,516,o),
(291,516,c)
);
}
);
width = 593;
},
{
layerId = "6D4AB606-1E4E-4A6F-BC39-70F25E2B516B";
shapes = (
{
closed = 1;
nodes = (
(355,-16,o),
(433,84,o),
(433,258,cs),
(433,423,o),
(370,522,o),
(247,522,cs),
(121,522,o),
(32,420,o),
(32,252,cs),
(32,88,o),
(110,-16,o),
(236,-16,cs)
);
},
{
closed = 1;
nodes = (
(200,113,o),
(165,163,o),
(165,250,cs),
(165,345,o),
(209,394,o),
(281,394,cs),
(350,394,o),
(388,352,o),
(388,261,cs),
(388,162,o),
(342,113,o),
(272,113,cs)
);
},
{
closed = 1;
nodes = (
(521,0,l),
(521,730,l),
(388,730,l),
(388,114,l),
(395,0,l)
);
}
);
width = 574;
}
);
metricLeft = "=|b";
metricRight = "=|n";
unicode = 100;
},
{
glyphname = e;
kernLeft = o;
lastChange = "2024-10-16 19:47:20 +0000";
layers = (
{
anchors = (
{
name = top;
pos = (283,528);
}
);
layerId = m01;
shapes = (
{
closed = 1;
nodes = (
(351,-16,o),
(446,-5,o),
(499,24,c),
(499,165,l),
(452,137,o),
(412,126,o),
(365,126,cs),
(230,126,o),
(226,219,o),
(226,258,cs),
(226,366,o),
(256,386,o),
(285,386,cs),
(313,386,o),
(332,367,o),
(332,310,cs),
(332,288,o),
(328,261,o),
(319,227,c),
(441,317,l),
(204,317,l),
(202,205,l),
(499,205,l),
(506,237,o),
(509,268,o),
(509,297,cs),
(509,449,o),
(435,528,o),
(283,528,cs),
(153,528,o),
(11,471,o),
(11,259,cs),
(11,62,o),
(140,-16,o),
(288,-16,cs)
);
}
);
width = 520;
},
{
anchors = (
{
name = top;
pos = (288,516);
}
);
layerId = "257EBA85-25A6-4EFE-A653-BCCD9A912022";
shapes = (
{
closed = 1;
nodes = (
(329,-16,o),
(408,-2,o),
(461,34,c),
(461,76,l),
(411,38,o),
(331,22,o),
(278,22,cs),
(169,22,o),
(95,90,o),
(95,244,cs),
(95,405,o),
(176,478,o),
(287,478,cs),
(411,478,o),
(441,387,o),
(441,311,cs),
(441,292,o),
(439,278,o),
(436,266,c),
(462,293,l),
(79,293,l),
(77,255,l),
(476,255,l),
(478,266,o),
(480,284,o),
(480,305,cs),
(480,385,o),
(450,516,o),
(288,516,cs),
(150,516,o),
(54,422,o),
(54,244,cs),
(54,90,o),
(125,-16,o),
(275,-16,cs)
);
}
);
width = 534;
},
{
anchors = (
{
name = top;
pos = (290,522);
}
);
layerId = "6D4AB606-1E4E-4A6F-BC39-70F25E2B516B";
shapes = (
{
closed = 1;
nodes = (
(345,-16,o),
(433,-4,o),
(486,29,c),
(486,134,l),
(429,101,o),
(378,96,o),
(339,96,cs),
(205,96,o),
(167,156,o),
(167,251,cs),
(167,366,o),
(222,407,o),
(285,407,cs),
(353,407,o),
(383,358,o),
(383,304,cs),
(383,290,o),
(381,269,o),
(375,246,c),
(456,290,l),
(148,290,l),
(146,195,l),
(493,195,l),
(497,217,o),
(500,243,o),
(500,270,cs),
(500,382,o),
(447,522,o),
(280,522,cs),
(157,522,o),
(32,447,o),
(32,254,cs),
(32,76,o),
(138,-16,o),
(290,-16,cs)
);
}
);
width = 532;
}
);
metricLeft = "=o";
metricRight = "=o";
unicode = 101;
},
{
glyphname = f;
lastChange = "2024-10-14 12:08:17 +0000";
layers = (
{
layerId = m01;
shapes = (
{
closed = 1;
nodes = (
(312,0,l),
(312,528,ls),
(312,573,o),
(316,605,o),
(367,605,cs),
(393,605,o),
(426,597,o),
(443,587,c),
(443,700,l),
(403,732,o),
(322,745,o),
(270,745,cs),
(134,745,o),
(92,655,o),
(92,560,cs),
(92,0,l)
);
},
{
closed = 1;
nodes = (
(428,364,l),
(428,512,l),
(16,512,l),
(16,364,l)
);
}
);
width = 463;
},
{
layerId = "257EBA85-25A6-4EFE-A653-BCCD9A912022";
shapes = (
{
closed = 1;
nodes = (
(140,0,l),
(140,521,ls),
(140,644,o),
(159,708,o),
(251,708,cs),
(283,708,o),
(314,700,o),
(331,692,c),
(331,731,l),
(308,739,o),
(276,746,o),
(245,746,cs),
(147,746,o),
(100,675,o),
(100,521,cs),
(100,0,l)
);
},
{
closed = 1;
nodes = (
(315,462,l),
(315,500,l),
(30,500,l),
(30,462,l)
);
}
);
width = 355;
},
{
layerId = "6D4AB606-1E4E-4A6F-BC39-70F25E2B516B";
shapes = (
{
closed = 1;
nodes = (
(234,0,l),
(234,525,ls),
(234,607,o),
(245,633,o),
(316,633,cs),
(345,633,o),
(377,625,o),
(394,616,c),
(394,722,l),
(362,735,o),
(305,745,o),
(263,745,cs),
(145,745,o),
(101,665,o),
(101,541,cs),
(101,0,l)
);
},
{
closed = 1;
nodes = (
(378,391,l),
(378,506,l),
(18,506,l),
(18,391,l)
);
}
);
width = 416;
}
);
unicode = 102;
},
{
glyphname = g;
kernLeft = o;
lastChange = "2024-10-16 20:00:22 +0000";
layers = (
{
guides = (
{
pos = (1,263);
}
);
layerId = m01;
shapes = (
{
closed = 1;
nodes = (
(403,-216,o),
(536,-138,o),
(536,87,cs),
(536,512,l),
(316,512,l),
(316,311,l),
(328,361,l),
(328,422,o),
(304,528,o),
(181,528,cs),
(76,528,o),
(11,436,o),
(11,283,cs),
(11,139,o),
(50,26,o),
(181,26,cs),
(277,26,o),
(320,89,o),
(322,156,c),
(316,200,l),
(316,97,ls),
(316,44,o),
(285,-10,o),
(181,-10,cs),
(134,-10,o),
(116,-3,o),
(83,16,c),
(83,-166,l),
(134,-202,o),
(202,-216,o),
(274,-216,cs)
);
},
{
closed = 1;
nodes = (
(243,198,o),
(226,223,o),
(226,263,cs),
(226,294,o),
(246,314,o),
(272,314,cs),
(298,314,o),
(316,297,o),
(316,257,cs),
(316,224,o),
(298,198,o),
(274,198,cs)
);
}
);
width = 554;
},
{
layerId = "257EBA85-25A6-4EFE-A653-BCCD9A912022";
shapes = (
{
closed = 1;
nodes = (
(441,-216,o),
(499,-105,o),
(499,26,cs),
(499,500,l),
(459,500,l),
(459,389,l),
(466,389,l),
(441,470,o),
(385,516,o),
(287,516,cs),
(145,516,o),
(54,420,o),
(54,243,cs),
(54,88,o),
(124,-16,o),
(268,-16,cs),
(368,-16,o),
(433,35,o),
(464,126,c),
(459,126,l),
(459,36,ls),
(459,-91,o),
(415,-178,o),
(265,-178,cs),
(233,-178,o),
(153,-174,o),
(115,-134,c),
(115,-179,l),
(158,-213,o),
(233,-216,o),
(262,-216,cs)
);
},
{
closed = 1;
nodes = (
(150,22,o),
(95,106,o),
(95,243,cs),
(95,401,o),
(169,478,o),
(287,478,cs),
(405,478,o),
(459,401,o),
(459,266,cs),
(459,106,o),
(384,22,o),
(267,22,cs)
);
}
);
width = 589;
},
{
associatedMasterId = "257EBA85-25A6-4EFE-A653-BCCD9A912022";
layerId = "7B494412-5097-4389-9375-CB8CEDAAD499";
name = old;
shapes = (
{
closed = 1;
nodes = (
(407,478,o),
(462,391,o),
(462,276,c),
(462,124,o),
(385,22,o),
(268,22,c),
(152,22,o),
(95,115,o),
(95,234,c),
(95,402,o),
(172,478,o),
(291,478,c)
);
},
{
closed = 1;
nodes = (
(150,516,o),
(54,422,o),
(54,234,c),
(54,99,o),
(124,-16,o),
(268,-16,c),
(411,-16,o),
(482,106,o),
(482,276,c),
(482,407,o),
(435,516,o),
(291,516,c)
);
},
{
closed = 1;
nodes = (
(128,-191,l),
(171,-205,o),
(236,-216,o),
(283,-216,c),
(434,-216,o),
(502,-111,o),
(502,55,c),
(502,500,l),
(462,500,l),
(462,55,l),
(462,-95,o),
(407,-178,o),
(283,-178,c),
(233,-178,o),
(167,-167,o),
(128,-150,c)
);
}
);
width = 592;
},
{
layerId = "6D4AB606-1E4E-4A6F-BC39-70F25E2B516B";
shapes = (
{
closed = 1;
nodes = (
(421,-216,o),
(518,-122,o),
(518,57,cs),
(518,506,l),
(385,506,l),
(385,349,l),
(415,375,l),
(403,445,o),
(343,522,o),
(232,522,cs),
(109,522,o),
(32,428,o),
(32,264,cs),
(32,114,o),
(86,6,o),
(223,6,cs),
(321,6,o),
(395,63,o),
(411,141,c),
(385,164,l),
(385,67,ls),
(385,-21,o),
(348,-91,o),
(222,-91,cs),
(182,-91,o),
(134,-86,o),
(99,-57,c),
(99,-172,l),
(146,-207,o),
(217,-216,o),
(268,-216,cs)
);
},
{
closed = 1;
nodes = (
(198,113,o),
(162,166,o),
(162,253,cs),
(162,346,o),
(209,394,o),
(279,394,cs),
(350,394,o),
(385,347,o),
(385,261,cs),
(385,167,o),
(340,113,o),
(271,113,cs)
);
}
);
width = 571;
}
);
metricLeft = "=o";
metricRight = "=|n";
unicode = 103;
},
{
glyphname = h;
kernLeft = h;
kernRight = n;
lastChange = "2024-10-14 12:08:17 +0000";
layers = (
{
layerId = m01;
shapes = (
{
closed = 1;
nodes = (
(554,0,l),
(553,351,ls),
(553,484,o),
(510,528,o),
(440,528,cs),
(347,528,o),
(192,452,o),
(192,232,c),
(238,232,l),
(238,291,o),
(273,318,o),
(303,318,cs),
(326,318,o),
(333,303,o),
(333,268,cs),
(334,0,l)
);
},
{
closed = 1;
nodes = (
(238,0,l),
(238,730,l),
(18,730,l),
(18,0,l)
);
}
);
width = 568;
},
{
layerId = "257EBA85-25A6-4EFE-A653-BCCD9A912022";
shapes = (
{
closed = 1;
nodes = (
(496,0,l),
(496,345,ls),
(496,467,o),
(406,516,o),
(320,516,cs),
(219,516,o),
(104,448,o),
(104,134,c),
(130,134,l),
(130,417,o),
(228,478,o),
(319,478,cs),
(374,478,o),
(454,456,o),
(455,345,cs),
(457,0,l)
);
},
{
closed = 1;
nodes = (
(130,0,l),
(130,730,l),
(90,730,l),
(90,0,l)
);
}
);
width = 572;
},
{
associatedMasterId = "257EBA85-25A6-4EFE-A653-BCCD9A912022";
layerId = "0D9D08A3-8C31-4C7B-9CD9-901E2339462B";
name = "24 Jan 24 at 00:06";
shapes = (
{
closed = 1;
nodes = (
(496,0,l),
(496,345,ls),
(496,467,o),
(405,516,o),
(320,516,cs),
(219,516,o),
(104,448,o),
(104,134,c),
(130,134,l),
(130,417,o),
(228,478,o),
(319,478,cs),
(389,478,o),
(454,441,o),
(455,345,cs),
(457,0,l)
);
},
{
closed = 1;
nodes = (
(130,0,l),
(130,800,l),
(90,800,l),
(90,0,l)
);
}
);
width = 572;
},
{
layerId = "6D4AB606-1E4E-4A6F-BC39-70F25E2B516B";
shapes = (
{
closed = 1;
nodes = (
(528,0,l),
(527,354,ls),
(527,482,o),
(436,522,o),
(361,522,cs),
(266,522,o),
(119,461,o),
(119,169,c),
(186,169,l),
(186,348,o),
(249,402,o),
(312,402,cs),
(348,402,o),
(394,383,o),
(394,312,cs),
(396,0,l)
);
},
{
closed = 1;
nodes = (
(186,0,l),
(186,730,l),
(53,730,l),
(53,0,l)
);
}
);
width = 572;
}
);
metricLeft = "=n";
metricRight = "=n";
unicode = 104;
},
{
glyphname = idotless;
lastChange = "2024-03-02 02:26:44 +0000";
layers = (
{
anchors = (
{
name = top;
pos = (110,500);
}
);
layerId = "257EBA85-25A6-4EFE-A653-BCCD9A912022";
shapes = (
{
closed = 1;
nodes = (
(130,0,l),
(130,500,l),
(90,500,l),
(90,0,l)
);
}
);
width = 220;
},
{
anchors = (
{
name = top;
pos = (125,512);
}
);
layerId = m01;
shapes = (
{
closed = 1;
nodes = (
(238,0,l),
(238,512,l),
(18,512,l),
(18,0,l)
);
}
);
width = 256;
},
{
anchors = (
{
name = top;
pos = (118,506);
}
);
layerId = "6D4AB606-1E4E-4A6F-BC39-70F25E2B516B";
shapes = (
{
closed = 1;
nodes = (
(186,0,l),
(186,506,l),
(53,506,l),
(53,0,l)
);
}
);
width = 239;
}
);
metricLeft = "=n";
metricRight = "=|";
unicode = 305;
},
{
glyphname = j;
lastChange = "2024-10-14 12:08:17 +0000";
layers = (
{
layerId = m01;
shapes = (
{
closed = 1;
nodes = (
(188,-216,o),
(323,-202,o),
(323,-70,cs),
(323,512,l),
(103,512,l),
(103,20,ls),
(103,-19,o),
(100,-40,o),
(56,-40,cs),
(31,-40,o),
(7,-30,o),
(-15,-20,c),
(-15,-178,l),
(31,-201,o),
(72,-216,o),
(131,-216,cs)
);
},
{
closed = 1;
nodes = (
(298,539,o),
(338,566,o),
(338,642,cs),
(338,717,o),
(298,744,o),
(213,744,cs),
(128,744,o),
(88,717,o),
(88,642,cs),
(88,566,o),
(128,539,o),
(213,539,cs)
);
}
);
width = 341;
},
{
layerId = "257EBA85-25A6-4EFE-A653-BCCD9A912022";
shapes = (
{
closed = 1;
nodes = (
(88,-216,o),
(130,-138,o),
(130,0,cs),
(130,500,l),
(90,500,l),
(90,0,ls),
(90,-107,o),
(72,-178,o),
(-34,-178,cs),
(-47,-178,o),
(-56,-177,o),
(-85,-166,c),
(-85,-206,l),
(-64,-213,o),
(-41,-216,o),
(-20,-216,cs)
);
},
{
closed = 1;
nodes = (
(132,605,o),
(141,618,o),
(141,635,cs),
(141,652,o),
(132,665,o),
(111,665,cs),
(90,665,o),
(81,652,o),
(81,635,cs),
(81,618,o),
(90,605,o),
(111,605,cs)
);
}
);
width = 220;
},
{
layerId = "6D4AB606-1E4E-4A6F-BC39-70F25E2B516B";
shapes = (
{
closed = 1;
nodes = (
(139,-216,o),
(229,-171,o),
(229,-36,cs),
(229,506,l),
(97,506,l),
(97,10,ls),
(97,-62,o),
(86,-107,o),
(12,-107,cs),
(-7,-107,o),
(-24,-101,o),
(-49,-91,c),
(-49,-192,l),
(-15,-207,o),
(17,-216,o),
(58,-216,cs)
);
},
{
closed = 1;
nodes = (
(217,571,o),
(242,591,o),
(242,639,cs),
(242,685,o),
(217,706,o),
(164,706,cs),
(110,706,o),
(85,685,o),
(85,639,cs),
(85,591,o),
(110,571,o),
(164,571,cs)
);
}
);
width = 282;
}
);
metricRight = "=|n@10";
unicode = 106;
},
{
glyphname = k;
kernLeft = h;
lastChange = "2024-10-16 18:52:39 +0000";
layers = (
{
layerId = m01;
shapes = (
{
closed = 1;
nodes = (
(544,0,l),
(404,314,l),
(404,257,l),
(559,512,l),
(343,512,l),
(208,286,l),
(306,0,l)
);
},
{
closed = 1;
nodes = (
(238,0,l),
(238,730,l),
(18,730,l),
(18,0,l)
);
}
);
width = 571;
},
{
layerId = "257EBA85-25A6-4EFE-A653-BCCD9A912022";
shapes = (
{
closed = 1;
nodes = (
(489,0,l),
(183,292,l),
(184,282,l),
(467,500,l),
(408,500,l),
(130,286,l),
(428,0,l)
);
},
{
closed = 1;
nodes = (
(130,0,l),
(130,730,l),
(90,730,l),
(90,0,l)
);
}
);
width = 505;
},
{
background = {
shapes = (
{
ref = "ka-cy";
}
);
};
layerId = "6D4AB606-1E4E-4A6F-BC39-70F25E2B516B";
shapes = (
{
closed = 1;
nodes = (
(529,0,l),
(309,305,l),
(293,265,l),
(517,506,l),
(362,506,l),
(160,286,l),
(365,0,l)
);
},
{
closed = 1;
nodes = (
(186,0,l),
(186,730,l),
(53,730,l),
(53,0,l)
);
}
);
width = 544;
}
);
metricLeft = "=n";
metricRight = "=x";
unicode = 107;
},
{
glyphname = l;
kernLeft = h;
lastChange = "2024-10-14 12:08:17 +0000";
layers = (
{
layerId = m01;
shapes = (
{
closed = 1;
nodes = (
(243,-16,o),
(283,3,o),
(306,20,c),
(306,168,l),
(294,164,o),
(283,162,o),
(271,162,cs),
(240,162,o),
(238,184,o),
(238,223,cs),
(238,730,l),
(18,730,l),
(18,180,ls),
(18,30,o),
(98,-16,o),
(185,-16,cs)
);
}
);
width = 326;
},
{
layerId = "257EBA85-25A6-4EFE-A653-BCCD9A912022";
shapes = (
{
closed = 1;
nodes = (
(185,-5,o),
(221,-5,o),
(250,15,c),
(250,55,l),
(219,33,o),
(184,33,o),
(171,33,cs),
(133,33,o),
(130,62,o),
(130,101,cs),
(130,730,l),
(90,730,l),
(90,101,ls),
(90,60,o),
(95,-5,o),
(171,-5,cs)
);
}
);
width = 257;
},
{
layerId = "6D4AB606-1E4E-4A6F-BC39-70F25E2B516B";
shapes = (
{
closed = 1;
nodes = (
(215,-11,o),
(253,-1,o),
(279,18,c),
(279,113,l),
(258,100,o),
(235,99,o),
(222,99,cs),
(188,99,o),
(186,125,o),
(186,164,cs),
(186,730,l),
(53,730,l),
(53,142,ls),
(53,45,o),
(97,-11,o),
(178,-11,cs)
);
}
);
width = 293;
}
);
metricLeft = "=n";
unicode = 108;
},
{
glyphname = l.001;
kernLeft = h;
lastChange = "2024-03-20 05:30:10 +0000";
layers = (
{
layerId = m01;
shapes = (
{
closed = 1;
nodes = (
(238,0,l),
(238,730,l),
(18,730,l),
(18,0,l)
);
}
);
width = 256;
},
{
layerId = "257EBA85-25A6-4EFE-A653-BCCD9A912022";
shapes = (
{
closed = 1;
nodes = (
(130,0,l),
(130,730,l),
(90,730,l),
(90,0,l)
);
}
);
width = 220;
},
{
layerId = "6D4AB606-1E4E-4A6F-BC39-70F25E2B516B";
shapes = (
{
closed = 1;
nodes = (
(186,0,l),
(186,730,l),
(53,730,l),
(53,0,l)
);
}
);
width = 239;
}
);
metricLeft = "=n";
metricRight = "=|n";
},
{
glyphname = m;
kernLeft = n;
kernRight = n;
lastChange = "2024-10-14 12:08:17 +0000";
layers = (
{
layerId = m01;
shapes = (
{
closed = 1;
nodes = (
(534,0,l),
(534,363,ls),
(534,496,o),
(450,528,o),
(382,528,cs),
(296,528,o),
(210,478,o),
(210,164,c),
(238,164,l),
(238,277,o),
(256,330,o),
(291,330,cs),
(309,330,o),
(324,315,o),
(324,280,cs),
(324,0,l)
);
},
{
closed = 1;
nodes = (
(828,0,l),
(828,363,ls),
(828,496,o),
(744,528,o),
(680,528,cs),
(590,528,o),
(504,466,o),
(504,164,c),
(532,164,l),
(532,277,o),
(550,330,o),
(585,330,cs),
(603,330,o),
(618,315,o),
(618,280,cs),
(618,0,l)
);
},
{
closed = 1;
nodes = (
(238,0,l),
(238,512,l),
(18,512,l),
(18,0,l)
);
}
);
width = 842;
},
{
layerId = "257EBA85-25A6-4EFE-A653-BCCD9A912022";
shapes = (
{
closed = 1;
nodes = (
(448,0,l),
(448,345,ls),
(448,466,o),
(381,516,o),
(303,516,cs),
(213,516,o),
(106,449,o),
(106,134,c),
(130,134,l),
(130,419,o),
(226,478,o),
(302,478,cs),
(361,478,o),
(408,442,o),
(408,345,cs),
(408,0,l)
);
},
{
closed = 1;
nodes = (
(756,0,l),
(756,345,ls),
(756,465,o),
(699,516,o),
(609,516,cs),
(527,516,o),
(425,473,o),
(425,134,c),
(447,134,l),
(447,437,o),
(541,478,o),
(612,478,cs),
(677,478,o),
(716,443,o),
(716,345,cs),
(716,0,l)
);
},
{
closed = 1;
nodes = (
(130,0,l),
(130,500,l),
(90,500,l),
(90,0,l)
);
}
);
width = 832;
},
{
associatedMasterId = "257EBA85-25A6-4EFE-A653-BCCD9A912022";
layerId = "96BE3A82-7481-4226-9090-C45B3E2CB845";
name = "24 Jan 24 at 00:06";
shapes = (
{
closed = 1;
nodes = (
(130,500,l),
(90,500,l),
(90,0,l),
(130,0,l)
);
},
{
closed = 1;
nodes = (
(448,345,l),
(448,466,o),
(380.565,516,o),
(293,516,c),
(213,516,o),
(106,449,o),
(106,134,c),
(130,134,l),
(130,418.569,o),
(225.808,478,o),
(293,478,c),
(361.435,478,o),
(408,442.233,o),
(408,345,c),
(408,0,l),
(448,0,l)
);
},
{
closed = 1;
nodes = (
(756,345,l),
(756,464.99,o),
(698.733,516,o),
(610,516,c),
(527.152,516,o),
(424,473,o),
(426,134,c),
(448,134.119,l),
(446.104,437.442,o),
(541.048,478,o),
(610,478,c),
(677.267,478,o),
(716,443.01,o),
(716,345,c),
(716,0,l),
(756,0,l)
);
}
);
width = 832;
},
{
layerId = "6D4AB606-1E4E-4A6F-BC39-70F25E2B516B";
shapes = (
{
closed = 1;
nodes = (
(492,0,l),
(492,354,ls),
(492,481,o),
(417,522,o),
(344,522,cs),
(256,522,o),
(140,464,o),
(140,149,c),
(186,149,l),
(186,346,o),
(241,402,o),
(296,402,cs),
(334,402,o),
(365,377,o),
(365,312,cs),
(365,0,l)
);
},
{
closed = 1;
nodes = (
(793,0,l),
(793,354,ls),
(793,481,o),
(722,522,o),
(646,522,cs),
(559,522,o),
(446,469,o),
(446,149,c),
(491,149,l),
(491,355,o),
(546,402,o),
(598,402,cs),
(639,402,o),
(666,377,o),
(666,312,cs),
(666,0,l)
);
},
{
closed = 1;
nodes = (
(186,0,l),
(186,506,l),
(53,506,l),
(53,0,l)
);
}
);
width = 837;
}
);
metricLeft = "=n";
metricRight = "=n";
unicode = 109;
},
{
glyphname = n;
kernLeft = n;
kernRight = n;
lastChange = "2024-10-16 19:55:35 +0000";
layers = (
{
layerId = m01;
shapes = (
{
closed = 1;
nodes = (
(544,0,l),
(543,363,ls),
(543,496,o),
(450,528,o),
(386,528,cs),
(296,528,o),
(210,466,o),
(210,164,c),
(238,164,l),
(238,277,o),
(256,330,o),
(291,330,cs),
(309,330,o),
(323,315,o),
(323,280,cs),
(324,0,l)
);
},
{
closed = 1;
nodes = (
(238,0,l),
(238,512,l),
(18,512,l),
(18,0,l)
);
}
);
width = 558;
},
{
associatedMasterId = m01;
layerId = "82193556-9F61-4DC6-9835-593EBB8B138D";
name = "7 Dec 23, 23:01";
shapes = (
{
attr = {
strokeHeight = 38;
strokeWidth = 40;
};
closed = 0;
nodes = (
(120,500,l),
(120,0,l)
);
},
{
attr = {
strokeHeight = 38;
strokeWidth = 40;
};
closed = 0;
nodes = (
(124,374,l),
(192,447,o),
(301,497,o),
(370,497,cs),
(433,497,o),
(468,454,o),
(468,345,cs),
(468,0,l)
);
}
);
width = 574;
},
{
associatedMasterId = m01;
layerId = "E298B54B-B6E2-4FD4-8299-EA1D443F6D4B";
name = "7 Dec 23, 23:14";
shapes = (
{
attr = {
strokeHeight = 38;
strokeWidth = 40;
};
closed = 0;
nodes = (
(110,500,l),
(110,0,l)
);
},
{
attr = {
strokeHeight = 38;
strokeWidth = 40;
};
closed = 0;
nodes = (
(110,134,l),
(110,433,o),
(255,497,o),
(354,497,cs),
(432,497,o),
(475,454,o),
(475,345,cs),
(475,0,l)
);
}
);
width = 572;
},
{
layerId = "257EBA85-25A6-4EFE-A653-BCCD9A912022";
shapes = (
{
closed = 1;
nodes = (
(496,0,l),
(496,345,ls),
(496,467,o),
(406,516,o),
(320,516,cs),
(219,516,o),
(104,455,o),
(104,174,c),
(130,174,l),
(130,424,o),
(228,478,o),
(319,478,cs),
(374,478,o),
(454,456,o),
(455,345,cs),
(457,0,l)
);
},
{
closed = 1;
nodes = (
(130,0,l),
(130,500,l),
(90,500,l),
(90,0,l)
);
}
);
width = 572;
},
{
associatedMasterId = "257EBA85-25A6-4EFE-A653-BCCD9A912022";
layerId = "946EFE94-9F9C-41CD-A7E4-602AB02AAAC5";
name = "7 Dec 23, 23:01";
shapes = (
{
attr = {
strokeHeight = 38;
strokeWidth = 40;
};
closed = 0;
nodes = (
(120,500,l),
(120,0,l)
);
},
{
attr = {
strokeHeight = 38;
strokeWidth = 40;
};
closed = 0;
nodes = (
(124,374,l),
(192,447,o),
(301,497,o),
(370,497,cs),
(433,497,o),
(468,454,o),
(468,345,cs),
(468,0,l)
);
}
);
width = 574;
},
{
associatedMasterId = "257EBA85-25A6-4EFE-A653-BCCD9A912022";
layerId = "EDCFACEC-6503-4C7B-8F03-9857850348DD";
name = "7 Dec 23, 23:14";
shapes = (
{
attr = {
strokeHeight = 38;
strokeWidth = 40;
};
closed = 0;
nodes = (
(110,500,l),
(110,0,l)
);
},
{
attr = {
strokeHeight = 38;
strokeWidth = 40;
};
closed = 0;
nodes = (
(110,134,l),
(110,433,o),
(255,497,o),
(354,497,cs),
(432,497,o),
(475,454,o),
(475,345,cs),
(475,0,l)
);
}
);
width = 572;
},
{
associatedMasterId = "257EBA85-25A6-4EFE-A653-BCCD9A912022";
layerId = "65FC3015-6300-4F5D-BE7D-FBE9A266AF6B";
name = "24 Jan 24 at 00:02";
shapes = (
{
closed = 1;
nodes = (
(496,0,l),
(496,345,ls),
(496,467,o),
(405,516,o),
(320,516,cs),
(219,516,o),
(104,448,o),
(104,134,c),
(130,134,l),
(130,417,o),
(228,478,o),
(319,478,cs),
(389,478,o),
(454,441,o),
(455,345,cs),
(457,0,l)
);
},
{
closed = 1;
nodes = (
(130,0,l),
(130,500,l),
(90,500,l),
(90,0,l)
);
}
);
width = 572;
},
{
layerId = "6D4AB606-1E4E-4A6F-BC39-70F25E2B516B";
shapes = (
{
closed = 1;
nodes = (
(521,0,l),
(520,354,ls),
(520,482,o),
(429,522,o),
(354,522,cs),
(259,522,o),
(119,461,o),
(119,169,c),
(186,169,l),
(186,348,o),
(242,402,o),
(305,402,cs),
(341,402,o),
(387,383,o),
(387,312,cs),
(389,0,l)
);
},
{
closed = 1;
nodes = (
(186,0,l),
(186,506,l),
(53,506,l),
(53,0,l)
);
}
);
width = 565;
}
);
unicode = 110;
},
{
glyphname = o;
kernLeft = o;
kernRight = o;
lastChange = "2024-10-22 06:33:15 +0000";
layers = (
{
anchors = (
{
name = top;
pos = (282,512);
}
);
guides = (
{
angle = 270;
pos = (282,528);
showMeasurement = 1;
}
);
layerId = m01;
shapes = (
{
closed = 1;
nodes = (
(430,-16,o),
(553,82,o),
(553,261,cs),
(553,436,o),
(429,528,o),
(282,528,cs),
(135,528,o),
(11,436,o),
(11,261,cs),
(11,82,o),
(134,-16,o),
(282,-16,cs)
);
},
{
closed = 1;
nodes = (
(252,186,o),
(236,214,o),
(236,259,cs),
(236,300,o),
(252,326,o),
(282,326,cs),
(312,326,o),
(328,300,o),
(328,259,cs),
(328,214,o),
(312,186,o),
(282,186,cs)
);
}
);
width = 564;
},
{
anchors = (
{
name = top;
pos = (277,500);
}
);
layerId = "257EBA85-25A6-4EFE-A653-BCCD9A912022";
shapes = (
{
closed = 1;
nodes = (
(420,-16,o),
(500,88,o),
(500,260,cs),
(500,420,o),
(419,516,o),
(277,516,cs),
(135,516,o),
(54,420,o),
(54,260,cs),
(54,88,o),
(134,-16,o),
(277,-16,cs)
);
},
{
closed = 1;
nodes = (
(160,22,o),
(95,106,o),
(95,260,cs),
(95,401,o),
(159,478,o),
(277,478,cs),
(395,478,o),
(459,401,o),
(459,260,cs),
(459,106,o),
(394,22,o),
(277,22,cs)
);
}
);
width = 554;
},
{
anchors = (
{
name = top;
pos = (280,506);
}
);
layerId = "6D4AB606-1E4E-4A6F-BC39-70F25E2B516B";
shapes = (
{
closed = 1;
nodes = (
(425,-16,o),
(527,85,o),
(527,261,cs),
(527,428,o),
(424,522,o),
(280,522,cs),
(135,522,o),
(32,428,o),
(32,261,cs),
(32,85,o),
(134,-16,o),
(280,-16,cs)
);
},
{
closed = 1;
nodes = (
(207,107,o),
(168,162,o),
(168,259,cs),
(168,349,o),
(207,399,o),
(280,399,cs),
(352,399,o),
(392,349,o),
(392,259,cs),
(392,162,o),
(352,107,o),
(280,107,cs)
);
}
);
width = 559;
}
);
metricLeft = "=n*0.6";
metricRight = "=|";
unicode = 111;
},
{
glyphname = p;
kernLeft = p;
kernRight = o;
lastChange = "2024-10-14 12:08:17 +0000";
layers = (
{
layerId = m01;
shapes = (
{
closed = 1;
nodes = (
(468,-16,o),
(549,91,o),
(549,258,cs),
(549,418,o),
(474,528,o),
(367,528,cs),
(246,528,o),
(205,391,o),
(205,257,cs),
(205,152,o),
(230,-16,o),
(362,-16,cs)
);
},
{
closed = 1;
nodes = (
(238,-200,l),
(238,422,l),
(235,512,l),
(18,512,l),
(18,-200,l)
);
},
{
closed = 1;
nodes = (
(260,198,o),
(238,211,o),
(238,257,cs),
(238,302,o),
(259,314,o),
(285,314,cs),
(316,314,o),
(330,296,o),
(330,259,cs),
(330,222,o),
(316,198,o),
(284,198,cs)
);
}
);
width = 560;
},
{
layerId = "257EBA85-25A6-4EFE-A653-BCCD9A912022";
shapes = (
{
closed = 1;
nodes = (
(445,-16,o),
(535,88,o),
(535,260,cs),
(535,420,o),
(464,516,o),
(322,516,cs),
(180,516,o),
(106,420,o),
(106,260,cs),
(106,88,o),
(159,-16,o),
(302,-16,cs)
);
},
{
closed = 1;
nodes = (
(130,-200,l),
(130,426.001,l),
(130,500,l),
(90,500,l),
(90,-200,l)
);
},
{
closed = 1;
nodes = (
(185,22,o),
(130,106,o),
(130,260,cs),
(130,401,o),
(204,478,o),
(322,478,cs),
(440,478,o),
(494,401,o),
(494,260,cs),
(494,106,o),
(419,22,o),
(302,22,cs)
);
}
);
width = 589;
},
{
associatedMasterId = "257EBA85-25A6-4EFE-A653-BCCD9A912022";
background = {
shapes = (
{
closed = 1;
nodes = (
(192,22,o),
(127,106,o),
(127,260,cs),
(127,401,o),
(191,478,o),
(309,478,cs),
(427,478,o),
(491,401,o),
(491,260,cs),
(491,106,o),
(426,22,o),
(309,22,cs)
);
},
{
closed = 1;
nodes = (
(452,-16,o),
(533,88,o),
(533,260,cs),
(533,420,o),
(451,516,o),
(309,516,cs),
(167,516,o),
(85,420,o),
(85,260,cs),
(85,88,o),
(166,-16,o),
(309,-16,cs)
);
}
);
};
layerId = "0D61A47E-6694-4D9C-B3DC-BE1953088B8B";
name = old;
shapes = (
{
closed = 1;
nodes = (
(90,-200,l),
(130,-200,l),
(130,500,l),
(90,500,l)
);
},
{
closed = 1;
nodes = (
(190,22,o),
(130,82,o),
(130,230,cs),
(130,378,o),
(198,478,o),
(314,478,cs),
(439,478,o),
(491,385,o),
(491,250,cs),
(491,89,o),
(426,22,o),
(309,22,cs)
);
},
{
closed = 1;
nodes = (
(452,-16,o),
(532,71,o),
(532,250,cs),
(532,404,o),
(462,516,o),
(314,516,cs),
(175,516,o),
(108,396,o),
(108,230,cs),
(108,64,o),
(172,-16,o),
(309,-16,cs)
);
}
);
width = 586;
},
{
layerId = "6D4AB606-1E4E-4A6F-BC39-70F25E2B516B";
shapes = (
{
closed = 1;
nodes = (
(457,-16,o),
(542,90,o),
(542,259,cs),
(542,419,o),
(469,522,o),
(345,522,cs),
(214,522,o),
(137,405,o),
(137,258,cs),
(137,121,o),
(196,-16,o),
(333,-16,cs)
);
},
{
closed = 1;
nodes = (
(186,-200,l),
(186,424,l),
(184,506,l),
(53,506,l),
(53,-200,l)
);
},
{
closed = 1;
nodes = (
(224,113,o),
(186,160,o),
(186,258,cs),
(186,350,o),
(232,394,o),
(303,394,cs),
(376,394,o),
(410,347,o),
(410,259,cs),
(410,166,o),
(366,113,o),
(293,113,cs)
);
}
);
width = 574;
}
);
metricLeft = "=n";
metricRight = "=o";
unicode = 112;
},
{
glyphname = q;
kernLeft = o;
lastChange = "2024-10-16 19:46:35 +0000";
layers = (
{
layerId = m01;
shapes = (
{
closed = 1;
nodes = (
(303,-16,o),
(347,81,o),
(347,251,cs),
(347,426,o),
(316,528,o),
(211,528,cs),
(101,528,o),
(11,420,o),
(11,260,cs),
(11,88,o),
(96,-16,o),
(206,-16,cs)
);
},
{
closed = 1;
nodes = (
(247,198,o),
(230,217,o),
(230,257,cs),
(230,293,o),
(246,314,o),
(276,314,cs),
(298,314,o),
(322,306,o),
(322,257,cs),
(322,215,o),
(302,198,o),
(277,198,cs)
);
},
{
closed = 1;
nodes = (
(542,-200,l),
(542,512,l),
(328,512,l),
(322,416,l),
(323,-200,l)
);
}
);
width = 560;
},
{
layerId = "257EBA85-25A6-4EFE-A653-BCCD9A912022";
shapes = (
{
closed = 1;
nodes = (
(410,-16,o),
(483,88,o),
(483,260,cs),
(483,420,o),
(429,516,o),
(287,516,cs),
(145,516,o),
(54,420,o),
(54,260,cs),
(54,88,o),
(124,-16,o),
(267,-16,cs)
);
},
{
closed = 1;
nodes = (
(150,22,o),
(95,106,o),
(95,260,cs),
(95,401,o),
(169,478,o),
(287,478,cs),
(405,478,o),
(459,401,o),
(459,260,cs),
(459,106,o),
(384,22,o),
(267,22,cs)
);
},
{
closed = 1;
nodes = (
(499,-200,l),
(499,500,l),
(459,500,l),
(459,423,l),
(459,-200,l)
);
}
);
width = 589;
},
{
associatedMasterId = "257EBA85-25A6-4EFE-A653-BCCD9A912022";
layerId = "A701DEA5-52BF-4061-BAA2-06EE4E640CA5";
name = old;
shapes = (
{
closed = 1;
nodes = (
(493,500,l),
(453,500,l),
(453,-200,l),
(493,-200,l)
);
},
{
closed = 1;
nodes = (
(157,22,o),
(95,126,o),
(95,270,c),
(95,408,o),
(182,478,o),
(290,478,c),
(408,478,o),
(453,401,o),
(453,260,c),
(453,107,o),
(381,22,o),
(264,22,c)
);
},
{
closed = 1;
nodes = (
(407,-16,o),
(493,105,o),
(493,260,c),
(493,406,o),
(432,516,o),
(290,516,c),
(158,516,o),
(54,427,o),
(54,270,c),
(54,108,o),
(131,-16,o),
(264,-16,c)
);
}
);
width = 569;
},
{
layerId = "6D4AB606-1E4E-4A6F-BC39-70F25E2B516B";
shapes = (
{
closed = 1;
nodes = (
(355,-16,o),
(433,84,o),
(433,255,cs),
(433,423,o),
(371,522,o),
(248,522,cs),
(122,522,o),
(32,420,o),
(32,260,cs),
(32,88,o),
(110,-16,o),
(236,-16,cs)
);
},
{
closed = 1;
nodes = (
(200,113,o),
(165,163,o),
(165,258,cs),
(165,345,o),
(209,394,o),
(281,394,cs),
(350,394,o),
(388,352,o),
(388,258,cs),
(388,162,o),
(342,113,o),
(272,113,cs)
);
},
{
closed = 1;
nodes = (
(521,-200,l),
(521,506,l),
(392,506,l),
(388,419,l),
(389,-200,l)
);
}
);
width = 574;
}
);
metricLeft = "=o";
metricRight = "=|n";
unicode = 113;
},
{
glyphname = r;
kernLeft = n;
lastChange = "2024-10-16 19:58:29 +0000";
layers = (
{
layerId = m01;
shapes = (
{
closed = 1;
nodes = (
(238,0,l),
(238,205,ls),
(238,321,o),
(308,338,o),
(351,338,cs),
(388,338,o),
(414,329,o),
(430,320,c),
(430,507,l),
(419,516,o),
(397,528,o),
(360,528,cs),
(282,528,o),
(231,426,o),
(231,350,c),
(238,350,l),
(238,512,l),
(18,512,l),
(18,0,l)
);
}
);
width = 440;
},
{
layerId = "257EBA85-25A6-4EFE-A653-BCCD9A912022";
shapes = (
{
closed = 1;
nodes = (
(130,0,l),
(130,194,ls),
(130,417,o),
(220,478,o),
(311,478,cs),
(337,478,o),
(363,472,o),
(382,464,c),
(382,503,l),
(365,511,o),
(339,516,o),
(312,516,cs),
(234,516,o),
(151,475,o),
(118,307,c),
(130,310,l),
(130,500,l),
(90,500,l),
(90,0,l)
);
}
);
width = 392;
},
{
layerId = "6D4AB606-1E4E-4A6F-BC39-70F25E2B516B";
shapes = (
{
closed = 1;
nodes = (
(186,0,l),
(186,199,ls),
(186,354,o),
(230,406,o),
(318,406,cs),
(347,406,o),
(365,400,o),
(382,393,c),
(382,505,l),
(366,514,o),
(346,522,o),
(310,522,cs),
(226,522,o),
(175,424,o),
(175,324,c),
(186,324,l),
(186,506,l),
(53,506,l),
(53,0,l)
);
}
);
width = 398;
}
);
metricLeft = "=n";
unicode = 114;
},
{
glyphname = s;
kernLeft = s;
lastChange = "2024-10-16 19:47:09 +0000";
layers = (
{
layerId = m01;
shapes = (
{
closed = 1;
nodes = (
(283,-16,o),
(403,49,o),
(403,176,cs),
(403,320,o),
(229,317,o),
(229,364,cs),
(229,377,o),
(241,387,o),
(277,387,cs),
(319,387,o),
(353,369,o),
(375,348,c),
(375,488,l),
(337,511,o),
(300,528,o),
(230,528,cs),
(79,528,o),
(12,449,o),
(12,351,cs),
(12,207,o),
(177,199,o),
(177,151,cs),
(177,135,o),
(160,127,o),
(135,127,cs),
(94,127,o),
(48,149,o),
(11,182,c),
(11,23,l),
(53,-3,o),
(116,-16,o),
(174,-16,cs)
);
}
);
width = 414;
},
{
layerId = "257EBA85-25A6-4EFE-A653-BCCD9A912022";
shapes = (
{
closed = 1;
nodes = (
(363,-16,o),
(416,63,o),
(416,137,cs),
(416,312,o),
(117,274,o),
(117,391,cs),
(117,442,o),
(173,478,o),
(252,478,cs),
(319,478,o),
(376,452,o),
(415,422,c),
(415,473,l),
(377,496,o),
(314,516,o),
(252,516,cs),
(157,516,o),
(77,468,o),
(77,389,cs),
(77,236,o),
(376,272,o),
(376,131,cs),
(376,79,o),
(336,22,o),
(222,22,cs),
(147,22,o),
(94,47,o),
(54,79,c),
(54,29,l),
(96,3,o),
(154,-16,o),
(223,-16,cs)
);
}
);
width = 470;
},
{
layerId = "6D4AB606-1E4E-4A6F-BC39-70F25E2B516B";
shapes = (
{
closed = 1;
nodes = (
(332,-16,o),
(388,48,o),
(388,128,cs),
(388,280,o),
(180,324,o),
(180,381,cs),
(180,396,o),
(195,418,o),
(249,418,cs),
(306,418,o),
(344,394,o),
(376,374,c),
(376,484,l),
(338,507,o),
(294,522,o),
(236,522,cs),
(104,522,o),
(46,444,o),
(46,373,cs),
(46,239,o),
(253,184,o),
(253,125,cs),
(253,108,o),
(235,91,o),
(184,91,cs),
(125,91,o),
(77,114,o),
(32,138,c),
(32,22,l),
(74,-4,o),
(134,-16,o),
(194,-16,cs)
);
}
);
width = 420;
}
);
metricLeft = "=o";
metricRight = "=o";
unicode = 115;
},
{
glyphname = t;
lastChange = "2024-10-14 12:08:17 +0000";
layers = (
{
layerId = m01;
shapes = (
{
closed = 1;
nodes = (
(333,-16,o),
(381,0,o),
(418,29,c),
(418,175,l),
(399,165,o),
(381,162,o),
(357,162,cs),
(313,162,o),
(310,191,o),
(310,230,cs),
(310,660,l),
(190,660,l),
(90,488,l),
(90,180,ls),
(90,9,o),
(209,-16,o),
(278,-16,cs)
);
},
{
closed = 1;
nodes = (
(418,364,l),
(418,512,l),
(16,512,l),
(16,364,l)
);
}
);
width = 438;
},
{
layerId = "257EBA85-25A6-4EFE-A653-BCCD9A912022";
shapes = (
{
closed = 1;
nodes = (
(205,-5,o),
(245,-3,o),
(275,17,c),
(275,55,l),
(244,34,o),
(215,33,o),
(187,33,cs),
(149,33,o),
(140,62,o),
(140,101,cs),
(140,632,l),
(100,632,l),
(100,483,l),
(100,101,ls),
(100,55,o),
(105,-5,o),
(181,-5,cs)
);
},
{
closed = 1;
nodes = (
(273,462,l),
(273,500,l),
(30,500,l),
(30,462,l)
);
}
);
width = 299;
},
{
layerId = "6D4AB606-1E4E-4A6F-BC39-70F25E2B516B";
shapes = (
{
closed = 1;
nodes = (
(266,-11,o),
(310,-1,o),
(344,23,c),
(344,117,l),
(319,101,o),
(295,99,o),
(270,99,cs),
(228,99,o),
(223,128,o),
(223,167,cs),
(223,646,l),
(117,646,l),
(90,486,l),
(90,142,ls),
(90,31,o),
(154,-11,o),
(226,-11,cs)
);
},
{
closed = 1;
nodes = (
(343,391,l),
(343,506,l),
(18,506,l),
(18,391,l)
);
}
);
width = 366;
}
);
metricLeft = "=f";
metricRight = "=f";
unicode = 116;
},
{
glyphname = u;
kernLeft = u;
lastChange = "2024-10-16 19:47:01 +0000";
layers = (
{
anchors = (
{
name = top;
pos = (279,512);
}
);
layerId = m01;
shapes = (
{
closed = 1;
nodes = (
(309,-16,o),
(333,91,o),
(333,123,c),
(320,123,l),
(327,0,l),
(540,0,l),
(540,512,l),
(320,512,l),
(320,231,ls),
(320,177,o),
(302,149,o),
(274,149,cs),
(252,149,o),
(235,168,o),
(235,222,cs),
(234,512,l),
(14,512,l),
(16,165,ls),
(17,35,o),
(106,-16,o),
(185,-16,cs)
);
}
);
width = 558;
},
{
anchors = (
{
name = top;
pos = (273,500);
}
);
layerId = "257EBA85-25A6-4EFE-A653-BCCD9A912022";
shapes = (
{
closed = 1;
nodes = (
(346,-16,o),
(422,32,o),
(456,137,c),
(443,149,l),
(443,0,l),
(483,0,l),
(483,500,l),
(443,500,l),
(443,189,ls),
(443,108,o),
(356,22,o),
(255,22,cs),
(196,22,o),
(119,52,o),
(118,171,cs),
(116,500,l),
(76,500,l),
(78,165,ls),
(79,35,o),
(168,-16,o),
(254,-16,cs)
);
}
);
width = 573;
},
{
associatedMasterId = "257EBA85-25A6-4EFE-A653-BCCD9A912022";
layerId = "6E67B60B-5C6A-49E0-95F1-10157C947678";
name = "24 Jan 24 at 00:15";
shapes = (
{
closed = 1;
nodes = (
(443,0,l),
(483,0,l),
(483,500,l),
(443,500,l)
);
},
{
closed = 1;
nodes = (
(78,155,ls),
(79,33,o),
(168,-16,o),
(254,-16,cs),
(371,-16,o),
(469,62,o),
(469,366,c),
(443,366,l),
(443,83,o),
(355,22,o),
(254,22,cs),
(184,22,o),
(119,59,o),
(118,155,cs),
(116,500,l),
(76,500,l)
);
}
);
width = 573;
},
{
anchors = (
{
name = top;
pos = (276,506);
}
);
layerId = "6D4AB606-1E4E-4A6F-BC39-70F25E2B516B";
shapes = (
{
closed = 1;
nodes = (
(327,-16,o),
(396,62,o),
(413,130,c),
(380,136,l),
(383,0,l),
(512,0,l),
(512,506,l),
(380,506,l),
(380,211,ls),
(380,144,o),
(328,87,o),
(265,87,cs),
(225,87,o),
(179,112,o),
(178,197,cs),
(177,506,l),
(44,506,l),
(46,165,ls),
(47,35,o),
(136,-16,o),
(218,-16,cs)
);
}
);
width = 565;
}
);
metricLeft = "=|n";
metricRight = "=|n";
unicode = 117;
},
{
glyphname = v;
kernLeft = v;
lastChange = "2024-10-16 19:46:19 +0000";
layers = (
{
layerId = m01;
shapes = (
{
attr = {
identifier = ID0x16462bca0;
};
closed = 1;
nodes = (
(398,0,l),
(553,512,l),
(359,512,l),
(246,27,l),
(357,27,l),
(236,512,l),
(10,512,l),
(178,0,l)
);
}
);
width = 568;
},
{
layerId = "257EBA85-25A6-4EFE-A653-BCCD9A912022";
shapes = (
{
attr = {
identifier = ID0x146059de0;
};
closed = 1;
nodes = (
(261,0,l),
(460,500,l),
(420,500,l),
(230,27,l),
(252,27,l),
(61,500,l),
(18,500,l),
(221,0,l)
);
}
);
width = 475;
},
{
layerId = "6D4AB606-1E4E-4A6F-BC39-70F25E2B516B";
shapes = (
{
attr = {
identifier = ID0x16462bca0;
};
closed = 1;
nodes = (
(332,0,l),
(508,506,l),
(389,506,l),
(238,27,l),
(306,27,l),
(151,506,l),
(14,506,l),
(199,0,l)
);
}
);
width = 523;
}
);
unicode = 118;
},
{
glyphname = w;
kernLeft = v;
lastChange = "2024-10-16 19:46:21 +0000";
layers = (
{
anchors = (
{
name = top;
pos = (420,512);
}
);
layerId = m01;
shapes = (
{
attr = {
identifier = ID0x146059de0;
};
closed = 1;
nodes = (
(351,0,l),
(450,383,l),
(404,383,l),
(464,0,l),
(693,0,l),
(825,512,l),
(643,512,l),
(573,111,l),
(609,111,l),
(543,512,l),
(331,512,l),
(268,111,l),
(302,111,l),
(225,512,l),
(10,512,l),
(151,0,l)
);
}
);
width = 840;
},
{
anchors = (
{
name = top;
pos = (352,500);
}
);
layerId = "257EBA85-25A6-4EFE-A653-BCCD9A912022";
shapes = (
{
attr = {
identifier = ID0x146059de0;
};
closed = 1;
nodes = (
(247,0,l),
(368,478,l),
(339,478,l),
(459,0,l),
(509,0,l),
(688,500,l),
(647,500,l),
(478,25,l),
(494,25,l),
(375,500,l),
(335,500,l),
(214,25,l),
(230,25,l),
(61,500,l),
(18,500,l),
(197,0,l)
);
}
);
width = 703;
},
{
anchors = (
{
name = top;
pos = (387,506);
}
);
layerId = "6D4AB606-1E4E-4A6F-BC39-70F25E2B516B";
shapes = (
{
attr = {
identifier = ID0x146059de0;
};
closed = 1;
nodes = (
(301,0,l),
(410,429,l),
(372,429,l),
(462,0,l),
(604,0,l),
(759,506,l),
(645,506,l),
(527,69,l),
(553,69,l),
(462,506,l),
(333,506,l),
(242,69,l),
(267,69,l),
(145,506,l),
(14,506,l),
(173,0,l)
);
}
);
width = 774;
}
);
metricLeft = "=v";
metricRight = "=v";
unicode = 119;
},
{
glyphname = x;
lastChange = "2024-10-16 18:38:25 +0000";
layers = (
{
background = {
shapes = (
{
pos = (35,0);
ref = o;
}
);
};
layerId = m01;
shapes = (
{
closed = 1;
nodes = (
(612,0,l),
(251,512,l),
(8,512,l),
(368,0,l)
);
},
{
closed = 1;
nodes = (
(225,0,l),
(330,156,l),
(229,327,l),
(8,0,l)
);
},
{
closed = 1;
nodes = (
(631,512,l),
(415,512,l),
(297,326,l),
(396,165,l)
);
}
);
width = 643;
},
{
layerId = "257EBA85-25A6-4EFE-A653-BCCD9A912022";
shapes = (
{
closed = 1;
nodes = (
(419,0,l),
(66,500,l),
(16,500,l),
(368,0,l)
);
},
{
closed = 1;
nodes = (
(56,0,l),
(227,246,l),
(202,272,l),
(12,0,l)
);
},
{
closed = 1;
nodes = (
(407,500,l),
(364,500,l),
(211,267,l),
(219,218,l)
);
}
);
width = 435;
},
{
associatedMasterId = "257EBA85-25A6-4EFE-A653-BCCD9A912022";
background = {
shapes = (
{
closed = 1;
nodes = (
(55,462,l),
(426,462,l),
(426,500,l),
(55,500,l)
);
},
{
closed = 1;
nodes = (
(41,0,l),
(429,0,l),
(429,38,l),
(41,38,l)
);
},
{
closed = 1;
nodes = (
(41,38,l),
(80,22,l),
(426,462,l),
(389,481,l)
);
}
);
};
layerId = "EEDCBE6E-F376-41BB-AF97-F22747104DC7";
name = old;
shapes = (
{
closed = 1;
nodes = (
(74,419,o),
(128,339,o),
(184,258,c),
(124,172,o),
(67,86,o),
(13,0,c),
(62,0,l),
(107,75,o),
(157,150,o),
(208,225,c),
(260,150,o),
(309,75,o),
(355,0,c),
(404,0,l),
(351,85,o),
(305,157,o),
(246,242,c),
(305,324,o),
(363,418,o),
(416,500,c),
(370,500,l),
(324,430,o),
(274,346,o),
(222,276,c),
(173,346,o),
(116,430,o),
(73,500,c),
(24,500,l)
);
}
);
width = 427;
},
{
background = {
shapes = (
{
pos = (-17,0);
ref = o;
}
);
};
layerId = "6D4AB606-1E4E-4A6F-BC39-70F25E2B516B";
shapes = (
{
closed = 1;
nodes = (
(542,0,l),
(189,506,l),
(25,506,l),
(377,0,l)
);
},
{
closed = 1;
nodes = (
(165,0,l),
(288,170,l),
(256,337,l),
(12,0,l)
);
},
{
closed = 1;
nodes = (
(547,506,l),
(395,506,l),
(277,326,l),
(310,165,l)
);
}
);
width = 562;
}
);
unicode = 120;
},
{
glyphname = y;
kernLeft = v;
lastChange = "2024-10-16 19:46:46 +0000";
layers = (
{
anchors = (
{
name = top;
pos = (293,512);
}
);
layerId = m01;
shapes = (
{
closed = 1;
nodes = (
(319,-216,o),
(377,-151,o),
(414,-20,cs),
(565,512,l),
(358,512,l),
(283,67,ls),
(274,15,o),
(224,-44,o),
(158,-44,cs),
(134,-44,o),
(110,-38,o),
(85,-24,c),
(85,-194,l),
(126,-209,o),
(167,-216,o),
(204,-216,cs)
);
},
{
attr = {
identifier = ID0x146059de0;
};
closed = 1;
nodes = (
(365,-23,l),
(233,512,l),
(10,512,l),
(210,-47,l)
);
}
);
width = 580;
},
{
anchors = (
{
name = top;
pos = (251,500);
}
);
layerId = "257EBA85-25A6-4EFE-A653-BCCD9A912022";
shapes = (
{
closed = 1;
nodes = (
(174,-216,o),
(218,-147,o),
(250,-70,cs),
(486,500,l),
(445,500,l),
(209,-70,ls),
(187,-124,o),
(157,-178,o),
(93,-178,cs),
(65,-178,o),
(56,-177,o),
(27,-166,c),
(27,-206,l),
(48,-213,o),
(71,-216,o),
(93,-216,cs)
);
},
{
closed = 1;
nodes = (
(276,0,l),
(65,500,l),
(18,500,l),
(238,0,l)
);
}
);
width = 501;
},
{
anchors = (
{
name = top;
pos = (293,512);
}
);
associatedMasterId = m01;
layerId = "3AB31623-BC10-4F4F-B4E3-2352921CE0BD";
name = "28 Feb 24 at 14:46";
shapes = (
{
closed = 1;
nodes = (
(319,-216,o),
(377,-151,o),
(414,-20,cs),
(565,512,l),
(358,512,l),
(283,67,ls),
(274,15,o),
(218,-34,o),
(152,-34,cs),
(105,-34,o),
(56,-23,o),
(23,-4,c),
(23,-166,l),
(86,-200,o),
(148,-216,o),
(204,-216,cs)
);
},
{
attr = {
identifier = ID0x146059de0;
};
closed = 1;
nodes = (
(369,-10,l),
(233,512,l),
(10,512,l),
(203,-28,l)
);
}
);
width = 580;
},
{
anchors = (
{
name = top;
pos = (273,506);
}
);
layerId = "6D4AB606-1E4E-4A6F-BC39-70F25E2B516B";
shapes = (
{
closed = 1;
nodes = (
(249,-216,o),
(300,-148,o),
(336,-44,cs),
(527,506,l),
(395,506,l),
(226,13,ls),
(208,-39,o),
(188,-101,o),
(123,-101,cs),
(86,-101,o),
(56,-90,o),
(25,-75,c),
(25,-185,l),
(68,-206,o),
(111,-216,o),
(150,-216,cs)
);
},
{
attr = {
identifier = ID0x146059de0;
};
closed = 1;
nodes = (
(346,88,l),
(159,506,l),
(14,506,l),
(244,-12,l)
);
}
);
width = 542;
}
);
metricLeft = "=v";
metricRight = "=v";
unicode = 121;
},
{
glyphname = y.001;
lastChange = "2024-10-22 06:16:09 +0000";
layers = (
{
layerId = m01;
shapes = (
{
closed = 1;
nodes = (
(434,-216,o),
(553,-111,o),
(553,55,cs),
(553,511,l),
(334,511,l),
(334,364,ls),
(334,267,o),
(328,205,o),
(277,205,cs),
(234,205,o),
(234,250,o),
(234,338,cs),
(234,512,l),
(14,512,l),
(14,234,ls),
(14,79,o),
(58,4,o),
(189,4,cs),
(280,4,o),
(323,40,o),
(334,103,c),
(334,74,ls),
(334,15,o),
(286,-38,o),
(182,-38,cs),
(119,-38,o),
(69,-19,o),
(27,0,c),
(27,-172,l),
(107,-201,o),
(198,-216,o),
(263,-216,cs)
);
}
);
width = 567;
},
{
layerId = "257EBA85-25A6-4EFE-A653-BCCD9A912022";
shapes = (
{
closed = 1;
nodes = (
(379,-216,o),
(486,-111,o),
(486,55,cs),
(486,500,l),
(448,500,l),
(448,276,ls),
(448,121,o),
(361,22,o),
(249,22,cs),
(153,22,o),
(116,95,o),
(116,234,cs),
(116,501,l),
(76,501,l),
(76,234,ls),
(76,79,o),
(125,-16,o),
(254,-16,cs),
(347,-16,o),
(415,34,o),
(448,132,c),
(448,55,ls),
(448,-95,o),
(353,-178,o),
(227,-178,cs),
(186,-178,o),
(136,-169,o),
(94,-150,c),
(94,-192,l),
(135,-207,o),
(180,-216,o),
(225,-216,cs)
);
}
);
width = 562;
},
{
associatedMasterId = "257EBA85-25A6-4EFE-A653-BCCD9A912022";
layerId = "BB855E17-253A-4AC4-AC2F-9B589AAE3D67";
name = "11 Jan 24, 22:43";
shapes = (
{
closed = 1;
nodes = (
(93,-192,l),
(134,-207,o),
(179,-216,o),
(224,-216,cs),
(378,-216,o),
(485,-111,o),
(485,55,cs),
(485,500,l),
(447,500,l),
(447,276,ls),
(447,121,o),
(360,22,o),
(248,22,cs),
(152,22,o),
(115,95,o),
(115,234,cs),
(115,501,l),
(75,501,l),
(75,234,ls),
(75,79,o),
(124,-16,o),
(253,-16,cs),
(346,-16,o),
(414,34,o),
(447,132,c),
(447,55,ls),
(447,-95,o),
(352,-178,o),
(224,-178,cs),
(184,-178,o),
(136,-170,o),
(93,-150,c)
);
}
);
width = 560;
},
{
associatedMasterId = m01;
layerId = "B5C751A7-555F-4277-8C6A-6C40A6203765";
name = "11 Jan 24, 22:43";
width = 600;
},
{
layerId = "6D4AB606-1E4E-4A6F-BC39-70F25E2B516B";
shapes = (
{
closed = 1;
nodes = (
(407,-216,o),
(519,-111,o),
(519,55,cs),
(519,506,l),
(389,506,l),
(389,321,ls),
(389,196,o),
(344,116,o),
(264,116,cs),
(195,116,o),
(177,175,o),
(177,288,cs),
(177,507,l),
(44,507,l),
(44,234,ls),
(44,79,o),
(90,-6,o),
(230,-6,cs),
(312,-6,o),
(354,23,o),
(389,75,c),
(389,65,ls),
(389,-38,o),
(359,-101,o),
(223,-101,cs),
(171,-101,o),
(101,-88,o),
(59,-69,c),
(59,-182,l),
(121,-204,o),
(189,-216,o),
(244,-216,cs)
);
}
);
width = 563;
}
);
metricLeft = "=|n";
metricRight = "=n";
},
{
glyphname = z;
lastChange = "2024-10-14 12:08:17 +0000";
layers = (
{
layerId = m01;
shapes = (
{
closed = 1;
nodes = (
(453,354,l),
(312,481,l),
(15,138,l),
(204,82,l)
);
},
{
closed = 1;
nodes = (
(453,0,l),
(453,138,l),
(15,138,l),
(15,0,l)
);
},
{
closed = 1;
nodes = (
(453,354,l),
(453,512,l),
(29,512,l),
(29,354,l)
);
}
);
width = 468;
},
{
layerId = "257EBA85-25A6-4EFE-A653-BCCD9A912022";
shapes = (
{
closed = 1;
nodes = (
(426,462,l),
(389,481,l),
(41,38,l),
(80,22,l)
);
},
{
closed = 1;
nodes = (
(429,0,l),
(429,38,l),
(41,38,l),
(41,0,l)
);
},
{
closed = 1;
nodes = (
(426,462,l),
(426,500,l),
(55,500,l),
(55,462,l)
);
}
);
width = 466;
},
{
layerId = "6D4AB606-1E4E-4A6F-BC39-70F25E2B516B";
shapes = (
{
closed = 1;
nodes = (
(440,406,l),
(349,481,l),
(28,89,l),
(144,53,l)
);
},
{
closed = 1;
nodes = (
(441,0,l),
(441,89,l),
(28,89,l),
(28,0,l)
);
},
{
closed = 1;
nodes = (
(440,406,l),
(440,506,l),
(42,506,l),
(42,406,l)
);
}
);
width = 467;
}
);
unicode = 122;
},
{
glyphname = f_f;
lastChange = "2024-10-22 06:35:57 +0000";
layers = (
{
layerId = "257EBA85-25A6-4EFE-A653-BCCD9A912022";
shapes = (
{
closed = 1;
nodes = (
(140,0,l),
(140,521,ls),
(140,644,o),
(159,708,o),
(251,708,cs),
(283,708,o),
(314,700,o),
(331,692,c),
(331,731,l),
(308,739,o),
(276,746,o),
(245,746,cs),
(147,746,o),
(100,675,o),
(100,521,cs),
(100,0,l)
);
},
{
closed = 1;
nodes = (
(315,462,l),
(315,500,l),
(30,500,l),
(30,462,l)
);
},
{
closed = 1;
nodes = (
(395,0,l),
(395,521,ls),
(395,644,o),
(414,708,o),
(506,708,cs),
(538,708,o),
(569,700,o),
(586,692,c),
(586,731,l),
(563,739,o),
(531,746,o),
(500,746,cs),
(402,746,o),
(355,675,o),
(355,521,cs),
(355,0,l)
);
},
{
closed = 1;
nodes = (
(570,462,l),
(570,500,l),
(285,500,l),
(285,462,l)
);
}
);
width = 610;
},
{
layerId = m01;
shapes = (
{
closed = 1;
nodes = (
(312,0,l),
(312,528,ls),
(312,573,o),
(316,605,o),
(367,605,cs),
(393,605,o),
(426,597,o),
(443,587,c),
(443,700,l),
(403,732,o),
(322,745,o),
(270,745,cs),
(134,745,o),
(92,655,o),
(92,560,cs),
(92,0,l)
);
},
{
closed = 1;
nodes = (
(428,364,l),
(428,512,l),
(16,512,l),
(16,364,l)
);
},
{
closed = 1;
nodes = (
(685,0,l),
(685,528,ls),
(685,573,o),
(689,605,o),
(740,605,cs),
(766,605,o),
(799,597,o),
(816,587,c),
(816,700,l),
(776,732,o),
(695,745,o),
(643,745,cs),
(507,745,o),
(465,655,o),
(465,560,cs),
(465,0,l)
);
},
{
closed = 1;
nodes = (
(801,364,l),
(801,512,l),
(389,512,l),
(389,364,l)
);
}
);
width = 836;
},
{
layerId = "6D4AB606-1E4E-4A6F-BC39-70F25E2B516B";
shapes = (
{
closed = 1;
nodes = (
(234,0,l),
(234,525,ls),
(234,607,o),
(245,633,o),
(316,633,cs),
(345,633,o),
(377,625,o),
(394,616,c),
(394,722,l),
(362,735,o),
(305,745,o),
(263,745,cs),
(145,745,o),
(101,665,o),
(101,541,cs),
(101,0,l)
);
},
{
closed = 1;
nodes = (
(378,391,l),
(378,506,l),
(18,506,l),
(18,391,l)
);
},
{
closed = 1;
nodes = (
(570,0,l),
(570,525,ls),
(570,607,o),
(581,633,o),
(652,633,cs),
(681,633,o),
(713,625,o),
(730,616,c),
(730,722,l),
(698,735,o),
(641,745,o),
(599,745,cs),
(481,745,o),
(437,665,o),
(437,541,cs),
(437,0,l)
);
},
{
closed = 1;
nodes = (
(714,391,l),
(714,506,l),
(354,506,l),
(354,391,l)
);
}
);
width = 752;
}
);
metricLeft = f;
metricRight = f;
},
{
glyphname = f_h;
lastChange = "2024-10-22 06:47:50 +0000";
layers = (
{
layerId = "257EBA85-25A6-4EFE-A653-BCCD9A912022";
shapes = (
{
closed = 1;
nodes = (
(140,0,l),
(140,521,ls),
(140,644,o),
(159,708,o),
(255,708,cs),
(295,708,o),
(354,700,o),
(375,692,c),
(375,730,l),
(351,736,o),
(300,746,o),
(255,746,cs),
(147,746,o),
(100,675,o),
(100,521,cs),
(100,0,l)
);
},
{
closed = 1;
nodes = (
(265,462,l),
(265,500,l),
(30,500,l),
(30,462,l)
);
},
{
closed = 1;
nodes = (
(375,0,l),
(375,730,l),
(335,730,l),
(335,0,l)
);
},
{
closed = 1;
nodes = (
(741,0,l),
(741,345,ls),
(741,467,o),
(651,516,o),
(565,516,cs),
(464,516,o),
(349,448,o),
(349,134,c),
(375,134,l),
(375,417,o),
(473,478,o),
(564,478,cs),
(619,478,o),
(701,456,o),
(701,345,cs),
(701,0,l)
);
}
);
width = 817;
},
{
layerId = m01;
shapes = (
{
closed = 1;
nodes = (
(312,0,l),
(312,528,ls),
(312,573,o),
(316,605,o),
(360,605,cs),
(385,605,o),
(407,599,o),
(416,592,c),
(412,730,l),
(369,737,o),
(318,745,o),
(266,745,cs),
(134,745,o),
(92,655,o),
(92,560,cs),
(92,0,l)
);
},
{
closed = 1;
nodes = (
(388,364,l),
(388,512,l),
(16,512,l),
(16,364,l)
);
},
{
closed = 1;
nodes = (
(632,0,l),
(632,730,l),
(412,730,l),
(412,0,l)
);
},
{
closed = 1;
nodes = (
(948,0,l),
(948,351,ls),
(948,484,o),
(904,528,o),
(834,528,cs),
(741,528,o),
(586,452,o),
(586,232,c),
(632,232,l),
(632,291,o),
(667,318,o),
(697,318,cs),
(720,318,o),
(728,303,o),
(728,268,cs),
(728,0,l)
);
}
);
width = 962;
},
{
layerId = "6D4AB606-1E4E-4A6F-BC39-70F25E2B516B";
shapes = (
{
closed = 1;
nodes = (
(234,0,l),
(234,525,ls),
(234,607,o),
(245,635,o),
(316,635,cs),
(358,635,o),
(410,631,o),
(442,620,c),
(505,730,l),
(472,736,o),
(358,745,o),
(286,745,cs),
(145,745,o),
(101,665,o),
(101,541,cs),
(101,0,l)
);
},
{
closed = 1;
nodes = (
(338,391,l),
(338,506,l),
(18,506,l),
(18,391,l)
);
},
{
closed = 1;
nodes = (
(505,0,l),
(505,730,l),
(372,730,l),
(372,0,l)
);
},
{
closed = 1;
nodes = (
(847,0,l),
(847,354,ls),
(847,482,o),
(755,522,o),
(680,522,cs),
(585,522,o),
(438,461,o),
(438,169,c),
(505,169,l),
(505,348,o),
(568,402,o),
(631,402,cs),
(667,402,o),
(714,383,o),
(714,312,cs),
(714,0,l)
);
}
);
width = 891;
}
);
metricLeft = f;
metricRight = h;
},
{
glyphname = f_i;
lastChange = "2024-10-22 06:52:53 +0000";
layers = (
{
layerId = "257EBA85-25A6-4EFE-A653-BCCD9A912022";
shapes = (
{
closed = 1;
nodes = (
(388,0,l),
(388,500,l),
(348,500,l),
(348,0,l)
);
},
{
closed = 1;
nodes = (
(140,0,l),
(140,521,ls),
(140,644,o),
(159,708,o),
(251,708,cs),
(295,708,o),
(353,696,o),
(388,677,c),
(388,716,l),
(350,734,o),
(295,746,o),
(245,746,cs),
(147,746,o),
(100,675,o),
(100,521,cs),
(100,0,l)
);
},
{
closed = 1;
nodes = (
(357,462,l),
(357,500,l),
(30,500,l),
(30,462,l)
);
}
);
width = 478;
},
{
layerId = m01;
shapes = (
{
closed = 1;
nodes = (
(600,0,l),
(600,512,l),
(380,512,l),
(380,0,l)
);
},
{
closed = 1;
nodes = (
(312,0,l),
(312,528,ls),
(312,573,o),
(316,605,o),
(390,605,cs),
(462,605,o),
(540,587,o),
(600,562,c),
(600,679,l),
(553,702,o),
(439,745,o),
(311,745,cs),
(134,745,o),
(92,655,o),
(92,560,cs),
(92,0,l)
);
},
{
closed = 1;
nodes = (
(428,364,l),
(428,512,l),
(16,512,l),
(16,364,l)
);
}
);
width = 618;
},
{
layerId = "6D4AB606-1E4E-4A6F-BC39-70F25E2B516B";
shapes = (
{
closed = 1;
nodes = (
(483,-1,l),
(483,506,l),
(350,506,l),
(350,-1,l)
);
},
{
closed = 1;
nodes = (
(234,0,l),
(234,525,ls),
(234,607,o),
(245,633,o),
(323,633,cs),
(390,633,o),
(453,607,o),
(483,591,c),
(483,697,l),
(443,722,o),
(345,745,o),
(280,745,cs),
(145,745,o),
(101,665,o),
(101,541,cs),
(101,0,l)
);
},
{
closed = 1;
nodes = (
(378,391,l),
(378,506,l),
(18,506,l),
(18,391,l)
);
}
);
width = 536;
}
);
metricLeft = f;
metricRight = "=|n";
},
{
glyphname = f_k;
lastChange = "2024-10-22 06:57:16 +0000";
layers = (
{
layerId = "257EBA85-25A6-4EFE-A653-BCCD9A912022";
shapes = (
{
closed = 1;
nodes = (
(140,0,l),
(140,521,ls),
(140,644,o),
(159,708,o),
(251,708,cs),
(291,708,o),
(324,703,o),
(334,700,c),
(361,735,l),
(340,740,o),
(292,746,o),
(253,746,cs),
(147,746,o),
(100,675,o),
(100,521,cs),
(100,0,l)
);
},
{
closed = 1;
nodes = (
(270,462,l),
(270,500,l),
(30,500,l),
(30,462,l)
);
},
{
closed = 1;
nodes = (
(361,0,l),
(361,735,l),
(321,735,l),
(321,0,l)
);
},
{
closed = 1;
nodes = (
(720,0,l),
(414,292,l),
(415,282,l),
(698,500,l),
(639,500,l),
(361,286,l),
(659,0,l)
);
}
);
width = 736;
},
{
layerId = m01;
shapes = (
{
closed = 1;
nodes = (
(312,0,l),
(312,528,ls),
(312,573,o),
(316,605,o),
(362,605,cs),
(399,605,o),
(427,594,o),
(445,584,c),
(445,696,l),
(405,728,o),
(322,745,o),
(266,745,cs),
(134,745,o),
(92,655,o),
(92,560,cs),
(92,0,l)
);
},
{
closed = 1;
nodes = (
(388,364,l),
(388,512,l),
(16,512,l),
(16,364,l)
);
},
{
closed = 1;
nodes = (
(663,0,l),
(663,730,l),
(443,730,l),
(443,0,l)
);
},
{
closed = 1;
nodes = (
(969,0,l),
(829,314,l),
(829,257,l),
(984,512,l),
(768,512,l),
(633,286,l),
(731,0,l)
);
}
);
width = 996;
},
{
layerId = "6D4AB606-1E4E-4A6F-BC39-70F25E2B516B";
shapes = (
{
closed = 1;
nodes = (
(234,0,l),
(234,525,ls),
(234,607,o),
(245,636,o),
(316,636,cs),
(345,636,o),
(383,632,o),
(400,626,c),
(527,730,l),
(478,736,o),
(346,745,o),
(284,745,cs),
(145,745,o),
(101,665,o),
(101,541,cs),
(101,0,l)
);
},
{
closed = 1;
nodes = (
(378,391,l),
(378,506,l),
(18,506,l),
(18,391,l)
);
},
{
closed = 1;
nodes = (
(527,0,l),
(527,730,l),
(397,730,l),
(394,0,l)
);
},
{
closed = 1;
nodes = (
(870,0,l),
(650,305,l),
(634,265,l),
(858,506,l),
(703,506,l),
(501,286,l),
(706,0,l)
);
}
);
width = 885;
}
);
metricLeft = f;
metricRight = k;
},
{
glyphname = f_l;
lastChange = "2024-10-22 07:00:25 +0000";
layers = (
{
layerId = "257EBA85-25A6-4EFE-A653-BCCD9A912022";
shapes = (
{
closed = 1;
nodes = (
(140,0,l),
(140,521,ls),
(140,644,o),
(159,708,o),
(251,708,cs),
(277,708,o),
(326,704,o),
(338,699,c),
(361,735,l),
(338,740,o),
(288,746,o),
(252,746,cs),
(147,746,o),
(100,675,o),
(100,521,cs),
(100,0,l)
);
},
{
closed = 1;
nodes = (
(270,462,l),
(270,500,l),
(30,500,l),
(30,462,l)
);
},
{
closed = 1;
nodes = (
(416,-5,o),
(452,-5,o),
(481,15,c),
(481,55,l),
(450,33,o),
(415,33,o),
(402,33,cs),
(364,33,o),
(361,62,o),
(361,101,cs),
(361,735,l),
(321,735,l),
(321,101,ls),
(321,60,o),
(326,-5,o),
(402,-5,cs)
);
}
);
width = 488;
},
{
layerId = m01;
shapes = (
{
closed = 1;
nodes = (
(312,0,l),
(312,528,ls),
(312,573,o),
(316,604,o),
(361,604,cs),
(396,604,o),
(412,599,o),
(423,594,c),
(633,730,l),
(558,738,o),
(404,745,o),
(281,745,cs),
(134,745,o),
(92,655,o),
(92,560,cs),
(92,0,l)
);
},
{
closed = 1;
nodes = (
(388,364,l),
(388,512,l),
(16,512,l),
(16,364,l)
);
},
{
closed = 1;
nodes = (
(638,-5,o),
(678,3,o),
(701,20,c),
(701,175,l),
(689,164,o),
(678,162,o),
(666,162,cs),
(635,162,o),
(633,184,o),
(633,223,cs),
(633,730,l),
(413,730,l),
(413,180,ls),
(413,30,o),
(493,-5,o),
(591,-5,cs)
);
}
);
width = 721;
},
{
layerId = "6D4AB606-1E4E-4A6F-BC39-70F25E2B516B";
shapes = (
{
closed = 1;
nodes = (
(224,0,l),
(224,525,ls),
(224,607,o),
(235,655,o),
(306,655,cs),
(334,655,o),
(364,653,o),
(379,646,c),
(491,730,l),
(451,736,o),
(339,745,o),
(271,745,cs),
(135,745,o),
(91,665,o),
(91,541,cs),
(91,0,l)
);
},
{
closed = 1;
nodes = (
(326,412,l),
(326,506,l),
(18,506,l),
(18,412,l)
);
},
{
closed = 1;
nodes = (
(520,-5,o),
(559,-1,o),
(584,18,c),
(584,117,l),
(563,100,o),
(541,99,o),
(528,99,cs),
(494,99,o),
(491,125,o),
(491,164,cs),
(491,730,l),
(359,730,l),
(359,142,ls),
(359,45,o),
(402,-5,o),
(489,-5,cs)
);
}
);
width = 598;
}
);
metricLeft = f;
metricRight = l;
},
{
glyphname = f_t;
lastChange = "2024-10-22 07:00:55 +0000";
layers = (
{
layerId = "257EBA85-25A6-4EFE-A653-BCCD9A912022";
shapes = (
{
closed = 1;
nodes = (
(140,0,l),
(140,521,ls),
(140,644,o),
(159,708,o),
(251,708,cs),
(277,708,o),
(306,703,o),
(321,693,c),
(321,735,l),
(298,742,o),
(272,746,o),
(248,746,cs),
(147,746,o),
(100,675,o),
(100,521,cs),
(100,0,l)
);
},
{
closed = 1;
nodes = (
(301,462,l),
(301,500,l),
(30,500,l),
(30,462,l)
);
},
{
closed = 1;
nodes = (
(456,-5,o),
(496,-3,o),
(526,17,c),
(526,55,l),
(495,34,o),
(466,33,o),
(438,33,cs),
(400,33,o),
(391,62,o),
(391,101,cs),
(391,632,l),
(351,632,l),
(351,483,l),
(351,101,ls),
(351,55,o),
(356,-5,o),
(432,-5,cs)
);
},
{
closed = 1;
nodes = (
(524,462,l),
(524,500,l),
(281,500,l),
(281,462,l)
);
}
);
width = 550;
},
{
layerId = m01;
shapes = (
{
closed = 1;
nodes = (
(312,0,l),
(312,528,ls),
(312,573,o),
(316,605,o),
(357,605,cs),
(383,605,o),
(409,596,o),
(423,587,c),
(423,699,l),
(383,731,o),
(322,745,o),
(266,745,cs),
(134,745,o),
(92,655,o),
(92,560,cs),
(92,0,l)
);
},
{
closed = 1;
nodes = (
(428,364,l),
(428,512,l),
(16,512,l),
(16,364,l)
);
},
{
closed = 1;
nodes = (
(703,-5,o),
(751,8,o),
(788,33,c),
(788,180,l),
(769,166,o),
(751,162,o),
(727,162,cs),
(683,162,o),
(680,191,o),
(680,230,cs),
(680,660,l),
(560,660,l),
(460,488,l),
(460,180,ls),
(460,9,o),
(595,-5,o),
(650,-5,cs)
);
},
{
closed = 1;
nodes = (
(788,364,l),
(788,512,l),
(386,512,l),
(386,364,l)
);
}
);
width = 808;
},
{
layerId = "6D4AB606-1E4E-4A6F-BC39-70F25E2B516B";
shapes = (
{
closed = 1;
nodes = (
(224,0,l),
(224,525,ls),
(224,607,o),
(235,655,o),
(301,655,cs),
(327,655,o),
(354,648,o),
(369,638,c),
(369,716,l),
(337,736,o),
(293,745,o),
(252,745,cs),
(135,745,o),
(91,665,o),
(91,541,cs),
(91,0,l)
);
},
{
closed = 1;
nodes = (
(361,412,l),
(361,506,l),
(18,506,l),
(18,412,l)
);
},
{
closed = 1;
nodes = (
(583,-5,o),
(627,3,o),
(661,25,c),
(661,119,l),
(636,102,o),
(613,99,o),
(587,99,cs),
(546,99,o),
(540,128,o),
(540,167,cs),
(540,646,l),
(458,646,l),
(407,486,l),
(407,142,ls),
(407,31,o),
(479,-5,o),
(544,-5,cs)
);
},
{
closed = 1;
nodes = (
(660,412,l),
(660,506,l),
(335,506,l),
(335,412,l)
);
}
);
width = 683;
}
);
metricLeft = f;
metricRight = t;
},
{
glyphname = "Be-cy";
lastChange = "2024-10-16 17:26:25 +0000";
layers = (
{
layerId = m01;
shapes = (
{
closed = 1;
nodes = (
(357,0,ls),
(503,0,o),
(596,72,o),
(596,243,cs),
(596,397,o),
(520,464,o),
(394,464,cs),
(266,464,l),
(266,524,l),
(556,524,l),
(556,712,l),
(36,712,l),
(36,0,l)
);
},
{
closed = 1;
nodes = (
(266,286,l),
(309,286,ls),
(340,286,o),
(364,271,o),
(364,235,cs),
(364,195,o),
(334,178,o),
(304,178,cs),
(266,178,l)
);
}
);
width = 626;
},
{
layerId = "257EBA85-25A6-4EFE-A653-BCCD9A912022";
shapes = (
{
closed = 1;
nodes = (
(336,0,l),
(500,0,o),
(590,45,o),
(590,201,cs),
(590,349,o),
(508,409,o),
(353,409,cs),
(141,409,l),
(141,662,l),
(563,662,l),
(563,700,l),
(99,700,l),
(99,0,l)
);
},
{
closed = 1;
nodes = (
(141,371,l),
(379,371,ls),
(481,371,o),
(546,323,o),
(546,198,cs),
(546,67,o),
(453,38,o),
(364,38,cs),
(141,38,l)
);
}
);
width = 595;
},
{
layerId = "6D4AB606-1E4E-4A6F-BC39-70F25E2B516B";
shapes = (
{
closed = 1;
nodes = (
(358,0,ls),
(519,0,o),
(611,44,o),
(611,208,cs),
(611,364,o),
(531,430,o),
(385,430,cs),
(216,430,l),
(216,581,l),
(570,581,l),
(570,706,l),
(71,706,l),
(71,0,l)
);
},
{
closed = 1;
nodes = (
(216,331,l),
(354,331,ls),
(419,331,o),
(463,297,o),
(463,211,cs),
(463,119,o),
(403,99,o),
(344,99,cs),
(216,99,l)
);
}
);
width = 621;
}
);
metricLeft = "=H";
metricRight = "=B";
unicode = 1041;
},
{
glyphname = "Ge-cy";
kernLeft = H;
kernRight = T;
lastChange = "2024-10-16 19:57:02 +0000";
layers = (
{
layerId = m01;
shapes = (
{
closed = 1;
nodes = (
(266,0,l),
(266,524,l),
(538,524,l),
(538,712,l),
(36,712,l),
(36,0,l)
);
}
);
width = 558;
},
{
layerId = "257EBA85-25A6-4EFE-A653-BCCD9A912022";
shapes = (
{
closed = 1;
nodes = (
(141,0,l),
(141,662,l),
(473,662,l),
(473,700,l),
(99,700,l),
(99,0,l)
);
}
);
width = 483;
},
{
layerId = "6D4AB606-1E4E-4A6F-BC39-70F25E2B516B";
shapes = (
{
closed = 1;
nodes = (
(216,0,l),
(216,570,l),
(517,570,l),
(517,706,l),
(71,706,l),
(71,0,l)
);
}
);
width = 532;
}
);
metricLeft = "=H";
metricRight = "=T";
unicode = 1043;
},
{
glyphname = "Gestroke-cy";
kernLeft = H;
kernRight = F;
lastChange = "2024-10-16 20:05:21 +0000";
layers = (
{
layerId = "257EBA85-25A6-4EFE-A653-BCCD9A912022";
shapes = (
{
closed = 1;
nodes = (
(200,0,l),
(200,662,l),
(532,662,l),
(532,700,l),
(158,700,l),
(158,0,l)
);
},
{
closed = 1;
nodes = (
(486,319,l),
(486,357,l),
(99,357,l),
(99,319,l)
);
}
);
width = 611;
},
{
layerId = m01;
shapes = (
{
closed = 1;
nodes = (
(337,0,l),
(337,524,l),
(609,524,l),
(609,712,l),
(107,712,l),
(107,0,l)
);
},
{
closed = 1;
nodes = (
(549,224,l),
(549,412,l),
(36,412,l),
(36,224,l)
);
}
);
width = 638;
},
{
layerId = "6D4AB606-1E4E-4A6F-BC39-70F25E2B516B";
shapes = (
{
closed = 1;
nodes = (
(275,0,l),
(275,570,l),
(576,570,l),
(576,706,l),
(130,706,l),
(130,0,l)
);
},
{
closed = 1;
nodes = (
(523,249,l),
(523,385,l),
(71,385,l),
(71,249,l)
);
}
);
width = 634;
}
);
metricLeft = "=H";
metricRight = "=F";
unicode = 1170;
},
{
glyphname = "Geupturn-cy";
lastChange = "2024-10-22 06:13:10 +0000";
layers = (
{
layerId = "257EBA85-25A6-4EFE-A653-BCCD9A912022";
shapes = (
{
closed = 1;
nodes = (
(141,0,l),
(141,662,l),
(473,662,l),
(473,806,l),
(431,806,l),
(431,700,l),
(99,700,l),
(99,0,l)
);
}
);
width = 483;
},
{
layerId = m01;
shapes = (
{
closed = 1;
nodes = (
(266,0,l),
(266,524,l),
(548,524,l),
(548,811,l),
(316,811,l),
(316,712,l),
(36,712,l),
(36,0,l)
);
}
);
width = 568;
},
{
layerId = "6D4AB606-1E4E-4A6F-BC39-70F25E2B516B";
shapes = (
{
closed = 1;
nodes = (
(216,0,l),
(216,570,l),
(528,570,l),
(528,809,l),
(383,809,l),
(383,706,l),
(71,706,l),
(71,0,l)
);
}
);
width = 543;
}
);
metricLeft = "=H";
metricRight = "=Ge-cy";
unicode = 1168;
},
{
glyphname = "Shha-cy";
kernLeft = H;
kernRight = H;
lastChange = "2024-10-16 20:05:52 +0000";
layers = (
{
background = {
shapes = (
{
closed = 1;
nodes = (
(316,516,o),
(207,486,o),
(129,409,c),
(147,379,l),
(219,444,o),
(306,478,o),
(386,478,cs),
(501,478,o),
(575,409,o),
(575,296,cs),
(575,0,l),
(617,0,l),
(617,296,ls),
(617,444,o),
(518,516,o),
(395,516,cs)
);
}
);
};
layerId = "257EBA85-25A6-4EFE-A653-BCCD9A912022";
shapes = (
{
closed = 1;
nodes = (
(141,0,l),
(141,379,l),
(219,444,o),
(313,478,o),
(400,478,cs),
(515,478,o),
(589,409,o),
(589,296,cs),
(589,0,l),
(631,0,l),
(631,296,ls),
(631,444,o),
(532,516,o),
(409,516,cs),
(330,516,o),
(214,485,o),
(141,419,c),
(141,700,l),
(99,700,l),
(99,0,l)
);
}
);
width = 691;
},
{
layerId = m01;
shapes = (
{
closed = 1;
nodes = (
(266,0,l),
(266,252,ls),
(266,331,o),
(323,346,o),
(350,346,cs),
(376,346,o),
(426,333,o),
(426,226,cs),
(426,0,l),
(656,0,l),
(656,237,ls),
(656,504,o),
(550,539,o),
(457,539,cs),
(376,539,o),
(314,512,o),
(266,458,c),
(266,712,l),
(36,712,l),
(36,0,l)
);
}
);
width = 695;
},
{
layerId = "6D4AB606-1E4E-4A6F-BC39-70F25E2B516B";
shapes = (
{
closed = 1;
nodes = (
(216,0,l),
(216,324,ls),
(254,386,o),
(328,410,o),
(385,410,cs),
(454,410,o),
(515,370,o),
(515,260,cs),
(515,0,l),
(661,0,l),
(661,266,ls),
(661,475,o),
(569,546,o),
(447,546,cs),
(356,546,o),
(269,505,o),
(216,439,c),
(216,706,l),
(71,706,l),
(71,0,l)
);
}
);
width = 704;
}
);
metricLeft = "=H";
unicode = 1210;
},
{
glyphname = "De-cy";
lastChange = "2024-10-16 17:47:29 +0000";
layers = (
{
hints = (
{
name = "_corner.de-legLarge";
origin = (0,0);
type = Corner;
},
{
name = "_corner.de-legLarge";
origin = (0,6);
scale = (-1,1);
type = Corner;
}
);
layerId = m01;
shapes = (
{
closed = 1;
nodes = (
(706,0,l),
(706,712,l),
(184,712,l),
(184,449,o),
(168,307,o),
(111,188,c),
(111,0,l)
);
},
{
closed = 1;
nodes = (
(380,275,o),
(395,378,o),
(395,524,c),
(476,524,l),
(476,188,l),
(345,188,l)
);
}
);
width = 830;
},
{
hints = (
{
name = "_corner.de-legLarge";
origin = (0,6);
scale = (-1,1);
type = Corner;
},
{
name = "_corner.de-legLarge";
origin = (0,0);
type = Corner;
}
);
layerId = "257EBA85-25A6-4EFE-A653-BCCD9A912022";
shapes = (
{
closed = 1;
nodes = (
(649,0,l),
(649,700,l),
(185,700,l),
(185,437,o),
(174,238,o),
(102,38,c),
(102,0,l)
);
},
{
closed = 1;
nodes = (
(225,246,o),
(226,516,o),
(226,662,c),
(607,662,l),
(607,38,l),
(146,38,l)
);
}
);
width = 751;
},
{
hints = (
{
name = "_corner.de-legLarge";
origin = (0,6);
scale = (-1,1);
type = Corner;
},
{
name = "_corner.de-legLarge";
origin = (0,0);
type = Corner;
}
);
layerId = "6D4AB606-1E4E-4A6F-BC39-70F25E2B516B";
shapes = (
{
closed = 1;
nodes = (
(685,0,l),
(685,706,l),
(184,706,l),
(184,443,o),
(171,274,o),
(107,115,c),
(107,0,l)
);
},
{
closed = 1;
nodes = (
(305,261,o),
(313,445,o),
(313,591,c),
(540,591,l),
(540,115,l),
(248,115,l)
);
}
);
width = 792;
}
);
metricRight = "=Tse-cy";
unicode = 1044;
},
{
glyphname = "Schwa-cy";
kernLeft = O;
kernRight = O;
lastChange = "2024-10-16 20:05:31 +0000";
layers = (
{
layerId = "257EBA85-25A6-4EFE-A653-BCCD9A912022";
shapes = (
{
closed = 1;
nodes = (
(545,-16,o),
(635,146,o),
(635,367,cs),
(635,584,o),
(539,716,o),
(322,716,cs),
(233,716,o),
(162,694,o),
(88,664,c),
(88,624,l),
(159,652,o),
(237,678,o),
(327,678,cs),
(504,678,o),
(591,576,o),
(591,366,cs),
(591,164,o),
(516,22,o),
(330,22,cs),
(121,22,o),
(83,200,o),
(83,365,c),
(79,357,l),
(609,357,l),
(609,395,l),
(43,395,l),
(43,362,ls),
(43,119,o),
(140,-16,o),
(330,-16,cs)
);
}
);
width = 678;
},
{
background = {
shapes = (
{
closed = 1;
nodes = (
(475,-16,o),
(601,149,o),
(601,371,cs),
(601,584,o),
(484,728,o),
(289,728,cs),
(193,728,o),
(109,693,o),
(45,662,c),
(37,456,l),
(83,479,o),
(131,490,o),
(199,490,cs),
(291,490,o),
(372,470,o),
(372,364,cs),
(372,244,o),
(268,227,o),
(200,227,cs),
(118,227,o),
(64,252,o),
(23,280,c),
(23,59,l),
(76,28,o),
(182,-16,o),
(282,-16,cs)
);
}
);
};
layerId = m01;
shapes = (
{
closed = 1;
nodes = (
(566,-16,o),
(658,165,o),
(658,354,cs),
(658,588,o),
(518,728,o),
(316,728,cs),
(216,728,o),
(124,694,o),
(68,664,c),
(68,490,l),
(119,520,o),
(187,543,o),
(264,543,cs),
(376,543,o),
(420,494,o),
(426,340,cs),
(429,244,o),
(415,174,o),
(344,174,cs),
(282,174,o),
(258,227,o),
(258,360,c),
(222,268,l),
(487,268,l),
(487,448,l),
(26,448,l),
(26,399,ls),
(26,131,o),
(117,-16,o),
(330,-16,cs)
);
}
);
width = 684;
},
{
layerId = "6D4AB606-1E4E-4A6F-BC39-70F25E2B516B";
shapes = (
{
closed = 1;
nodes = (
(557,-16,o),
(648,144,o),
(648,356,cs),
(648,586,o),
(530,722,o),
(320,722,cs),
(226,722,o),
(144,694,o),
(79,664,c),
(79,544,l),
(140,567,o),
(213,587,o),
(296,587,cs),
(459,587,o),
(512,517,o),
(512,346,cs),
(512,226,o),
(475,120,o),
(340,120,cs),
(191,120,o),
(172,230,o),
(172,362,c),
(154,297,l),
(548,297,l),
(548,412,l),
(36,412,l),
(36,362,ls),
(36,119,o),
(130,-16,o),
(332,-16,cs)
);
}
);
width = 684;
}
);
metricLeft = "=O";
metricRight = "=O";
unicode = 1240;
},
{
glyphname = "Zhe-cy";
kernRight = X;
lastChange = "2024-10-16 19:48:40 +0000";
layers = (
{
guides = (
{
pos = (243,642);
showMeasurement = 1;
},
{
pos = (243,71);
showMeasurement = 1;
}
);
layerId = m01;
shapes = (
{
closed = 1;
nodes = (
(255,0,l),
(457,368,l),
(274,712,l),
(5,712,l),
(244,296,l),
(240,398,l),
(5,0,l)
);
},
{
closed = 1;
nodes = (
(659,0,l),
(659,712,l),
(429,712,l),
(429,0,l)
);
},
{
closed = 1;
nodes = (
(1112,0,l),
(852,398,l),
(819,296,l),
(1067,712,l),
(815,712,l),
(631,368,l),
(832,0,l)
);
}
);
width = 1121;
},
{
layerId = "257EBA85-25A6-4EFE-A653-BCCD9A912022";
shapes = (
{
closed = 1;
nodes = (
(82,0,l),
(415,371,l),
(83,700,l),
(22,700,l),
(375,351,l),
(379,390,l),
(37,0,l)
);
},
{
closed = 1;
nodes = (
(457,0,l),
(457,700,l),
(415,700,l),
(415,0,l)
);
},
{
closed = 1;
nodes = (
(849,0,l),
(494,394,l),
(494,352,l),
(845,700,l),
(789,700,l),
(457,371,l),
(790,0,l)
);
}
);
width = 874;
},
{
layerId = "6D4AB606-1E4E-4A6F-BC39-70F25E2B516B";
shapes = (
{
closed = 1;
nodes = (
(193,0,l),
(467,369,l),
(191,706,l),
(16,706,l),
(328,323,l),
(338,394,l),
(47,0,l)
);
},
{
closed = 1;
nodes = (
(578,0,l),
(578,706,l),
(433,706,l),
(433,0,l)
);
},
{
closed = 1;
nodes = (
(997,0,l),
(685,396,l),
(657,323,l),
(973,706,l),
(818,706,l),
(542,369,l),
(816,0,l)
);
}
);
width = 1018;
}
);
metricLeft = "=X";
metricRight = X;
unicode = 1046;
},
{
glyphname = "Ze-cy";
lastChange = "2024-10-22 06:06:00 +0000";
layers = (
{
guides = (
{
angle = 270;
pos = (252,770);
showMeasurement = 1;
}
);
layerId = m01;
shapes = (
{
closed = 1;
nodes = (
(419,361,l),
(496,386,o),
(553,431,o),
(553,524,cs),
(553,644,o),
(457,728,o),
(300,728,cs),
(233,728,o),
(123,713,o),
(36,658,c),
(36,493,l),
(90,518,o),
(161,542,o),
(244,542,cs),
(303,542,o),
(333,530,o),
(333,497,cs),
(333,457,o),
(291,456,o),
(208,456,cs),
(112,456,l),
(112,269,l),
(203,269,ls),
(289,269,o),
(352,267,o),
(352,231,cs),
(352,191,o),
(277,175,o),
(216,175,cs),
(126,175,o),
(70,210,o),
(23,241,c),
(23,40,l),
(112,-11,o),
(208,-16,o),
(262,-16,cs),
(514,-16,o),
(587,93,o),
(587,210,cs),
(587,322,o),
(520,360,o),
(419,374,c)
);
}
);
width = 617;
},
{
layerId = "257EBA85-25A6-4EFE-A653-BCCD9A912022";
shapes = (
{
closed = 1;
nodes = (
(342,381,l),
(439,406,o),
(500,474,o),
(500,558,cs),
(500,666,o),
(400,716,o),
(294,716,cs),
(224,716,o),
(143,694,o),
(69,664,c),
(69,622,l),
(140,650,o),
(228,678,o),
(300,678,cs),
(374,678,o),
(458,649,o),
(458,550,cs),
(458,453,o),
(378,403,o),
(221,403,cs),
(147,403,l),
(147,363,l),
(221,363,ls),
(350,363,o),
(509,340,o),
(509,204,cs),
(509,119,o),
(448,24,o),
(269,24,cs),
(169,24,o),
(84,54,o),
(26,91,c),
(26,46,l),
(88,11,o),
(170,-16,o),
(268,-16,cs),
(477,-16,o),
(550,105,o),
(550,209,cs),
(550,322,o),
(463,380,o),
(342,394,c)
);
}
);
width = 555;
},
{
layerId = "6D4AB606-1E4E-4A6F-BC39-70F25E2B516B";
shapes = (
{
closed = 1;
nodes = (
(386,381,l),
(473,406,o),
(523,470,o),
(523,552,cs),
(523,662,o),
(434,722,o),
(317,722,cs),
(233,722,o),
(137,692,o),
(56,650,c),
(56,530,l),
(111,555,o),
(203,588,o),
(286,588,cs),
(342,588,o),
(398,572,o),
(398,514,cs),
(398,455,o),
(337,429,o),
(218,429,cs),
(133,429,l),
(133,321,l),
(216,321,ls),
(318,321,o),
(446,309,o),
(446,224,cs),
(446,170,o),
(396,121,o),
(283,121,cs),
(177,121,o),
(89,154,o),
(29,188,c),
(29,62,l),
(95,19,o),
(201,-16,o),
(309,-16,cs),
(511,-16,o),
(573,105,o),
(573,208,cs),
(573,322,o),
(497,380,o),
(386,394,c)
);
}
);
width = 583;
}
);
metricLeft = "=|C";
metricRight = "=Ve-cy";
unicode = 1047;
},
{
glyphname = "Ii-cy";
lastChange = "2024-10-16 17:38:10 +0000";
layers = (
{
anchors = (
{
name = top;
pos = (375,712);
}
);
layerId = m01;
shapes = (
{
closed = 1;
nodes = (
(256,0,l),
(520,377,l),
(496,384,l),
(496,0,l),
(726,0,l),
(726,712,l),
(506,712,l),
(220,302,l),
(266,295,l),
(266,712,l),
(36,712,l),
(36,0,l)
);
}
);
width = 762;
},
{
anchors = (
{
name = top;
pos = (381,700);
}
);
layerId = "257EBA85-25A6-4EFE-A653-BCCD9A912022";
shapes = (
{
closed = 1;
nodes = (
(144,0,l),
(648,676,l),
(621,685,l),
(621,0,l),
(663,0,l),
(663,700,l),
(618,700,l),
(114,24,l),
(141,15,l),
(141,700,l),
(99,700,l),
(99,0,l)
);
}
);
width = 762;
},
{
anchors = (
{
name = top;
pos = (389,706);
}
);
layerId = "6D4AB606-1E4E-4A6F-BC39-70F25E2B516B";
shapes = (
{
closed = 1;
nodes = (
(223,0,l),
(593,522,l),
(567,530,l),
(567,0,l),
(712,0,l),
(712,706,l),
(561,706,l),
(179,167,l),
(216,159,l),
(216,706,l),
(71,706,l),
(71,0,l)
);
}
);
width = 784;
}
);
metricLeft = "=H";
metricRight = "=H";
unicode = 1048;
},
{
glyphname = "Kadescender-cy";
kernLeft = H;
kernRight = Tse;
lastChange = "2024-10-16 20:03:57 +0000";
layers = (
{
hints = (
{
name = "_corner.de-legLarge";
origin = (0,0);
type = Corner;
}
);
layerId = "257EBA85-25A6-4EFE-A653-BCCD9A912022";
shapes = (
{
closed = 1;
nodes = (
(580,0,l),
(580,38,l),
(184,402,l),
(185,366,l),
(614,700,l),
(551,700,l),
(141,381,l),
(557,0,l)
);
},
{
closed = 1;
nodes = (
(141,0,l),
(141,700,l),
(99,700,l),
(99,0,l)
);
}
);
width = 682;
},
{
hints = (
{
name = "_corner.de-legLarge";
origin = (0,0);
type = Corner;
}
);
layerId = m01;
shapes = (
{
closed = 1;
nodes = (
(611,0,l),
(611,186,l),
(455,475,l),
(460,355,l),
(680,712,l),
(432,712,l),
(249,388,l),
(447,0,l)
);
},
{
closed = 1;
nodes = (
(266,0,l),
(266,712,l),
(36,712,l),
(36,0,l)
);
}
);
width = 735;
},
{
hints = (
{
name = "_corner.de-legLarge";
origin = (0,0);
type = Corner;
}
);
layerId = "6D4AB606-1E4E-4A6F-BC39-70F25E2B516B";
shapes = (
{
closed = 1;
nodes = (
(618,0,l),
(618,115,l),
(295,455,l),
(296,333,l),
(691,706,l),
(516,706,l),
(181,385,l),
(525,0,l)
);
},
{
closed = 1;
nodes = (
(216,0,l),
(216,706,l),
(71,706,l),
(71,0,l)
);
}
);
width = 725;
}
);
metricLeft = "=H";
metricRight = "=Tse-cy";
unicode = 1178;
},
{
glyphname = "El-cy";
lastChange = "2024-10-16 18:20:05 +0000";
layers = (
{
layerId = m01;
shapes = (
{
closed = 1;
nodes = (
(183,0,ls),
(322,0,o),
(407,190,o),
(407,542,c),
(396,524,l),
(508,524,l),
(487,540,l),
(487,0,l),
(717,0,l),
(717,712,l),
(180,712,l),
(180,277,o),
(153,190,o),
(74,190,cs),
(50,190,l),
(50,0,l)
);
}
);
width = 753;
},
{
layerId = "257EBA85-25A6-4EFE-A653-BCCD9A912022";
shapes = (
{
closed = 1;
nodes = (
(48,0,ls),
(142,0,o),
(188,126,o),
(188,666,c),
(187,662,l),
(571,662,l),
(569,664,l),
(569,0,l),
(611,0,l),
(611,700,l),
(146,700,l),
(146,180,o),
(109,40,o),
(42,40,cs),
(26,40,l),
(26,0,l)
);
}
);
width = 710;
},
{
layerId = "6D4AB606-1E4E-4A6F-BC39-70F25E2B516B";
shapes = (
{
closed = 1;
nodes = (
(115,0,ls),
(233,0,o),
(285,120,o),
(290,602,c),
(284,591,l),
(549,591,l),
(537,600,l),
(537,0,l),
(682,0,l),
(682,706,l),
(146,706,l),
(146,230,o),
(109,116,o),
(42,116,cs),
(26,116,l),
(26,0,l)
);
}
);
width = 754;
}
);
metricRight = "=H";
unicode = 1051;
},
{
glyphname = "Endescender-cy";
kernLeft = H;
kernRight = Tse;
lastChange = "2024-10-16 20:05:06 +0000";
layers = (
{
hints = (
{
name = "_corner.de-legLarge";
origin = (0,4);
type = Corner;
}
);
layerId = "257EBA85-25A6-4EFE-A653-BCCD9A912022";
shapes = (
{
closed = 1;
nodes = (
(141,0,l),
(141,374,l),
(617,374,l),
(617,0,l),
(659,0,l),
(659,700,l),
(617,700,l),
(617,412,l),
(141,412,l),
(141,700,l),
(99,700,l),
(99,0,l)
);
}
);
width = 761;
},
{
hints = (
{
name = "_corner.de-legLarge";
origin = (0,4);
type = Corner;
}
);
layerId = m01;
shapes = (
{
closed = 1;
nodes = (
(266,0,l),
(266,284,l),
(456,284,l),
(456,0,l),
(686,0,l),
(686,712,l),
(456,712,l),
(456,472,l),
(266,472,l),
(266,712,l),
(36,712,l),
(36,0,l)
);
}
);
width = 810;
},
{
hints = (
{
name = "_corner.de-legLarge";
origin = (0,4);
type = Corner;
}
);
layerId = "6D4AB606-1E4E-4A6F-BC39-70F25E2B516B";
shapes = (
{
closed = 1;
nodes = (
(216,0,l),
(216,315,l),
(563,315,l),
(563,0,l),
(708,0,l),
(708,706,l),
(563,706,l),
(563,451,l),
(216,451,l),
(216,706,l),
(71,706,l),
(71,0,l)
);
}
);
width = 815;
}
);
metricRight = "=Tse-cy";
unicode = 1186;
},
{
glyphname = "Obarred-cy";
lastChange = "2024-10-16 18:16:43 +0000";
layers = (
{
layerId = "257EBA85-25A6-4EFE-A653-BCCD9A912022";
shapes = (
{
closed = 1;
nodes = (
(546,-16,o),
(657,125,o),
(657,355,cs),
(657,585,o),
(546,715,o),
(350,715,cs),
(154,715,o),
(43,584,o),
(43,355,cs),
(43,125,o),
(154,-16,o),
(350,-16,cs)
);
},
{
closed = 1;
nodes = (
(180,22,o),
(87,144,o),
(87,355,cs),
(87,566,o),
(180,677,o),
(350,677,cs),
(520,677,o),
(613,566,o),
(613,355,cs),
(613,144,o),
(520,22,o),
(350,22,cs)
);
},
{
closed = 1;
nodes = (
(621,337,l),
(621,375,l),
(79,375,l),
(79,337,l)
);
}
);
width = 707;
},
{
layerId = m01;
shapes = (
{
closed = 1;
nodes = (
(618,-16,o),
(749,129,o),
(749,362,cs),
(749,595,o),
(618,728,o),
(389,728,cs),
(160,728,o),
(29,595,o),
(29,362,cs),
(29,129,o),
(160,-16,o),
(389,-16,cs)
);
},
{
closed = 1;
nodes = (
(294,175,o),
(261,265,o),
(261,359,cs),
(261,452,o),
(294,538,o),
(389,538,cs),
(484,538,o),
(517,452,o),
(517,359,cs),
(517,265,o),
(484,175,o),
(389,175,cs)
);
},
{
closed = 1;
nodes = (
(583,261,l),
(583,441,l),
(205,441,l),
(205,261,l)
);
}
);
width = 787;
},
{
layerId = "6D4AB606-1E4E-4A6F-BC39-70F25E2B516B";
shapes = (
{
closed = 1;
nodes = (
(583,-16,o),
(704,127,o),
(704,359,cs),
(704,590,o),
(583,722,o),
(370,722,cs),
(157,722,o),
(36,590,o),
(36,359,cs),
(36,127,o),
(157,-16,o),
(370,-16,cs)
);
},
{
closed = 1;
nodes = (
(242,116,o),
(180,206,o),
(180,357,cs),
(180,507,o),
(242,589,o),
(370,589,cs),
(498,589,o),
(560,507,o),
(560,357,cs),
(560,206,o),
(498,116,o),
(370,116,cs)
);
},
{
closed = 1;
nodes = (
(582,316,l),
(582,396,l),
(163,396,l),
(163,316,l)
);
}
);
width = 748;
}
);
unicode = 1256;
},
{
glyphname = "Pe-cy";
lastChange = "2024-10-16 17:32:44 +0000";
layers = (
{
layerId = m01;
shapes = (
{
closed = 1;
nodes = (
(266,0,l),
(266,524,l),
(462,524,l),
(462,0,l),
(692,0,l),
(692,712,l),
(36,712,l),
(36,0,l)
);
}
);
width = 728;
},
{
layerId = "257EBA85-25A6-4EFE-A653-BCCD9A912022";
shapes = (
{
closed = 1;
nodes = (
(141,0,l),
(141,662,l),
(617,662,l),
(617,0,l),
(659,0,l),
(659,700,l),
(99,700,l),
(99,0,l)
);
}
);
width = 758;
},
{
layerId = "6D4AB606-1E4E-4A6F-BC39-70F25E2B516B";
shapes = (
{
closed = 1;
nodes = (
(216,0,l),
(216,570,l),
(558,570,l),
(558,0,l),
(703,0,l),
(703,706,l),
(71,706,l),
(71,0,l)
);
}
);
width = 775;
}
);
metricLeft = "=H";
metricRight = "=H";
unicode = 1055;
},
{
glyphname = "U-cy";
kernLeft = V;
kernRight = V;
lastChange = "2024-10-16 20:02:25 +0000";
layers = (
{
anchors = (
{
name = top;
pos = (402,712);
}
);
layerId = m01;
shapes = (
{
closed = 1;
nodes = (
(427,0,o),
(446,56,o),
(526,237,cs),
(736,712,l),
(511,712,l),
(322,257,l),
(503,245,l),
(280,712,l),
(10,712,l),
(297,214,l),
(282,185,o),
(164,181,o),
(117,189,c),
(125,0,l)
);
}
);
width = 746;
},
{
anchors = (
{
name = top;
pos = (323,700);
}
);
layerId = "257EBA85-25A6-4EFE-A653-BCCD9A912022";
shapes = (
{
closed = 1;
nodes = (
(252,0,o),
(288,40,o),
(349,161,cs),
(620,700,l),
(577,700,l),
(324,196,l),
(358,194,l),
(66,700,l),
(16,700,l),
(315,182,l),
(270,97,o),
(238,37,o),
(150,37,c),
(150,0,l)
);
}
);
width = 640;
},
{
anchors = (
{
name = top;
pos = (366,706);
}
);
layerId = "6D4AB606-1E4E-4A6F-BC39-70F25E2B516B";
shapes = (
{
closed = 1;
nodes = (
(344,0,o),
(374,55,o),
(442,200,cs),
(682,706,l),
(545,706,l),
(325,227,l),
(435,220,l),
(178,706,l),
(20,706,l),
(308,198,l),
(275,135,o),
(229,103,o),
(135,103,c),
(139,0,l)
);
}
);
width = 707;
}
);
metricLeft = "=Y";
metricRight = "=Y";
unicode = 1059;
},
{
glyphname = "Ustraightstroke-cy";
kernLeft = V;
kernRight = V;
lastChange = "2024-10-22 06:06:04 +0000";
layers = (
{
layerId = "257EBA85-25A6-4EFE-A653-BCCD9A912022";
shapes = (
{
closed = 1;
nodes = (
(309,0,l),
(309,209,l),
(560,700,l),
(517,700,l),
(282,239,l),
(299,239,l),
(63,700,l),
(16,700,l),
(267,209,l),
(267,0,l)
);
},
{
closed = 1;
nodes = (
(447,167,l),
(447,205,l),
(148,205,l),
(148,167,l)
);
}
);
width = 580;
},
{
layerId = m01;
shapes = (
{
closed = 1;
nodes = (
(481,0,l),
(481,199,l),
(722,712,l),
(497,712,l),
(275,130,l),
(475,130,l),
(261,712,l),
(10,712,l),
(251,199,l),
(251,0,l)
);
},
{
closed = 1;
nodes = (
(582,53,l),
(582,233,l),
(149,233,l),
(149,53,l)
);
}
);
width = 732;
},
{
layerId = "6D4AB606-1E4E-4A6F-BC39-70F25E2B516B";
shapes = (
{
closed = 1;
nodes = (
(408,0,l),
(408,194,l),
(651,706,l),
(514,706,l),
(282,173,l),
(398,173,l),
(171,706,l),
(20,706,l),
(263,194,l),
(263,0,l)
);
},
{
closed = 1;
nodes = (
(523,109,l),
(523,219,l),
(155,219,l),
(155,109,l)
);
}
);
width = 676;
}
);
metricLeft = "=Y";
metricRight = "=Y";
unicode = 1200;
},
{
glyphname = "Ef-cy";
kernLeft = O;
kernRight = O;
lastChange = "2024-10-16 19:55:04 +0000";
layers = (
{
layerId = m01;
shapes = (
{
closed = 1;
nodes = (
(682,65,o),
(852,157,o),
(852,380,cs),
(852,589,o),
(682,672,o),
(439,672,cs),
(196,672,o),
(26,589,o),
(26,380,cs),
(26,157,o),
(196,65,o),
(439,65,cs)
);
},
{
closed = 1;
nodes = (
(552,0,l),
(552,712,l),
(322,712,l),
(322,0,l)
);
},
{
closed = 1;
nodes = (
(317,249,o),
(254,283,o),
(254,375,cs),
(254,459,o),
(317,488,o),
(439,488,cs),
(561,488,o),
(624,459,o),
(624,375,cs),
(624,283,o),
(561,249,o),
(439,249,cs)
);
}
);
width = 878;
},
{
layerId = "257EBA85-25A6-4EFE-A653-BCCD9A912022";
shapes = (
{
closed = 1;
nodes = (
(546,77,o),
(657,187,o),
(657,370,cs),
(657,543,o),
(546,645,o),
(350,645,cs),
(154,645,o),
(43,543,o),
(43,370,cs),
(43,187,o),
(154,77,o),
(350,77,cs)
);
},
{
closed = 1;
nodes = (
(373,0,l),
(373,700,l),
(331,700,l),
(331,0,l)
);
},
{
closed = 1;
nodes = (
(180,115,o),
(87,208,o),
(87,370,cs),
(87,521,o),
(180,607,o),
(350,607,cs),
(520,607,o),
(613,521,o),
(613,370,cs),
(613,208,o),
(520,115,o),
(350,115,cs)
);
}
);
width = 700;
},
{
layerId = "6D4AB606-1E4E-4A6F-BC39-70F25E2B516B";
shapes = (
{
closed = 1;
nodes = (
(618,71,o),
(759,172,o),
(759,375,cs),
(759,567,o),
(618,659,o),
(397,659,cs),
(177,659,o),
(36,567,o),
(36,375,cs),
(36,172,o),
(177,71,o),
(397,71,cs)
);
},
{
closed = 1;
nodes = (
(470,0,l),
(470,706,l),
(325,706,l),
(325,0,l)
);
},
{
closed = 1;
nodes = (
(252,184,o),
(175,247,o),
(175,373,cs),
(175,489,o),
(252,546,o),
(397,546,cs),
(543,546,o),
(620,489,o),
(620,373,cs),
(620,247,o),
(543,184,o),
(397,184,cs)
);
}
);
width = 795;
}
);
metricLeft = "=O";
metricRight = "=O";
unicode = 1060;
},
{
glyphname = "Che-cy";
lastChange = "2024-10-16 17:29:30 +0000";
layers = (
{
layerId = m01;
shapes = (
{
closed = 1;
nodes = (
(678,0,l),
(678,712,l),
(448,712,l),
(448,483,ls),
(448,415,o),
(382,400,o),
(355,400,cs),
(329,400,o),
(279,413,o),
(279,520,cs),
(279,712,l),
(49,712,l),
(49,509,ls),
(49,301,o),
(135,205,o),
(283,205,cs),
(345,205,o),
(415,222,o),
(448,288,c),
(448,0,l)
);
}
);
width = 714;
},
{
layerId = "257EBA85-25A6-4EFE-A653-BCCD9A912022";
shapes = (
{
closed = 1;
nodes = (
(565,0,l),
(565,700,l),
(523,700,l),
(523,374,l),
(452,313,o),
(368,282,o),
(291,282,cs),
(176,282,o),
(102,351,o),
(102,464,cs),
(102,700,l),
(60,700,l),
(60,464,ls),
(60,316,o),
(159,244,o),
(282,244,cs),
(353,244,o),
(452,268,o),
(523,336,c),
(523,0,l)
);
}
);
width = 664;
},
{
layerId = "6D4AB606-1E4E-4A6F-BC39-70F25E2B516B";
shapes = (
{
closed = 1;
nodes = (
(629,0,l),
(629,706,l),
(484,706,l),
(484,430,ls),
(450,366,o),
(375,343,o),
(324,343,cs),
(255,343,o),
(193,383,o),
(193,493,cs),
(193,706,l),
(47,706,l),
(47,487,ls),
(47,278,o),
(139,207,o),
(261,207,cs),
(349,207,o),
(433,244,o),
(484,311,c),
(484,0,l)
);
}
);
width = 701;
}
);
metricRight = "=H";
unicode = 1063;
},
{
glyphname = "Tse-cy";
kernLeft = H;
kernRight = Tse;
lastChange = "2024-10-16 20:04:11 +0000";
layers = (
{
hints = (
{
name = "_corner.de-legLarge";
origin = (0,0);
type = Corner;
}
);
layerId = m01;
shapes = (
{
closed = 1;
nodes = (
(702,0,l),
(702,712,l),
(472,712,l),
(472,188,l),
(266,188,l),
(266,712,l),
(36,712,l),
(36,0,l)
);
}
);
width = 826;
},
{
hints = (
{
name = "_corner.de-legLarge";
origin = (0,0);
type = Corner;
}
);
layerId = "257EBA85-25A6-4EFE-A653-BCCD9A912022";
shapes = (
{
closed = 1;
nodes = (
(648,0,l),
(648,700,l),
(606,700,l),
(606,38,l),
(141,38,l),
(141,700,l),
(99,700,l),
(99,0,l)
);
}
);
width = 750;
},
{
hints = (
{
name = "_corner.de-legLarge";
origin = (0,0);
type = Corner;
}
);
layerId = "6D4AB606-1E4E-4A6F-BC39-70F25E2B516B";
shapes = (
{
closed = 1;
nodes = (
(693,0,l),
(693,706,l),
(548,706,l),
(548,136,l),
(216,136,l),
(216,706,l),
(71,706,l),
(71,0,l)
);
}
);
width = 800;
}
);
metricLeft = "=H";
unicode = 1062;
},
{
glyphname = "Sha-cy";
lastChange = "2024-10-16 17:32:07 +0000";
layers = (
{
layerId = m01;
shapes = (
{
closed = 1;
nodes = (
(926,0,l),
(926,712,l),
(696,712,l),
(696,188,l),
(596,188,l),
(596,712,l),
(366,712,l),
(366,188,l),
(266,188,l),
(266,712,l),
(36,712,l),
(36,0,l)
);
}
);
width = 962;
},
{
layerId = "257EBA85-25A6-4EFE-A653-BCCD9A912022";
shapes = (
{
closed = 1;
nodes = (
(819,0,l),
(819,700,l),
(777,700,l),
(777,38,l),
(480,38,l),
(480,700,l),
(438,700,l),
(438,38,l),
(141,38,l),
(141,700,l),
(99,700,l),
(99,0,l)
);
}
);
width = 918;
},
{
layerId = "6D4AB606-1E4E-4A6F-BC39-70F25E2B516B";
shapes = (
{
closed = 1;
nodes = (
(918,0,l),
(918,706,l),
(773,706,l),
(773,136,l),
(567,136,l),
(567,706,l),
(422,706,l),
(422,136,l),
(216,136,l),
(216,706,l),
(71,706,l),
(71,0,l)
);
}
);
width = 990;
}
);
metricLeft = "=H";
metricRight = "=H";
unicode = 1064;
},
{
glyphname = "Shcha-cy";
lastChange = "2024-10-16 17:37:35 +0000";
layers = (
{
hints = (
{
name = "_corner.de-legLarge";
origin = (0,0);
type = Corner;
}
);
layerId = m01;
shapes = (
{
closed = 1;
nodes = (
(926,0,l),
(926,712,l),
(696,712,l),
(696,188,l),
(596,188,l),
(596,712,l),
(366,712,l),
(366,188,l),
(266,188,l),
(266,712,l),
(36,712,l),
(36,0,l)
);
}
);
width = 1050;
},
{
hints = (
{
name = "_corner.de-legLarge";
origin = (0,0);
type = Corner;
}
);
layerId = "257EBA85-25A6-4EFE-A653-BCCD9A912022";
shapes = (
{
closed = 1;
nodes = (
(819,0,l),
(819,700,l),
(777,700,l),
(777,38,l),
(480,38,l),
(480,700,l),
(438,700,l),
(438,38,l),
(141,38,l),
(141,700,l),
(99,700,l),
(99,0,l)
);
}
);
width = 921;
},
{
hints = (
{
name = "_corner.de-legLarge";
origin = (0,0);
type = Corner;
}
);
layerId = "6D4AB606-1E4E-4A6F-BC39-70F25E2B516B";
shapes = (
{
closed = 1;
nodes = (
(918,0,l),
(918,706,l),
(773,706,l),
(773,136,l),
(567,136,l),
(567,706,l),
(422,706,l),
(422,136,l),
(216,136,l),
(216,706,l),
(71,706,l),
(71,0,l)
);
}
);
width = 1025;
}
);
metricLeft = "=H";
metricRight = "=Tse-cy";
unicode = 1065;
},
{
glyphname = "Hardsign-cy";
lastChange = "2024-10-16 17:36:49 +0000";
layers = (
{
layerId = m01;
shapes = (
{
closed = 1;
nodes = (
(270,524,l),
(270,712,l),
(5,712,l),
(5,524,l)
);
},
{
closed = 1;
nodes = (
(437,0,ls),
(615,0,o),
(695,62,o),
(695,256,cs),
(695,387,o),
(632,464,o),
(491,464,cs),
(366,464,l),
(366,712,l),
(136,712,l),
(136,0,l)
);
},
{
closed = 1;
nodes = (
(366,286,l),
(406,286,ls),
(437,286,o),
(464,277,o),
(464,236,cs),
(464,191,o),
(431,178,o),
(401,178,cs),
(366,178,l)
);
}
);
width = 730;
},
{
layerId = "257EBA85-25A6-4EFE-A653-BCCD9A912022";
shapes = (
{
closed = 1;
nodes = (
(270,662,l),
(270,700,l),
(5,700,l),
(5,662,l)
);
},
{
closed = 1;
nodes = (
(435,0,l),
(599,0,o),
(689,45,o),
(689,201,cs),
(689,349,o),
(607,409,o),
(452,409,cs),
(270,409,l),
(270,700,l),
(228,700,l),
(228,0,l)
);
},
{
closed = 1;
nodes = (
(270,371,l),
(478,371,ls),
(580,371,o),
(645,323,o),
(645,198,cs),
(645,67,o),
(552,38,o),
(463,38,cs),
(270,38,l)
);
}
);
width = 699;
},
{
layerId = "6D4AB606-1E4E-4A6F-BC39-70F25E2B516B";
shapes = (
{
closed = 1;
nodes = (
(270,591,l),
(270,706,l),
(5,706,l),
(5,591,l)
);
},
{
closed = 1;
nodes = (
(457,0,ls),
(618,0,o),
(711,44,o),
(711,208,cs),
(711,364,o),
(631,430,o),
(483,430,cs),
(330,430,l),
(330,706,l),
(185,706,l),
(185,0,l)
);
},
{
closed = 1;
nodes = (
(330,331,l),
(452,331,ls),
(517,331,o),
(561,297,o),
(561,211,cs),
(561,119,o),
(501,99,o),
(442,99,cs),
(330,99,l)
);
}
);
width = 726;
}
);
metricRight = "=Softsign-cy";
unicode = 1066;
},
{
glyphname = "Yeru-cy";
lastChange = "2024-10-16 17:31:31 +0000";
layers = (
{
layerId = m01;
shapes = (
{
closed = 1;
nodes = (
(337,0,ls),
(515,0,o),
(595,62,o),
(595,256,cs),
(595,387,o),
(532,464,o),
(391,464,cs),
(266,464,l),
(266,712,l),
(36,712,l),
(36,0,l)
);
},
{
closed = 1;
nodes = (
(266,286,l),
(306,286,ls),
(337,286,o),
(364,277,o),
(364,236,cs),
(364,191,o),
(331,178,o),
(301,178,cs),
(266,178,l)
);
},
{
closed = 1;
nodes = (
(883,0,l),
(883,712,l),
(653,712,l),
(653,0,l)
);
}
);
width = 919;
},
{
layerId = "257EBA85-25A6-4EFE-A653-BCCD9A912022";
shapes = (
{
closed = 1;
nodes = (
(306,0,l),
(470,0,o),
(560,45,o),
(560,201,cs),
(560,349,o),
(478,409,o),
(323,409,cs),
(141,409,l),
(141,700,l),
(99,700,l),
(99,0,l)
);
},
{
closed = 1;
nodes = (
(141,371,l),
(349,371,ls),
(451,371,o),
(516,323,o),
(516,198,cs),
(516,67,o),
(423,38,o),
(334,38,cs),
(141,38,l)
);
},
{
closed = 1;
nodes = (
(694,0,l),
(694,700,l),
(652,700,l),
(652,0,l)
);
}
);
width = 793;
},
{
layerId = "6D4AB606-1E4E-4A6F-BC39-70F25E2B516B";
shapes = (
{
closed = 1;
nodes = (
(339,0,ls),
(500,0,o),
(593,44,o),
(593,208,cs),
(593,364,o),
(513,430,o),
(365,430,cs),
(216,430,l),
(216,706,l),
(71,706,l),
(71,0,l)
);
},
{
closed = 1;
nodes = (
(216,331,l),
(334,331,ls),
(400,331,o),
(443,297,o),
(443,211,cs),
(443,119,o),
(383,99,o),
(324,99,cs),
(216,99,l)
);
},
{
closed = 1;
nodes = (
(802,0,l),
(802,706,l),
(657,706,l),
(657,0,l)
);
}
);
width = 874;
}
);
metricLeft = "=H";
metricRight = "=H";
unicode = 1067;
},
{
glyphname = "Softsign-cy";
lastChange = "2024-10-16 17:28:07 +0000";
layers = (
{
layerId = m01;
shapes = (
{
closed = 1;
nodes = (
(337,0,ls),
(515,0,o),
(595,62,o),
(595,256,cs),
(595,387,o),
(532,464,o),
(391,464,cs),
(266,464,l),
(266,712,l),
(36,712,l),
(36,0,l)
);
},
{
closed = 1;
nodes = (
(266,286,l),
(306,286,ls),
(337,286,o),
(364,277,o),
(364,236,cs),
(364,191,o),
(331,178,o),
(301,178,cs),
(266,178,l)
);
}
);
width = 630;
},
{
layerId = "257EBA85-25A6-4EFE-A653-BCCD9A912022";
shapes = (
{
closed = 1;
nodes = (
(306,0,l),
(470,0,o),
(560,45,o),
(560,201,cs),
(560,349,o),
(478,409,o),
(323,409,cs),
(141,409,l),
(141,700,l),
(99,700,l),
(99,0,l)
);
},
{
closed = 1;
nodes = (
(141,371,l),
(349,371,ls),
(451,371,o),
(516,323,o),
(516,198,cs),
(516,67,o),
(423,38,o),
(334,38,cs),
(141,38,l)
);
}
);
width = 570;
},
{
layerId = "6D4AB606-1E4E-4A6F-BC39-70F25E2B516B";
shapes = (
{
closed = 1;
nodes = (
(343,0,ls),
(504,0,o),
(597,44,o),
(597,208,cs),
(597,364,o),
(517,430,o),
(369,430,cs),
(216,430,l),
(216,706,l),
(71,706,l),
(71,0,l)
);
},
{
closed = 1;
nodes = (
(216,331,l),
(338,331,ls),
(403,331,o),
(447,297,o),
(447,211,cs),
(447,119,o),
(386,99,o),
(328,99,cs),
(216,99,l)
);
}
);
width = 612;
}
);
metricLeft = "=H";
unicode = 1068;
},
{
glyphname = "Ereversed-cy";
lastChange = "2024-10-16 17:23:58 +0000";
layers = (
{
guides = (
{
angle = 270;
pos = (254,829);
showMeasurement = 1;
}
);
layerId = m01;
shapes = (
{
closed = 1;
nodes = (
(498,-16,o),
(627,174,o),
(627,375,cs),
(627,569,o),
(494,728,o),
(296,728,cs),
(203,728,o),
(105,693,o),
(41,662,c),
(41,495,l),
(87,518,o),
(170,543,o),
(235,543,cs),
(338,543,o),
(395,503,o),
(395,368,cs),
(395,212,o),
(312,172,o),
(205,172,cs),
(127,172,o),
(64,214,o),
(23,242,c),
(23,39,l),
(76,8,o),
(150,-16,o),
(235,-16,cs)
);
},
{
closed = 1;
nodes = (
(447,269,l),
(447,457,l),
(97,457,l),
(97,269,l)
);
}
);
width = 653;
},
{
layerId = "257EBA85-25A6-4EFE-A653-BCCD9A912022";
shapes = (
{
closed = 1;
nodes = (
(471,-16,o),
(595,146,o),
(595,364,cs),
(595,574,o),
(479,716,o),
(274,716,cs),
(193,716,o),
(122,694,o),
(48,664,c),
(48,625,l),
(120,653,o),
(197,678,o),
(276,678,cs),
(444,678,o),
(551,566,o),
(551,360,cs),
(551,164,o),
(455,22,o),
(282,22,cs),
(183,22,o),
(82,69,o),
(26,104,c),
(26,58,l),
(78,27,o),
(182,-16,o),
(280,-16,cs)
);
},
{
closed = 1;
nodes = (
(569,357,l),
(569,395,l),
(99,395,l),
(99,357,l)
);
}
);
width = 638;
},
{
layerId = "6D4AB606-1E4E-4A6F-BC39-70F25E2B516B";
shapes = (
{
closed = 1;
nodes = (
(477,-16,o),
(602,148,o),
(602,368,cs),
(602,579,o),
(486,722,o),
(286,722,cs),
(197,722,o),
(117,693,o),
(49,663,c),
(49,538,l),
(107,563,o),
(167,581,o),
(240,581,cs),
(369,581,o),
(463,517,o),
(463,362,cs),
(463,205,o),
(363,128,o),
(244,128,cs),
(154,128,o),
(77,163,o),
(29,195,c),
(29,59,l),
(81,28,o),
(186,-16,o),
(285,-16,cs)
);
},
{
closed = 1;
nodes = (
(498,315,l),
(498,422,l),
(102,420,l),
(102,315,l)
);
}
);
width = 638;
}
);
metricLeft = "=|C";
metricRight = "=O";
unicode = 1069;
},
{
glyphname = "Yu-cy";
lastChange = "2024-10-16 17:33:36 +0000";
layers = (
{
layerId = m01;
shapes = (
{
closed = 1;
nodes = (
(917,-16,o),
(1048,129,o),
(1048,370,cs),
(1048,595,o),
(917,728,o),
(688,728,cs),
(459,728,o),
(328,595,o),
(328,370,cs),
(328,129,o),
(459,-16,o),
(688,-16,cs)
);
},
{
closed = 1;
nodes = (
(266,0,l),
(266,712,l),
(36,712,l),
(36,0,l)
);
},
{
closed = 1;
nodes = (
(441,267,l),
(441,455,l),
(101,455,l),
(101,267,l)
);
},
{
closed = 1;
nodes = (
(595,174,o),
(560,265,o),
(560,362,cs),
(560,452,o),
(595,538,o),
(688,538,cs),
(781,538,o),
(816,452,o),
(816,362,cs),
(816,265,o),
(781,174,o),
(688,174,cs)
);
}
);
width = 1074;
},
{
layerId = "257EBA85-25A6-4EFE-A653-BCCD9A912022";
shapes = (
{
closed = 1;
nodes = (
(795,-16,o),
(907,126,o),
(907,363,c),
(907,584,o),
(795,715,o),
(600,715,c),
(405,715,o),
(293,584,o),
(293,363,c),
(293,126,o),
(405,-16,o),
(600,-16,c)
);
},
{
closed = 1;
nodes = (
(141,0,l),
(141,700,l),
(99,700,l),
(99,0,l)
);
},
{
closed = 1;
nodes = (
(308,342,l),
(308,380,l),
(122,380,l),
(122,342,l)
);
},
{
closed = 1;
nodes = (
(431,22,o),
(337,144,o),
(337,363,c),
(337,566,o),
(431,677,o),
(600,677,c),
(769,677,o),
(863,566,o),
(863,363,c),
(863,144,o),
(769,22,o),
(600,22,c)
);
}
);
width = 950;
},
{
layerId = "6D4AB606-1E4E-4A6F-BC39-70F25E2B516B";
shapes = (
{
closed = 1;
nodes = (
(869,-16,o),
(990,128,o),
(990,367,cs),
(990,590,o),
(869,722,o),
(656,722,cs),
(444,722,o),
(322,590,o),
(322,367,cs),
(322,128,o),
(444,-16,o),
(656,-16,cs)
);
},
{
closed = 1;
nodes = (
(216,0,l),
(216,706,l),
(71,706,l),
(71,0,l)
);
},
{
closed = 1;
nodes = (
(387,303,l),
(387,419,l),
(122,419,l),
(122,303,l)
);
},
{
closed = 1;
nodes = (
(537,120,o),
(469,206,o),
(469,362,cs),
(469,507,o),
(537,586,o),
(656,586,cs),
(776,586,o),
(843,507,o),
(843,362,cs),
(843,206,o),
(776,120,o),
(656,120,cs)
);
}
);
width = 1026;
}
);
metricLeft = "=H";
metricRight = "=O";
unicode = 1070;
},
{
glyphname = "Ya-cy";
lastChange = "2024-10-16 17:48:51 +0000";
layers = (
{
layerId = m01;
shapes = (
{
closed = 1;
nodes = (
(623,0,l),
(623,712,l),
(309,712,ls),
(172,712,o),
(57,659,o),
(57,469,cs),
(57,315,o),
(133,211,o),
(289,211,cs),
(393,211,l),
(393,0,l)
);
},
{
closed = 1;
nodes = (
(285,0,l),
(423,268,l),
(172,268,l),
(13,0,l)
);
},
{
closed = 1;
nodes = (
(313,395,o),
(289,420,o),
(289,464,cs),
(289,512,o),
(317,524,o),
(347,524,cs),
(393,524,l),
(393,395,l),
(350,395,ls)
);
}
);
width = 659;
},
{
layerId = "257EBA85-25A6-4EFE-A653-BCCD9A912022";
shapes = (
{
closed = 1;
nodes = (
(612,0,l),
(612,700,l),
(336,700,ls),
(201,700,o),
(102,634,o),
(102,502,cs),
(102,369,o),
(201,313,o),
(345,313,cs),
(570,313,l),
(570,0,l)
);
},
{
closed = 1;
nodes = (
(77,0,l),
(381,318,l),
(327,318,l),
(15,0,l)
);
},
{
closed = 1;
nodes = (
(221,351,o),
(146,391,o),
(146,499,cs),
(146,608,o),
(223,662,o),
(335,662,cs),
(570,662,l),
(570,351,l),
(342,351,ls)
);
}
);
width = 711;
},
{
layerId = "6D4AB606-1E4E-4A6F-BC39-70F25E2B516B";
shapes = (
{
closed = 1;
nodes = (
(624,0,l),
(624,706,l),
(322,706,ls),
(186,706,o),
(72,638,o),
(72,478,cs),
(72,332,o),
(166,260,o),
(316,260,cs),
(479,260,l),
(479,0,l)
);
},
{
closed = 1;
nodes = (
(184,0,l),
(403,292,l),
(247,292,l),
(14,0,l)
);
},
{
closed = 1;
nodes = (
(268,369,o),
(220,406,o),
(220,481,cs),
(220,559,o),
(271,598,o),
(341,598,cs),
(479,598,l),
(479,369,l),
(346,369,ls)
);
}
);
width = 696;
}
);
metricLeft = "=|R";
metricRight = "=H";
unicode = 1071;
},
{
glyphname = "be-cy";
kernLeft = o;
kernRight = b;
lastChange = "2024-10-16 20:01:16 +0000";
layers = (
{
background = {
shapes = (
{
pos = (12,0);
ref = o;
}
);
};
layerId = m01;
shapes = (
{
closed = 1;
nodes = (
(445,-16,o),
(564,88,o),
(564,259,cs),
(564,420,o),
(458,508,o),
(332,508,cs),
(196,508,o),
(121,375,o),
(121,279,c),
(145,300,l),
(145,460,o),
(181,544,o),
(290,544,cs),
(338,544,o),
(386,532,o),
(421,532,cs),
(472,532,o),
(515,558,o),
(537,591,c),
(537,744,l),
(520,733,o),
(468,720,o),
(420,720,cs),
(378,720,o),
(321,730,o),
(275,730,cs),
(59,730,o),
(11,512,o),
(11,370,cs),
(11,38,o),
(166,-16,o),
(294,-16,cs)
);
},
{
closed = 1;
nodes = (
(264,188,o),
(248,213,o),
(248,255,cs),
(248,301,o),
(267,324,o),
(297,324,cs),
(327,324,o),
(340,301,o),
(340,259,cs),
(340,213,o),
(324,188,o),
(294,188,cs)
);
}
);
width = 575;
},
{
layerId = "257EBA85-25A6-4EFE-A653-BCCD9A912022";
shapes = (
{
closed = 1;
nodes = (
(421,-16,o),
(502,88,o),
(502,260,cs),
(502,420,o),
(432,516,o),
(293,516,cs),
(195,516,o),
(107,469,o),
(67,313,c),
(80,296,l),
(91,497,o),
(113,646,o),
(277,672,cs),
(325,680,o),
(372,687,o),
(420,695,cs),
(458,701,o),
(476,707,o),
(494,717,c),
(494,756,l),
(480,750,o),
(458,741,o),
(421,735,cs),
(372,727,o),
(323,718,o),
(274,710,cs),
(67,675,o),
(54,500,o),
(54,267,cs),
(54,78,o),
(135,-16,o),
(273,-16,cs)
);
},
{
closed = 1;
nodes = (
(161,22,o),
(96,106,o),
(96,249,cs),
(96,401,o),
(170,478,o),
(289,478,cs),
(408,478,o),
(460,401,o),
(460,262,cs),
(460,106,o),
(395,22,o),
(278,22,cs)
);
}
);
width = 556;
},
{
layerId = "6D4AB606-1E4E-4A6F-BC39-70F25E2B516B";
shapes = (
{
closed = 1;
nodes = (
(433,-16,o),
(534,88,o),
(534,259,cs),
(534,420,o),
(445,512,o),
(320,512,cs),
(196,512,o),
(114,421,o),
(95,295,c),
(113,298,l),
(119,478,o),
(148,593,o),
(295,607,cs),
(332,610,o),
(379,607,o),
(415,610,cs),
(465,614,o),
(496,630,o),
(516,652,c),
(516,750,l),
(500,741,o),
(463,730,o),
(414,726,cs),
(375,723,o),
(322,724,o),
(285,721,cs),
(63,703,o),
(32,506,o),
(32,354,cs),
(32,57,o),
(151,-16,o),
(280,-16,cs)
);
},
{
closed = 1;
nodes = (
(216,107,o),
(173,161,o),
(173,252,cs),
(173,350,o),
(222,389,o),
(289,389,cs),
(366,389,o),
(399,340,o),
(399,255,cs),
(399,161,o),
(358,107,o),
(286,107,cs)
);
}
);
width = 566;
}
);
metricLeft = "=o";
metricRight = "=o";
unicode = 1073;
},
{
glyphname = "ve-cy";
lastChange = "2024-10-14 12:08:38 +0000";
layers = (
{
layerId = m01;
shapes = (
{
closed = 1;
nodes = (
(369,0,ls),
(466,0,o),
(544,44,o),
(544,152,cs),
(544,235,o),
(499,273,o),
(425,288,c),
(499,311,o),
(520,356,o),
(520,401,cs),
(520,465,o),
(465,512,o),
(375,512,cs),
(18,512,l),
(18,0,l)
);
},
{
closed = 1;
nodes = (
(238,312,l),
(212,232,l),
(254,232,ls),
(290,232,o),
(327,222,o),
(327,173,cs),
(327,111,o),
(281,105,o),
(244,105,cs),
(212,105,l),
(238,13,l)
);
},
{
closed = 1;
nodes = (
(238,498,l),
(212,407,l),
(248,407,ls),
(281,407,o),
(309,401,o),
(309,375,cs),
(309,337,o),
(273,337,o),
(248,337,cs),
(212,337,l),
(238,264,l)
);
}
);
width = 554;
},
{
layerId = "257EBA85-25A6-4EFE-A653-BCCD9A912022";
shapes = (
{
closed = 1;
nodes = (
(307,0,ls),
(402,0,o),
(480,43,o),
(480,149,cs),
(480,230,o),
(435,263,o),
(381,281,c),
(428,304,o),
(457,348,o),
(457,392,cs),
(457,454,o),
(401,500,o),
(313,500,cs),
(90,500,l),
(90,0,l)
);
},
{
closed = 1;
nodes = (
(130,287,l),
(105,262,l),
(318,260,ls),
(384,259,o),
(439,235,o),
(439,153,cs),
(439,62,o),
(372,38,o),
(308,38,cs),
(105,38,l),
(130,13,l)
);
},
{
closed = 1;
nodes = (
(130,487,l),
(105,462,l),
(312,462,ls),
(378,462,o),
(416,430,o),
(416,385,cs),
(416,340,o),
(377,296,o),
(313,296,cs),
(105,296,l),
(130,271,l)
);
}
);
width = 534;
},
{
layerId = "6D4AB606-1E4E-4A6F-BC39-70F25E2B516B";
shapes = (
{
closed = 1;
nodes = (
(339,0,ls),
(435,0,o),
(513,44,o),
(513,158,cs),
(513,227,o),
(474,261,o),
(404,273,c),
(474,290,o),
(489,352,o),
(489,389,cs),
(489,460,o),
(434,506,o),
(345,506,cs),
(53,506,l),
(53,0,l)
);
},
{
closed = 1;
nodes = (
(186,300,l),
(160,222,l),
(285,222,ls),
(336,222,o),
(381,222,o),
(381,164,cs),
(381,99,o),
(325,95,o),
(275,95,cs),
(160,95,l),
(186,13,l)
);
},
{
closed = 1;
nodes = (
(186,493,l),
(160,411,l),
(279,411,ls),
(328,411,o),
(355,403,o),
(355,365,cs),
(355,323,o),
(323,317,o),
(280,317,cs),
(160,317,l),
(186,267,l)
);
}
);
width = 544;
}
);
metricLeft = "=n";
unicode = 1074;
},
{
glyphname = "ge-cy";
lastChange = "2024-10-14 12:08:38 +0000";
layers = (
{
layerId = m01;
shapes = (
{
closed = 1;
nodes = (
(238,0,l),
(238,512,l),
(18,512,l),
(18,0,l)
);
},
{
closed = 1;
nodes = (
(428,324,l),
(428,512,l),
(153,512,l),
(153,324,l)
);
}
);
width = 440;
},
{
layerId = "257EBA85-25A6-4EFE-A653-BCCD9A912022";
shapes = (
{
closed = 1;
nodes = (
(130,0,l),
(130,500,l),
(90,500,l),
(90,0,l)
);
},
{
closed = 1;
nodes = (
(420,462,l),
(420,500,l),
(125,500,l),
(125,462,l)
);
}
);
width = 430;
},
{
layerId = "6D4AB606-1E4E-4A6F-BC39-70F25E2B516B";
shapes = (
{
closed = 1;
nodes = (
(186,0,l),
(186,506,l),
(53,506,l),
(53,0,l)
);
},
{
closed = 1;
nodes = (
(424,391,l),
(424,506,l),
(139,506,l),
(139,391,l)
);
}
);
width = 435;
}
);
metricLeft = "=n";
unicode = 1075;
},
{
glyphname = "gestroke-cy";
lastChange = "2024-10-14 12:08:38 +0000";
layers = (
{
layerId = "257EBA85-25A6-4EFE-A653-BCCD9A912022";
shapes = (
{
closed = 1;
nodes = (
(141,0,l),
(141,500,l),
(101,500,l),
(101,0,l)
);
},
{
closed = 1;
nodes = (
(308,233,l),
(308,267,l),
(30,267,l),
(30,233,l)
);
},
{
closed = 1;
nodes = (
(431,462,l),
(431,500,l),
(136,500,l),
(136,462,l)
);
}
);
width = 441;
},
{
layerId = m01;
shapes = (
{
closed = 1;
nodes = (
(295,0,l),
(295,512,l),
(75,512,l),
(75,0,l)
);
},
{
closed = 1;
nodes = (
(414,109,l),
(414,277,l),
(16,277,l),
(16,109,l)
);
},
{
closed = 1;
nodes = (
(485,324,l),
(485,512,l),
(210,512,l),
(210,324,l)
);
}
);
width = 497;
},
{
layerId = "6D4AB606-1E4E-4A6F-BC39-70F25E2B516B";
shapes = (
{
closed = 1;
nodes = (
(216,0,l),
(216,506,l),
(83,506,l),
(83,0,l)
);
},
{
closed = 1;
nodes = (
(358,169,l),
(358,272,l),
(18,272,l),
(18,169,l)
);
},
{
closed = 1;
nodes = (
(454,391,l),
(454,506,l),
(169,506,l),
(169,391,l)
);
}
);
width = 465;
}
);
metricLeft = "=t";
metricRight = "=ge-cy";
unicode = 1171;
},
{
glyphname = "geupturn-cy";
lastChange = "2024-10-22 06:11:26 +0000";
layers = (
{
layerId = "257EBA85-25A6-4EFE-A653-BCCD9A912022";
shapes = (
{
closed = 1;
nodes = (
(420,589,l),
(380,589,l),
(380,500,l),
(90,500,l),
(90,0,l),
(130,0,l),
(130,462,l),
(420,462,l)
);
}
);
width = 430;
},
{
layerId = m01;
shapes = (
{
closed = 1;
nodes = (
(454,608,l),
(234,608,l),
(234,512,l),
(18,512,l),
(18,0,l),
(238,0,l),
(238,324,l),
(454,324,l)
);
}
);
width = 464;
},
{
layerId = "6D4AB606-1E4E-4A6F-BC39-70F25E2B516B";
shapes = (
{
closed = 1;
nodes = (
(438,599,l),
(305,599,l),
(305,506,l),
(53,506,l),
(53,0,l),
(186,0,l),
(186,391,l),
(438,391,l)
);
}
);
width = 454;
}
);
metricLeft = "=n";
metricRight = "=r";
unicode = 1169;
},
{
glyphname = "de-cy";
kernRight = tse;
lastChange = "2024-10-16 19:51:54 +0000";
layers = (
{
guides = (
{
angle = 270;
pos = (19,74);
}
);
hints = (
{
name = "_corner.de-leg";
options = 1;
origin = (0,0);
type = Corner;
},
{
name = "_corner.de-leg";
options = 1;
origin = (0,7);
scale = (-1,1);
type = Corner;
}
);
layerId = m01;
shapes = (
{
closed = 1;
nodes = (
(580,0,l),
(580,512,l),
(149,512,l),
(149,372,o),
(126,218,o),
(85,148,c),
(90,148,l),
(90,0,l)
);
},
{
closed = 1;
nodes = (
(304,219,o),
(316,291,o),
(316,364,c),
(360,364,l),
(360,148,l),
(284,148,l)
);
}
);
width = 670;
},
{
hints = (
{
name = "_corner.de-leg";
origin = (0,0);
type = Corner;
},
{
name = "_corner.de-leg";
options = 1;
origin = (0,7);
scale = (-1,1);
type = Corner;
}
);
layerId = "257EBA85-25A6-4EFE-A653-BCCD9A912022";
shapes = (
{
closed = 1;
nodes = (
(458,0,l),
(458,500,l),
(161,500,l),
(157,320,o),
(152,189,o),
(76,38,c),
(90,38,l),
(90,0,l)
);
},
{
closed = 1;
nodes = (
(186,177,o),
(195,323,o),
(198,462,c),
(418,462,l),
(418,38,l),
(119,38,l)
);
}
);
width = 548;
},
{
hints = (
{
name = "_corner.de-leg";
origin = (0,0);
type = Corner;
},
{
name = "_corner.de-leg";
options = 1;
origin = (0,7);
scale = (-1,1);
type = Corner;
}
);
layerId = "6D4AB606-1E4E-4A6F-BC39-70F25E2B516B";
shapes = (
{
closed = 1;
nodes = (
(521,0,l),
(521,506,l),
(155,506,l),
(153,347,o),
(139,224,o),
(81,115,c),
(90,115,l),
(90,0,l)
);
},
{
closed = 1;
nodes = (
(247,219,o),
(257,286,o),
(259,391,c),
(388,391,l),
(388,115,l),
(204,115,l)
);
}
);
width = 611;
}
);
metricLeft = "=|tse-cy";
metricRight = "=tse-cy";
unicode = 1076;
},
{
glyphname = "schwa-cy";
lastChange = "2024-10-14 12:08:38 +0000";
layers = (
{
layerId = "257EBA85-25A6-4EFE-A653-BCCD9A912022";
shapes = (
{
closed = 1;
nodes = (
(54,272,l),
(54,260,ls),
(54,88,o),
(125,-16,o),
(268,-16,cs),
(411,-16,o),
(492,88,o),
(492,260,cs),
(492,420,o),
(409,516,o),
(265,516,cs),
(202,516,o),
(139,500,o),
(77,461,c),
(77,426,l),
(136,462,o),
(213,478,o),
(268,478,cs),
(386,478,o),
(450,401,o),
(450,260,cs),
(450,106,o),
(385,22,o),
(268,22,cs),
(155,22,o),
(100,100,o),
(96,243,c),
(87,234,l),
(466,234,l),
(466,272,l)
);
}
);
width = 546;
},
{
layerId = m01;
shapes = (
{
closed = 1;
nodes = (
(11,314,l),
(11,250,ls),
(11,78,o),
(89,-16,o),
(257,-16,cs),
(433,-16,o),
(541,88,o),
(541,263,cs),
(541,474,o),
(384,528,o),
(241,528,cs),
(163,528,o),
(102,512,o),
(24,479,c),
(24,359,l),
(102,373,o),
(184,376,o),
(207,376,cs),
(308,376,o),
(317,319,o),
(317,254,cs),
(317,158,o),
(297,134,o),
(255,134,cs),
(221,134,o),
(202,149,o),
(196,203,c),
(189,195,l),
(357,195,l),
(357,314,l)
);
}
);
width = 552;
},
{
layerId = "6D4AB606-1E4E-4A6F-BC39-70F25E2B516B";
shapes = (
{
closed = 1;
nodes = (
(32,294,l),
(32,255,ls),
(32,83,o),
(106,-16,o),
(262,-16,cs),
(422,-16,o),
(517,88,o),
(517,262,cs),
(517,448,o),
(396,522,o),
(253,522,cs),
(182,522,o),
(120,506,o),
(50,470,c),
(50,375,l),
(123,400,o),
(198,408,o),
(237,408,cs),
(346,408,o),
(382,359,o),
(382,257,cs),
(382,145,o),
(340,99,o),
(268,99,cs),
(203,99,o),
(167,144,o),
(167,222,c),
(160,200,l),
(410,200,l),
(410,294,l)
);
}
);
width = 549;
}
);
metricLeft = "=o";
metricRight = "=o";
unicode = 1241;
},
{
glyphname = "zhe-cy";
kernLeft = x;
kernRight = x;
lastChange = "2024-10-16 19:54:47 +0000";
layers = (
{
layerId = m01;
shapes = (
{
closed = 1;
nodes = (
(844,0,l),
(664,294,l),
(664,237,l),
(839,512,l),
(623,512,l),
(489,225,l),
(492,308,l),
(606,0,l)
);
},
{
closed = 1;
nodes = (
(250,0,l),
(364,308,l),
(367,225,l),
(233,512,l),
(17,512,l),
(192,237,l),
(192,294,l),
(12,0,l)
);
},
{
closed = 1;
nodes = (
(538,0,l),
(538,512,l),
(318,512,l),
(318,0,l)
);
}
);
width = 856;
},
{
layerId = "257EBA85-25A6-4EFE-A653-BCCD9A912022";
shapes = (
{
closed = 1;
nodes = (
(670,0,l),
(404,284,l),
(409,275,l),
(650,500,l),
(597,500,l),
(330,245,l),
(333,309,l),
(615,0,l)
);
},
{
closed = 1;
nodes = (
(71,0,l),
(353,309,l),
(356,245,l),
(89,500,l),
(36,500,l),
(277,275,l),
(282,284,l),
(16,0,l)
);
},
{
closed = 1;
nodes = (
(363,0,l),
(363,500,l),
(323,500,l),
(323,0,l)
);
}
);
width = 686;
},
{
associatedMasterId = "257EBA85-25A6-4EFE-A653-BCCD9A912022";
layerId = "6FE6289F-B52F-419D-829E-8FF45703454B";
name = "9 Jan 24 at 22:53";
shapes = (
{
closed = 1;
nodes = (
(620,0,l),
(380,273,l),
(380,263,l),
(600,500,l),
(547,500,l),
(339,267,l),
(568,0,l)
);
},
{
closed = 1;
nodes = (
(62,0,l),
(291,267,l),
(81,500,l),
(24,500,l),
(246,260,l),
(246,270,l),
(10,0,l)
);
},
{
closed = 1;
nodes = (
(335,0,l),
(335,500,l),
(295,500,l),
(295,0,l)
);
}
);
width = 630;
},
{
associatedMasterId = "257EBA85-25A6-4EFE-A653-BCCD9A912022";
layerId = "1CF4FB5E-5711-4520-A76D-0DBDA9A1A440";
name = "кривой";
shapes = (
{
closed = 1;
nodes = (
(620,0,l),
(549,91,o),
(470,182,o),
(380,273,c),
(380,263,l),
(459,342,o),
(532,421,o),
(600,500,c),
(547,500,l),
(483,422,o),
(414,345,o),
(339,267,c),
(425,178,o),
(501,89,o),
(568,0,c)
);
},
{
closed = 1;
nodes = (
(62,0,l),
(130,89,o),
(205,178,o),
(291,267,c),
(216,345,o),
(146,422,o),
(81,500,c),
(24,500,l),
(93,420,o),
(168,340,o),
(247,260,c),
(247,270,l),
(158,180,o),
(81,90,o),
(10,0,c)
);
},
{
closed = 1;
nodes = (
(335,0,l),
(335,500,l),
(295,500,l),
(295,0,l)
);
}
);
width = 630;
},
{
layerId = "6D4AB606-1E4E-4A6F-BC39-70F25E2B516B";
shapes = (
{
closed = 1;
nodes = (
(762,0,l),
(558,309,l),
(567,251,l),
(749,506,l),
(597,506,l),
(402,235,l),
(412,289,l),
(603,0,l)
);
},
{
closed = 1;
nodes = (
(181,0,l),
(375,301,l),
(369,247,l),
(181,506,l),
(15,506,l),
(221,226,l),
(216,285,l),
(34,0,l)
);
},
{
closed = 1;
nodes = (
(455,0,l),
(455,506,l),
(322,506,l),
(322,0,l)
);
}
);
width = 777;
}
);
metricLeft = "=|";
metricRight = "=k";
unicode = 1078;
},
{
glyphname = "ze-cy";
kernLeft = n;
kernRight = o;
lastChange = "2024-10-16 19:58:52 +0000";
layers = (
{
layerId = m01;
shapes = (
{
closed = 1;
nodes = (
(397,-16,o),
(461,74,o),
(461,163,cs),
(461,257,o),
(390,294,o),
(254,294,c),
(254,270,l),
(391,270,o),
(436,318,o),
(436,391,cs),
(436,497,o),
(342,528,o),
(256,528,cs),
(186,528,o),
(97,508,o),
(25,481,c),
(25,359,l),
(85,369,o),
(119,373,o),
(162,373,cs),
(192,373,o),
(233,371,o),
(233,349,cs),
(233,332,o),
(206,329,o),
(152,329,cs),
(52,329,l),
(52,210,l),
(152,210,ls),
(214,210,o),
(251,205,o),
(251,173,cs),
(251,149,o),
(229,139,o),
(180,139,cs),
(122,139,o),
(71,153,o),
(11,174,c),
(11,32,l),
(68,5,o),
(159,-16,o),
(237,-16,cs)
);
}
);
width = 471;
},
{
layerId = "257EBA85-25A6-4EFE-A653-BCCD9A912022";
shapes = (
{
closed = 1;
nodes = (
(380,-16,o),
(435,72,o),
(435,147,cs),
(435,251,o),
(330,287,o),
(221,287,c),
(221,264,l),
(317,264,o),
(399,311,o),
(399,401,cs),
(399,486,o),
(326,516,o),
(235,516,cs),
(195,516,o),
(139,510,o),
(85,478,c),
(85,443,l),
(138,472,o),
(195,478,o),
(235,478,cs),
(291,478,o),
(358,466,o),
(358,394,cs),
(358,326,o),
(305,294,o),
(196,294,cs),
(142,294,l),
(142,255,l),
(196,255,ls),
(290,255,o),
(395,243,o),
(395,143,cs),
(395,79,o),
(353,22,o),
(231,22,cs),
(151,22,o),
(96,47,o),
(54,80,c),
(54,29,l),
(99,3,o),
(160,-16,o),
(230,-16,cs)
);
}
);
width = 489;
},
{
layerId = "6D4AB606-1E4E-4A6F-BC39-70F25E2B516B";
shapes = (
{
closed = 1;
nodes = (
(399,-16,o),
(458,73,o),
(458,155,cs),
(458,254,o),
(371,291,o),
(248,291,c),
(248,267,l),
(365,267,o),
(428,315,o),
(428,396,cs),
(428,492,o),
(344,522,o),
(256,522,cs),
(200,522,o),
(117,509,o),
(54,480,c),
(54,388,l),
(111,407,o),
(166,412,o),
(207,412,cs),
(250,412,o),
(316,407,o),
(316,366,cs),
(316,329,o),
(264,317,o),
(183,317,cs),
(106,317,l),
(106,222,l),
(183,222,ls),
(261,222,o),
(323,211,o),
(323,158,cs),
(323,115,o),
(299,100,o),
(215,100,cs),
(146,100,o),
(83,120,o),
(32,146,c),
(32,31,l),
(83,4,o),
(169,-16,o),
(244,-16,cs)
);
}
);
width = 489;
}
);
metricLeft = "=|c";
metricRight = "=ve-cy";
unicode = 1079;
},
{
glyphname = "ii-cy";
lastChange = "2024-10-14 12:08:38 +0000";
layers = (
{
anchors = (
{
name = top;
pos = (293,512);
}
);
background = {
shapes = (
{
pos = (-1,0);
ref = "en-cy";
}
);
};
layerId = m01;
shapes = (
{
closed = 1;
nodes = (
(260,0,l),
(383,344,l),
(335,503,l),
(335,0,l),
(555,0,l),
(555,512,l),
(313,512,l),
(190,139,l),
(238,10,l),
(238,512,l),
(18,512,l),
(18,0,l)
);
}
);
width = 573;
},
{
anchors = (
{
name = top;
pos = (294,500);
}
);
layerId = "257EBA85-25A6-4EFE-A653-BCCD9A912022";
shapes = (
{
closed = 1;
nodes = (
(130,0,l),
(485,482,l),
(458,491,l),
(458,0,l),
(498,0,l),
(498,500,l),
(458,500,l),
(103,19,l),
(130,10,l),
(130,500,l),
(90,500,l),
(90,0,l)
);
}
);
width = 588;
},
{
associatedMasterId = "257EBA85-25A6-4EFE-A653-BCCD9A912022";
layerId = "05597769-6FC6-40AE-BA1A-EF80A8069C81";
name = "22 Dec 23 at 03:17";
shapes = (
{
closed = 1;
nodes = (
(90,0,l),
(130,0,l),
(494,482,l),
(467,491,l),
(467,0,l),
(507,0,l),
(507,500,l),
(467,500,l),
(103,19,l),
(130,10,l),
(130,500,l),
(90,500,l)
);
}
);
width = 577;
},
{
associatedMasterId = "257EBA85-25A6-4EFE-A653-BCCD9A912022";
layerId = "B860A1CB-73AE-43C9-8546-8EC10CF1F36F";
name = "22 Dec 23 at 03:17";
shapes = (
{
closed = 1;
nodes = (
(483,101,l),
(483,500,l),
(443,500,l),
(443,366,ls),
(443,83,o),
(355,22,o),
(254,22,cs),
(184,22,o),
(119,59,o),
(118,155,cs),
(116,500,l),
(76,500,l),
(78,155,ls),
(79,33,o),
(168,-16,o),
(254,-16,cs),
(342,-16,o),
(420,29,o),
(452,178,c),
(446,180,l),
(443,101,l)
);
},
{
closed = 1;
nodes = (
(443,60,o),
(443,-5,o),
(514,-5,c),
(528,-5,o),
(544,-5,o),
(573,15,c),
(573,56,l),
(542,33,o),
(527,33,o),
(514,33,c),
(480,33,o),
(483,62,o),
(483,101,c),
(443,101,l)
);
}
);
width = 587;
},
{
anchors = (
{
name = top;
pos = (293,506);
}
);
layerId = "6D4AB606-1E4E-4A6F-BC39-70F25E2B516B";
shapes = (
{
closed = 1;
nodes = (
(209,0,l),
(439,374,l),
(395,497,l),
(395,0,l),
(527,0,l),
(527,506,l),
(383,506,l),
(148,118,l),
(186,10,l),
(186,506,l),
(53,506,l),
(53,0,l)
);
}
);
width = 580;
}
);
metricLeft = "=n";
metricRight = "=|";
unicode = 1080;
},
{
glyphname = "ka-cy";
kernLeft = n;
kernRight = x;
lastChange = "2024-10-16 19:54:36 +0000";
layers = (
{
layerId = "257EBA85-25A6-4EFE-A653-BCCD9A912022";
shapes = (
{
closed = 1;
nodes = (
(489,0,l),
(183,282,l),
(184,272,l),
(467,500,l),
(408,500,l),
(130,276,l),
(428,0,l)
);
},
{
closed = 1;
nodes = (
(130,0,l),
(130,500,l),
(90,500,l),
(90,0,l)
);
}
);
width = 505;
},
{
layerId = m01;
shapes = (
{
closed = 1;
nodes = (
(564,0,l),
(404,294,l),
(404,237,l),
(559,512,l),
(343,512,l),
(208,266,l),
(326,0,l)
);
},
{
closed = 1;
nodes = (
(238,0,l),
(238,512,l),
(18,512,l),
(18,0,l)
);
}
);
width = 576;
},
{
layerId = "6D4AB606-1E4E-4A6F-BC39-70F25E2B516B";
shapes = (
{
closed = 1;
nodes = (
(528,0,l),
(297,288,l),
(287,254,l),
(515,506,l),
(358,506,l),
(149,271,l),
(354,0,l)
);
},
{
closed = 1;
nodes = (
(186,0,l),
(186,506,l),
(53,506,l),
(53,0,l)
);
}
);
width = 543;
}
);
metricLeft = "=n";
metricRight = "=k";
unicode = 1082;
},
{
glyphname = "kadescender-cy";
lastChange = "2024-10-16 18:22:35 +0000";
layers = (
{
hints = (
{
name = "_corner.de-leg";
origin = (0,0);
type = Corner;
}
);
layerId = "257EBA85-25A6-4EFE-A653-BCCD9A912022";
shapes = (
{
closed = 1;
nodes = (
(440,0,l),
(440,38,l),
(183,282,l),
(184,272,l),
(467,500,l),
(408,500,l),
(130,276,l),
(422,0,l)
);
},
{
closed = 1;
nodes = (
(130,0,l),
(130,500,l),
(90,500,l),
(90,0,l)
);
}
);
width = 530;
},
{
background = {
shapes = (
{
closed = 1;
nodes = (
(564,0,l),
(404,294,l),
(404,237,l),
(559,512,l),
(343,512,l),
(208,266,l),
(326,0,l)
);
}
);
};
hints = (
{
name = "_corner.de-leg";
options = 1;
origin = (0,0);
type = Corner;
}
);
layerId = m01;
shapes = (
{
closed = 1;
nodes = (
(513,0,l),
(513,148,l),
(404,294,l),
(393,237,l),
(548,512,l),
(343,512,l),
(208,266,l),
(358,0,l)
);
},
{
closed = 1;
nodes = (
(238,0,l),
(238,512,l),
(18,512,l),
(18,0,l)
);
}
);
width = 603;
},
{
hints = (
{
name = "_corner.de-leg";
origin = (0,0);
type = Corner;
}
);
layerId = "6D4AB606-1E4E-4A6F-BC39-70F25E2B516B";
shapes = (
{
closed = 1;
nodes = (
(434,0,l),
(434,115,l),
(300,290,l),
(287,254,l),
(515,506,l),
(358,506,l),
(149,271,l),
(354,0,l)
);
},
{
closed = 1;
nodes = (
(186,0,l),
(186,506,l),
(53,506,l),
(53,0,l)
);
}
);
width = 540;
}
);
metricLeft = "=n";
metricRight = "=tse-cy";
unicode = 1179;
},
{
glyphname = "el-cy";
lastChange = "2024-10-14 12:08:38 +0000";
layers = (
{
background = {
hints = (
{
name = "_corner.de-leg";
options = 1;
origin = (0,0);
type = Corner;
},
{
name = "_corner.de-leg";
options = 1;
origin = (0,7);
scale = (-1,1);
type = Corner;
}
);
shapes = (
{
closed = 1;
nodes = (
(547,0,l),
(547,512,l),
(116,512,l),
(116,372,o),
(93,218,o),
(52,148,c),
(57,148,l),
(57,0,l)
);
},
{
closed = 1;
nodes = (
(271,219,o),
(283,291,o),
(283,364,c),
(327,364,l),
(327,148,l),
(251,148,l)
);
}
);
};
layerId = m01;
shapes = (
{
closed = 1;
nodes = (
(90,0,ls),
(246,0,o),
(261,85,o),
(266,324,c),
(307,324,l),
(307,0,l),
(527,0,l),
(527,512,l),
(82,512,l),
(82,247,o),
(67,158,o),
(28,158,cs),
(10,158,l),
(10,0,l)
);
}
);
width = 545;
},
{
layerId = "257EBA85-25A6-4EFE-A653-BCCD9A912022";
shapes = (
{
closed = 1;
nodes = (
(36,0,ls),
(126,0,o),
(146,106,o),
(155,462,c),
(407,462,l),
(407,0,l),
(447,0,l),
(447,500,l),
(116,500,l),
(107,141,o),
(91,38,o),
(34,38,cs),
(15,38,l),
(15,0,l)
);
}
);
width = 537;
},
{
associatedMasterId = "257EBA85-25A6-4EFE-A653-BCCD9A912022";
layerId = "B0D1BA4E-B198-42AA-9040-3FF13FC4A71D";
name = "27 Dec 23 at 23:56";
shapes = (
{
closed = 1;
nodes = (
(15,38,l),
(15,0,l),
(36,0,ls),
(89,0,o),
(145,25,o),
(151,279,cs),
(156,500,l),
(116,500,l),
(111,280,ls),
(107,85,o),
(71,38,o),
(34,38,cs)
);
},
{
closed = 1;
nodes = (
(447,0,l),
(447,500,l),
(407,500,l),
(407,0,l)
);
},
{
closed = 1;
nodes = (
(421,462,l),
(421,500,l),
(138,500,l),
(138,462,l)
);
}
);
width = 537;
},
{
associatedMasterId = "257EBA85-25A6-4EFE-A653-BCCD9A912022";
layerId = "11CFA787-5944-4930-A2B0-54E3174EE3B0";
name = edited;
shapes = (
{
closed = 1;
nodes = (
(15,30,l),
(15,-8,l),
(36,-8,ls),
(89,-8,o),
(145,17,o),
(151,279,cs),
(156,500,l),
(116,500,l),
(111,280,ls),
(106,77,o),
(71,30,o),
(34,30,cs)
);
},
{
closed = 1;
nodes = (
(447,0,l),
(447,500,l),
(407,500,l),
(407,0,l)
);
},
{
closed = 1;
nodes = (
(421,462,l),
(421,500,l),
(138,500,l),
(138,462,l)
);
}
);
width = 537;
},
{
layerId = "6D4AB606-1E4E-4A6F-BC39-70F25E2B516B";
shapes = (
{
closed = 1;
nodes = (
(64,0,ls),
(188,0,o),
(205,95,o),
(212,391,c),
(355,391,l),
(355,0,l),
(488,0,l),
(488,506,l),
(98,506,l),
(94,196,o),
(79,105,o),
(31,105,cs),
(12,105,l),
(12,0,l)
);
}
);
width = 541;
}
);
metricRight = "=|n";
unicode = 1083;
},
{
glyphname = "em-cy";
kernLeft = n;
kernRight = n;
lastChange = "2024-10-16 20:01:05 +0000";
layers = (
{
layerId = m01;
shapes = (
{
closed = 1;
nodes = (
(238,0,l),
(238,479,l),
(189,467,l),
(316,0,l),
(448,0,l),
(574,456,l),
(526,476,l),
(526,0,l),
(746,0,l),
(746,512,l),
(432,512,l),
(353,161,l),
(411,161,l),
(328,512,l),
(18,512,l),
(18,0,l)
);
}
);
width = 764;
},
{
layerId = "257EBA85-25A6-4EFE-A653-BCCD9A912022";
shapes = (
{
closed = 1;
nodes = (
(130,0,l),
(130,479,l),
(111,467,l),
(318,0,l),
(362,0,l),
(565,467,l),
(548,476,l),
(548,0,l),
(588,0,l),
(584,500,l),
(544,500,l),
(327,21,l),
(351,21,l),
(140,500,l),
(90,500,l),
(90,0,l)
);
}
);
width = 678;
},
{
guides = (
{
pos = (594,290);
}
);
layerId = "6D4AB606-1E4E-4A6F-BC39-70F25E2B516B";
shapes = (
{
closed = 1;
nodes = (
(186,0,l),
(186,479,l),
(123,435,l),
(310,0,l),
(391,0,l),
(570,418,l),
(516,476,l),
(516,0,l),
(649,0,l),
(647,506,l),
(467,506,l),
(334,136,l),
(386,136,l),
(227,506,l),
(53,506,l),
(53,0,l)
);
}
);
width = 702;
}
);
metricLeft = "=n";
metricRight = "=|";
unicode = 1084;
},
{
glyphname = "en-cy";
kernLeft = n;
kernRight = n;
lastChange = "2024-10-16 19:58:38 +0000";
layers = (
{
layerId = "257EBA85-25A6-4EFE-A653-BCCD9A912022";
shapes = (
{
closed = 1;
nodes = (
(495,0,l),
(495,500,l),
(455,500,l),
(455,0,l)
);
},
{
closed = 1;
nodes = (
(130,0,l),
(130,500,l),
(90,500,l),
(90,0,l)
);
},
{
closed = 1;
nodes = (
(469,261,l),
(469,299,l),
(115,299,l),
(115,261,l)
);
}
);
width = 585;
},
{
layerId = m01;
shapes = (
{
closed = 1;
nodes = (
(538,0,l),
(538,512,l),
(318,512,l),
(318,0,l)
);
},
{
closed = 1;
nodes = (
(238,0,l),
(238,512,l),
(18,512,l),
(18,0,l)
);
},
{
closed = 1;
nodes = (
(418,176,l),
(418,364,l),
(123,364,l),
(123,176,l)
);
}
);
width = 556;
},
{
layerId = "6D4AB606-1E4E-4A6F-BC39-70F25E2B516B";
shapes = (
{
closed = 1;
nodes = (
(517,0,l),
(517,506,l),
(384,506,l),
(384,0,l)
);
},
{
closed = 1;
nodes = (
(186,0,l),
(186,506,l),
(53,506,l),
(53,0,l)
);
},
{
closed = 1;
nodes = (
(443,217,l),
(443,332,l),
(119,332,l),
(119,217,l)
);
}
);
width = 570;
}
);
metricLeft = "=n";
metricRight = "=|";
unicode = 1085;
},
{
glyphname = "endescender-cy";
lastChange = "2024-10-14 12:08:38 +0000";
layers = (
{
background = {
shapes = (
{
closed = 1;
nodes = (
(90,0,l),
(130,0,l),
(130,500,l),
(90,500,l)
);
},
{
closed = 1;
nodes = (
(455,0,l),
(495,0,l),
(495,500,l),
(455,500,l)
);
},
{
closed = 1;
nodes = (
(115,299,l),
(115,261,l),
(469,261,l),
(469,299,l)
);
}
);
};
hints = (
{
name = "_corner.de-leg";
origin = (0,0);
type = Corner;
}
);
layerId = "257EBA85-25A6-4EFE-A653-BCCD9A912022";
shapes = (
{
closed = 1;
nodes = (
(495,0,l),
(495,500,l),
(455,500,l),
(455,0,l)
);
},
{
closed = 1;
nodes = (
(130,0,l),
(130,500,l),
(90,500,l),
(90,0,l)
);
},
{
closed = 1;
nodes = (
(469,261,l),
(469,299,l),
(115,299,l),
(115,261,l)
);
}
);
width = 585;
},
{
hints = (
{
name = "_corner.de-leg";
origin = (0,0);
type = Corner;
}
);
layerId = m01;
shapes = (
{
closed = 1;
nodes = (
(538,0,l),
(538,512,l),
(318,512,l),
(318,0,l)
);
},
{
closed = 1;
nodes = (
(238,0,l),
(238,512,l),
(18,512,l),
(18,0,l)
);
},
{
closed = 1;
nodes = (
(432,201,l),
(432,349,l),
(123,349,l),
(123,201,l)
);
}
);
width = 628;
},
{
hints = (
{
name = "_corner.de-leg";
origin = (0,0);
type = Corner;
}
);
layerId = "6D4AB606-1E4E-4A6F-BC39-70F25E2B516B";
shapes = (
{
closed = 1;
nodes = (
(541,0,l),
(541,506,l),
(408,506,l),
(408,0,l)
);
},
{
closed = 1;
nodes = (
(186,0,l),
(186,506,l),
(53,506,l),
(53,0,l)
);
},
{
closed = 1;
nodes = (
(473,210,l),
(473,325,l),
(119,325,l),
(119,210,l)
);
}
);
width = 631;
}
);
metricLeft = "=n";
metricRight = "=tse-cy";
unicode = 1187;
},
{
glyphname = "obarred-cy";
lastChange = "2024-10-14 12:08:38 +0000";
layers = (
{
layerId = "257EBA85-25A6-4EFE-A653-BCCD9A912022";
shapes = (
{
closed = 1;
nodes = (
(415,-16,o),
(490,88,o),
(490,260,cs),
(490,420,o),
(414,516,o),
(272,516,cs),
(130,516,o),
(54,420,o),
(54,260,cs),
(54,88,o),
(129,-16,o),
(272,-16,cs)
);
},
{
closed = 1;
nodes = (
(155,22,o),
(95,106,o),
(95,260,cs),
(95,401,o),
(154,478,o),
(272,478,cs),
(390,478,o),
(449,401,o),
(449,260,cs),
(449,106,o),
(389,22,o),
(272,22,cs)
);
},
{
closed = 1;
nodes = (
(464,247,l),
(464,284,l),
(80,283,l),
(80,246,l)
);
}
);
width = 544;
},
{
layerId = m01;
shapes = (
{
closed = 1;
nodes = (
(430,-16,o),
(553,82,o),
(553,261,cs),
(553,436,o),
(429,528,o),
(282,528,cs),
(135,528,o),
(11,436,o),
(11,261,cs),
(11,82,o),
(134,-16,o),
(282,-16,cs)
);
},
{
closed = 1;
nodes = (
(234,171,o),
(222,201,o),
(222,259,cs),
(222,313,o),
(234,341,o),
(282,341,cs),
(330,341,o),
(342,313,o),
(342,259,cs),
(342,201,o),
(330,171,o),
(282,171,cs)
);
},
{
closed = 1;
nodes = (
(346,211,l),
(346,307,l),
(218,307,l),
(218,211,l)
);
}
);
width = 564;
},
{
layerId = "6D4AB606-1E4E-4A6F-BC39-70F25E2B516B";
shapes = (
{
closed = 1;
nodes = (
(423,-16,o),
(522,85,o),
(522,261,cs),
(522,428,o),
(422,522,o),
(277,522,cs),
(133,522,o),
(32,428,o),
(32,261,cs),
(32,85,o),
(132,-16,o),
(277,-16,cs)
);
},
{
closed = 1;
nodes = (
(201,99,o),
(167,155,o),
(167,259,cs),
(167,356,o),
(200,407,o),
(277,407,cs),
(354,407,o),
(387,356,o),
(387,259,cs),
(387,155,o),
(354,99,o),
(277,99,cs)
);
},
{
closed = 1;
nodes = (
(396,215,l),
(396,310,l),
(158,310,l),
(158,215,l)
);
}
);
width = 554;
}
);
metricLeft = "=o";
metricRight = "=o";
unicode = 1257;
},
{
glyphname = "pe-cy";
lastChange = "2024-10-14 12:08:17 +0000";
layers = (
{
layerId = m01;
shapes = (
{
closed = 1;
nodes = (
(541,0,l),
(541,512,l),
(321,512,l),
(321,0,l)
);
},
{
closed = 1;
nodes = (
(238,0,l),
(238,512,l),
(18,512,l),
(18,0,l)
);
},
{
closed = 1;
nodes = (
(475,364,l),
(475,512,l),
(111,512,l),
(111,364,l)
);
}
);
width = 559;
},
{
layerId = "257EBA85-25A6-4EFE-A653-BCCD9A912022";
shapes = (
{
closed = 1;
nodes = (
(503,0,l),
(503,500,l),
(463,500,l),
(463,0,l)
);
},
{
closed = 1;
nodes = (
(130,0,l),
(130,500,l),
(90,500,l),
(90,0,l)
);
},
{
closed = 1;
nodes = (
(477,462,l),
(477,500,l),
(103,500,l),
(103,462,l)
);
}
);
width = 593;
},
{
layerId = "6D4AB606-1E4E-4A6F-BC39-70F25E2B516B";
shapes = (
{
closed = 1;
nodes = (
(543,0,l),
(543,506,l),
(410,506,l),
(410,0,l)
);
},
{
closed = 1;
nodes = (
(186,0,l),
(186,506,l),
(53,506,l),
(53,0,l)
);
},
{
closed = 1;
nodes = (
(476,391,l),
(476,506,l),
(107,506,l),
(107,391,l)
);
}
);
width = 596;
}
);
metricLeft = "=n";
metricRight = "=|";
unicode = 1087;
},
{
glyphname = "te-cy";
kernRight = r;
lastChange = "2024-10-16 19:58:15 +0000";
layers = (
{
layerId = m01;
shapes = (
{
closed = 1;
nodes = (
(372,0,l),
(372,462,l),
(152,462,l),
(152,0,l)
);
},
{
closed = 1;
nodes = (
(511,324,l),
(511,512,l),
(13,512,l),
(13,324,l)
);
}
);
width = 524;
},
{
layerId = "257EBA85-25A6-4EFE-A653-BCCD9A912022";
shapes = (
{
closed = 1;
nodes = (
(250,0,l),
(250,490,l),
(210,490,l),
(210,0,l)
);
},
{
closed = 1;
nodes = (
(443,462,l),
(443,500,l),
(17,500,l),
(17,462,l)
);
}
);
width = 460;
},
{
layerId = "6D4AB606-1E4E-4A6F-BC39-70F25E2B516B";
shapes = (
{
closed = 1;
nodes = (
(313,0,l),
(313,476,l),
(180,476,l),
(180,0,l)
);
},
{
closed = 1;
nodes = (
(478,391,l),
(478,506,l),
(15,506,l),
(15,391,l)
);
}
);
width = 493;
}
);
metricRight = "=|";
unicode = 1090;
},
{
glyphname = "u-cy";
kernLeft = v;
kernRight = v;
lastChange = "2024-10-22 10:53:08 +0000";
layers = (
{
layerId = m01;
shapes = (
{
ref = y;
}
);
width = 580;
},
{
layerId = "257EBA85-25A6-4EFE-A653-BCCD9A912022";
shapes = (
{
ref = y;
}
);
width = 501;
},
{
associatedMasterId = "257EBA85-25A6-4EFE-A653-BCCD9A912022";
layerId = "BB855E17-253A-4AC4-AC2F-9B589AAE3D67";
name = "11 Jan 24, 22:43";
shapes = (
{
closed = 1;
nodes = (
(93,-192,l),
(134,-207,o),
(179,-216,o),
(224,-216,cs),
(378,-216,o),
(485,-111,o),
(485,55,cs),
(485,500,l),
(447,500,l),
(447,276,ls),
(447,121,o),
(360,22,o),
(248,22,cs),
(152,22,o),
(115,95,o),
(115,234,cs),
(115,501,l),
(75,501,l),
(75,234,ls),
(75,79,o),
(124,-16,o),
(253,-16,cs),
(346,-16,o),
(414,34,o),
(447,132,c),
(447,55,ls),
(447,-95,o),
(352,-178,o),
(224,-178,cs),
(184,-178,o),
(136,-170,o),
(93,-150,c)
);
}
);
width = 560;
},
{
associatedMasterId = m01;
layerId = "B5C751A7-555F-4277-8C6A-6C40A6203765";
name = "11 Jan 24, 22:43";
width = 600;
},
{
layerId = "6D4AB606-1E4E-4A6F-BC39-70F25E2B516B";
shapes = (
{
ref = y;
}
);
width = 542;
}
);
metricLeft = "=|n";
metricRight = "=n";
unicode = 1091;
},
{
glyphname = "u-cy.001";
lastChange = "2024-03-06 05:49:28 +0000";
layers = (
{
layerId = m01;
shapes = (
{
closed = 1;
nodes = (
(434,-216,o),
(553,-111,o),
(553,55,cs),
(553,511,l),
(334,511,l),
(334,364,ls),
(334,267,o),
(328,205,o),
(277,205,cs),
(234,205,o),
(234,250,o),
(234,338,cs),
(234,512,l),
(14,512,l),
(14,234,ls),
(14,79,o),
(58,4,o),
(189,4,cs),
(280,4,o),
(323,40,o),
(334,103,c),
(334,74,ls),
(334,15,o),
(286,-38,o),
(182,-38,cs),
(119,-38,o),
(69,-19,o),
(27,0,c),
(27,-172,l),
(107,-201,o),
(198,-216,o),
(263,-216,cs)
);
}
);
width = 567;
},
{
layerId = "257EBA85-25A6-4EFE-A653-BCCD9A912022";
shapes = (
{
closed = 1;
nodes = (
(379,-216,o),
(486,-111,o),
(486,55,cs),
(486,500,l),
(448,500,l),
(448,276,ls),
(448,121,o),
(361,22,o),
(249,22,cs),
(153,22,o),
(116,95,o),
(116,234,cs),
(116,501,l),
(76,501,l),
(76,234,ls),
(76,79,o),
(125,-16,o),
(254,-16,cs),
(347,-16,o),
(415,34,o),
(448,132,c),
(448,55,ls),
(448,-95,o),
(353,-178,o),
(227,-178,cs),
(186,-178,o),
(136,-169,o),
(94,-150,c),
(94,-192,l),
(135,-207,o),
(180,-216,o),
(225,-216,cs)
);
}
);
width = 562;
},
{
associatedMasterId = "257EBA85-25A6-4EFE-A653-BCCD9A912022";
layerId = "BB855E17-253A-4AC4-AC2F-9B589AAE3D67";
name = "11 Jan 24, 22:43";
shapes = (
{
closed = 1;
nodes = (
(93,-192,l),
(134,-207,o),
(179,-216,o),
(224,-216,cs),
(378,-216,o),
(485,-111,o),
(485,55,cs),
(485,500,l),
(447,500,l),
(447,276,ls),
(447,121,o),
(360,22,o),
(248,22,cs),
(152,22,o),
(115,95,o),
(115,234,cs),
(115,501,l),
(75,501,l),
(75,234,ls),
(75,79,o),
(124,-16,o),
(253,-16,cs),
(346,-16,o),
(414,34,o),
(447,132,c),
(447,55,ls),
(447,-95,o),
(352,-178,o),
(224,-178,cs),
(184,-178,o),
(136,-170,o),
(93,-150,c)
);
}
);
width = 560;
},
{
associatedMasterId = m01;
layerId = "B5C751A7-555F-4277-8C6A-6C40A6203765";
name = "11 Jan 24, 22:43";
width = 600;
},
{
layerId = "6D4AB606-1E4E-4A6F-BC39-70F25E2B516B";
shapes = (
{
closed = 1;
nodes = (
(407,-216,o),
(519,-111,o),
(519,55,cs),
(519,506,l),
(389,506,l),
(389,321,ls),
(389,196,o),
(344,116,o),
(264,116,cs),
(195,116,o),
(177,175,o),
(177,288,cs),
(177,507,l),
(44,507,l),
(44,234,ls),
(44,79,o),
(90,-6,o),
(230,-6,cs),
(312,-6,o),
(354,23,o),
(389,75,c),
(389,65,ls),
(389,-38,o),
(359,-101,o),
(223,-101,cs),
(171,-101,o),
(101,-88,o),
(59,-69,c),
(59,-182,l),
(121,-204,o),
(189,-216,o),
(244,-216,cs)
);
}
);
width = 563;
}
);
metricLeft = "=|n";
metricRight = "=n";
},
{
glyphname = "ustraight-cy";
lastChange = "2024-03-06 05:36:42 +0000";
layers = (
{
background = {
shapes = (
{
ref = v;
}
);
};
layerId = "257EBA85-25A6-4EFE-A653-BCCD9A912022";
shapes = (
{
closed = 1;
nodes = (
(263,-200,l),
(265,-10,l),
(468,500,l),
(427,500,l),
(234,16,l),
(256,16,l),
(61,500,l),
(18,500,l),
(223,-10,l),
(223,-200,l)
);
}
);
width = 483;
},
{
layerId = m01;
shapes = (
{
closed = 1;
nodes = (
(398,-200,l),
(398,0,l),
(553,512,l),
(359,512,l),
(246,27,l),
(357,27,l),
(236,512,l),
(10,512,l),
(178,0,l),
(178,-200,l)
);
}
);
width = 568;
},
{
layerId = "6D4AB606-1E4E-4A6F-BC39-70F25E2B516B";
shapes = (
{
closed = 1;
nodes = (
(333,-200,l),
(333,-5,l),
(512,506,l),
(380,506,l),
(252,126,l),
(293,127,l),
(156,506,l),
(14,506,l),
(200,-5,l),
(200,-200,l)
);
}
);
width = 527;
}
);
metricLeft = "=v";
metricRight = "=v";
unicode = 1199;
},
{
glyphname = "ustraightstroke-cy";
lastChange = "2024-03-06 06:32:21 +0000";
layers = (
{
layerId = "257EBA85-25A6-4EFE-A653-BCCD9A912022";
shapes = (
{
closed = 1;
nodes = (
(263,-200,l),
(265,-10,l),
(468,500,l),
(427,500,l),
(234,16,l),
(256,16,l),
(61,500,l),
(18,500,l),
(223,-10,l),
(223,-200,l)
);
},
{
closed = 1;
nodes = (
(357,-52,l),
(357,-16,l),
(133,-16,l),
(133,-52,l)
);
}
);
width = 483;
},
{
layerId = m01;
shapes = (
{
closed = 1;
nodes = (
(398,-200,l),
(398,0,l),
(553,512,l),
(359,512,l),
(246,27,l),
(357,27,l),
(236,512,l),
(10,512,l),
(178,0,l),
(178,-200,l)
);
},
{
closed = 1;
nodes = (
(450,-134,l),
(450,0,l),
(123,0,l),
(123,-134,l)
);
}
);
width = 568;
},
{
layerId = "6D4AB606-1E4E-4A6F-BC39-70F25E2B516B";
shapes = (
{
closed = 1;
nodes = (
(333,-200,l),
(333,-5,l),
(512,506,l),
(380,506,l),
(252,126,l),
(290,127,l),
(153,506,l),
(14,506,l),
(200,-5,l),
(200,-200,l)
);
},
{
closed = 1;
nodes = (
(405,-115,l),
(405,0,l),
(128,0,l),
(128,-115,l)
);
}
);
width = 527;
}
);
metricLeft = "=v";
metricRight = "=v";
unicode = 1201;
},
{
glyphname = "ef-cy";
lastChange = "2024-10-14 12:08:17 +0000";
layers = (
{
layerId = m01;
shapes = (
{
closed = 1;
nodes = (
(688,-16,o),
(803,82,o),
(803,261,cs),
(803,436,o),
(687,528,o),
(406,528,cs),
(125,528,o),
(11,436,o),
(11,261,cs),
(11,82,o),
(124,-16,o),
(406,-16,cs)
);
},
{
closed = 1;
nodes = (
(285,174,o),
(237,191,o),
(237,259,cs),
(237,323,o),
(285,338,o),
(406,338,cs),
(527,338,o),
(579,323,o),
(579,259,cs),
(579,191,o),
(527,174,o),
(406,174,cs)
);
},
{
closed = 1;
nodes = (
(518,-200,l),
(518,730,l),
(298,730,l),
(298,-200,l)
);
}
);
width = 814;
},
{
layerId = "257EBA85-25A6-4EFE-A653-BCCD9A912022";
shapes = (
{
closed = 1;
nodes = (
(502,-16,o),
(600,88,o),
(600,254,cs),
(600,420,o),
(501,516,o),
(327,516,cs),
(153,516,o),
(54,420,o),
(54,254,cs),
(54,88,o),
(152,-16,o),
(327,-16,cs)
);
},
{
closed = 1;
nodes = (
(177,22,o),
(95,106,o),
(95,254,cs),
(95,401,o),
(176,478,o),
(327,478,cs),
(478,478,o),
(559,401,o),
(559,254,cs),
(559,106,o),
(477,22,o),
(327,22,cs)
);
},
{
closed = 1;
nodes = (
(347,-200,l),
(347,700,l),
(307,700,l),
(307,-200,l)
);
}
);
width = 654;
},
{
associatedMasterId = "257EBA85-25A6-4EFE-A653-BCCD9A912022";
layerId = "D8DB6B94-020C-4B9C-B596-B39E685C52FF";
name = "26 Dec 23, 21:56";
shapes = (
{
closed = 1;
nodes = (
(417,-200,l),
(457,-200,l),
(457,700,l),
(417,700,l)
);
},
{
closed = 1;
nodes = (
(504,22,o),
(451,82,o),
(451,230,cs),
(451,378,o),
(511,478,o),
(614,478,cs),
(724,478,o),
(780,385,o),
(780,250,cs),
(780,89,o),
(713,22,o),
(609,22,cs)
);
},
{
closed = 1;
nodes = (
(736,-16,o),
(821,71,o),
(821,250,cs),
(821,404,o),
(744,516,o),
(614,516,cs),
(491,516,o),
(432,396,o),
(432,230,cs),
(432,64,o),
(488,-16,o),
(609,-16,cs)
);
},
{
closed = 1;
nodes = (
(162,22,o),
(95,89,o),
(95,250,cs),
(95,385,o),
(151,478,o),
(261,478,cs),
(364,478,o),
(424,378,o),
(424,230,cs),
(424,82,o),
(371,22,o),
(266,22,cs)
);
},
{
closed = 1;
nodes = (
(387,-16,o),
(443,64,o),
(443,230,cs),
(443,396,o),
(384,516,o),
(261,516,cs),
(131,516,o),
(54,404,o),
(54,250,cs),
(54,71,o),
(139,-16,o),
(266,-16,cs)
);
}
);
width = 875;
},
{
layerId = "6D4AB606-1E4E-4A6F-BC39-70F25E2B516B";
shapes = (
{
closed = 1;
nodes = (
(598,-16,o),
(705,85,o),
(705,258,cs),
(705,428,o),
(597,522,o),
(368,522,cs),
(139,522,o),
(32,428,o),
(32,258,cs),
(32,85,o),
(138,-16,o),
(368,-16,cs)
);
},
{
closed = 1;
nodes = (
(233,100,o),
(167,150,o),
(167,257,cs),
(167,361,o),
(232,406,o),
(368,406,cs),
(503,406,o),
(570,361,o),
(570,257,cs),
(570,150,o),
(503,100,o),
(368,100,cs)
);
},
{
closed = 1;
nodes = (
(435,-200,l),
(435,730,l),
(302,730,l),
(302,-200,l)
);
}
);
width = 737;
}
);
metricLeft = "=o";
metricRight = "=o";
unicode = 1092;
},
{
glyphname = "che-cy";
kernLeft = n;
kernRight = n;
lastChange = "2024-10-16 19:57:51 +0000";
layers = (
{
layerId = m01;
shapes = (
{
closed = 1;
nodes = (
(268,82,o),
(382,158,o),
(382,378,c),
(336,378,l),
(336,319,o),
(301,292,o),
(271,292,cs),
(248,292,o),
(241,307,o),
(241,342,cs),
(240,512,l),
(20,512,l),
(21,259,ls),
(22,126,o),
(64,82,o),
(176,82,cs)
);
},
{
closed = 1;
nodes = (
(556,0,l),
(556,512,l),
(336,512,l),
(336,0,l)
);
}
);
width = 570;
},
{
layerId = "257EBA85-25A6-4EFE-A653-BCCD9A912022";
shapes = (
{
closed = 1;
nodes = (
(277,118,o),
(393,147,o),
(423,235,c),
(410,269,l),
(377,196,o),
(309,156,o),
(236,156,cs),
(166,156,o),
(101,193,o),
(100,289,cs),
(98,500,l),
(58,500,l),
(60,289,ls),
(61,167,o),
(150,118,o),
(222,118,cs)
);
},
{
closed = 1;
nodes = (
(445,0,l),
(445,500,l),
(405,500,l),
(405,0,l)
);
}
);
width = 521;
},
{
layerId = "6D4AB606-1E4E-4A6F-BC39-70F25E2B516B";
shapes = (
{
closed = 1;
nodes = (
(272,99,o),
(387,130,o),
(402,286,c),
(372,325,l),
(356,259,o),
(305,226,o),
(254,226,cs),
(208,226,o),
(173,252,o),
(173,316,cs),
(171,506,l),
(38,506,l),
(40,274,ls),
(41,146,o),
(106,99,o),
(198,99,cs)
);
},
{
closed = 1;
nodes = (
(502,0,l),
(502,506,l),
(369,506,l),
(369,0,l)
);
}
);
width = 546;
}
);
metricRight = "=n";
unicode = 1095;
},
{
glyphname = "tse-cy";
kernLeft = n;
kernRight = tse;
lastChange = "2024-10-16 19:54:05 +0000";
layers = (
{
hints = (
{
name = "_corner.de-leg";
options = 1;
origin = (0,0);
type = Corner;
}
);
layerId = m01;
shapes = (
{
closed = 1;
nodes = (
(540,0,l),
(540,512,l),
(320,512,l),
(320,148,l),
(238,148,l),
(238,512,l),
(18,512,l),
(18,0,l)
);
}
);
width = 630;
},
{
hints = (
{
name = "_corner.de-leg";
origin = (0,0);
type = Corner;
}
);
layerId = "257EBA85-25A6-4EFE-A653-BCCD9A912022";
shapes = (
{
closed = 1;
nodes = (
(482,0,l),
(482,500,l),
(442,500,l),
(442,38,l),
(130,38,l),
(130,500,l),
(90,500,l),
(90,0,l)
);
}
);
width = 572;
},
{
hints = (
{
name = "_corner.de-leg";
origin = (0,0);
type = Corner;
}
);
layerId = "6D4AB606-1E4E-4A6F-BC39-70F25E2B516B";
shapes = (
{
closed = 1;
nodes = (
(517,0,l),
(517,506,l),
(384,506,l),
(384,115,l),
(186,115,l),
(186,506,l),
(53,506,l),
(53,0,l)
);
}
);
width = 607;
}
);
metricLeft = "=n";
unicode = 1094;
},
{
glyphname = "sha-cy";
kernLeft = n;
kernRight = n;
lastChange = "2024-10-16 20:02:22 +0000";
layers = (
{
layerId = m01;
shapes = (
{
closed = 1;
nodes = (
(834,0,l),
(834,512,l),
(614,512,l),
(614,0,l)
);
},
{
closed = 1;
nodes = (
(238,0,l),
(238,512,l),
(18,512,l),
(18,0,l)
);
},
{
closed = 1;
nodes = (
(698,0,l),
(698,148,l),
(211,148,l),
(211,0,l)
);
},
{
closed = 1;
nodes = (
(536,60,l),
(536,512,l),
(316,512,l),
(316,60,l)
);
}
);
width = 852;
},
{
layerId = "257EBA85-25A6-4EFE-A653-BCCD9A912022";
shapes = (
{
closed = 1;
nodes = (
(667,0,l),
(667,500,l),
(627,500,l),
(627,0,l)
);
},
{
closed = 1;
nodes = (
(130,0,l),
(130,500,l),
(90,500,l),
(90,0,l)
);
},
{
closed = 1;
nodes = (
(641,0,l),
(641,38,l),
(115,38,l),
(115,0,l)
);
},
{
closed = 1;
nodes = (
(399,21,l),
(399,500,l),
(359,500,l),
(359,21,l)
);
}
);
width = 757;
},
{
layerId = "6D4AB606-1E4E-4A6F-BC39-70F25E2B516B";
shapes = (
{
closed = 1;
nodes = (
(753.005,0,l),
(753,506,l),
(620,506,l),
(620,0,l)
);
},
{
closed = 1;
nodes = (
(186,0,l),
(186,506,l),
(53,506,l),
(53,0,l)
);
},
{
closed = 1;
nodes = (
(670,0,l),
(670,115,l),
(164,115,l),
(164,0,l)
);
},
{
closed = 1;
nodes = (
(470,41,l),
(470,506,l),
(337,506,l),
(337,41,l)
);
}
);
width = 806;
}
);
metricLeft = "=n";
metricRight = "=|n";
unicode = 1096;
},
{
glyphname = "shcha-cy";
kernLeft = n;
kernRight = tse;
lastChange = "2024-10-16 19:54:13 +0000";
layers = (
{
hints = (
{
name = "_corner.de-leg";
origin = (0,0);
type = Corner;
}
);
layerId = m01;
shapes = (
{
closed = 1;
nodes = (
(834,0,l),
(834,512,l),
(614,512,l),
(614,103,l),
(659,148,l),
(491,148,l),
(536,103,l),
(536,512,l),
(316,512,l),
(316,103,l),
(361,148,l),
(193,148,l),
(238,103,l),
(238,512,l),
(18,512,l),
(18,0,l)
);
}
);
width = 924;
},
{
hints = (
{
name = "_corner.de-leg";
origin = (0,0);
type = Corner;
}
);
layerId = "257EBA85-25A6-4EFE-A653-BCCD9A912022";
shapes = (
{
closed = 1;
nodes = (
(667,0,l),
(667,500,l),
(627,500,l),
(627,6,l),
(655,38,l),
(368,38,l),
(399,6,l),
(399,500,l),
(359,500,l),
(359,6,l),
(390,38,l),
(105,38,l),
(130,6,l),
(130,500,l),
(90,500,l),
(90,0,l)
);
}
);
width = 757;
},
{
hints = (
{
name = "_corner.de-leg";
origin = (0,0);
type = Corner;
}
);
layerId = "6D4AB606-1E4E-4A6F-BC39-70F25E2B516B";
shapes = (
{
closed = 1;
nodes = (
(753.005,0,l),
(753,506,l),
(620,506,l),
(620,56,l),
(657,115,l),
(431,115,l),
(470,56,l),
(470,506,l),
(337,506,l),
(337,56,l),
(375,115,l),
(150,115,l),
(186,56,l),
(186,506,l),
(53,506,l),
(53,0,l)
);
}
);
width = 843;
}
);
metricLeft = "=en-cy";
metricRight = "=tse-cy";
unicode = 1097;
},
{
glyphname = "hardsign-cy";
kernRight = o;
lastChange = "2024-10-16 20:02:08 +0000";
layers = (
{
layerId = m01;
shapes = (
{
closed = 1;
nodes = (
(476,0,ls),
(573,0,o),
(651,88,o),
(651,200,cs),
(651,279,o),
(612,370,o),
(464,370,cs),
(310,370,l),
(355,336,l),
(355,512,l),
(13,512,l),
(13,364,l),
(180,364,l),
(135,409,l),
(135,0,l)
);
},
{
closed = 1;
nodes = (
(355,291,l),
(329,252,l),
(371,252,ls),
(407,252,o),
(434,242,o),
(434,190,cs),
(434,131,o),
(398,125,o),
(361,125,cs),
(329,125,l),
(355,92,l)
);
}
);
width = 662;
},
{
layerId = "257EBA85-25A6-4EFE-A653-BCCD9A912022";
shapes = (
{
closed = 1;
nodes = (
(377,0,ls),
(472,0,o),
(553,45,o),
(553,164,cs),
(553,269,o),
(490,329,o),
(373,329,cs),
(198,329,l),
(223,304,l),
(223,500,l),
(17,500,l),
(17,462,l),
(198,462,l),
(183,477,l),
(183,0,l)
);
},
{
closed = 1;
nodes = (
(223,326,l),
(198,291,l),
(360,291,ls),
(433,291,o),
(512,267,o),
(512,161,cs),
(512,72,o),
(457,38,o),
(366,38,cs),
(198,38,l),
(223,13,l)
);
}
);
width = 607;
},
{
layerId = "6D4AB606-1E4E-4A6F-BC39-70F25E2B516B";
shapes = (
{
closed = 1;
nodes = (
(435,0,ls),
(531,0,o),
(609,57,o),
(609,177,cs),
(609,264,o),
(568,350,o),
(422,350,cs),
(256,350,l),
(292,320,l),
(292,506,l),
(15,506,l),
(15,412,l),
(189,412,l),
(159,442,l),
(159,0,l)
);
},
{
closed = 1;
nodes = (
(292,305,l),
(266,255,l),
(376,255,ls),
(425,255,o),
(474,253,o),
(474,174,cs),
(474,96,o),
(427,95,o),
(371,95,cs),
(266,95,l),
(292,54,l)
);
}
);
width = 641;
}
);
metricLeft = "=te-cy";
metricRight = "=softsign-cy";
unicode = 1098;
},
{
glyphname = "yeru-cy";
kernRight = n;
lastChange = "2024-10-16 19:57:29 +0000";
layers = (
{
layerId = m01;
shapes = (
{
closed = 1;
nodes = (
(326,0,ls),
(433,0,o),
(501,88,o),
(501,200,cs),
(501,279,o),
(472,370,o),
(314,370,cs),
(193,370,l),
(238,336,l),
(238,512,l),
(18,512,l),
(18,0,l)
);
},
{
closed = 1;
nodes = (
(238,291,l),
(212,252,l),
(254,252,ls),
(269,252,o),
(304,242,o),
(304,190,cs),
(304,131,o),
(271,125,o),
(244,125,cs),
(212,125,l),
(238,92,l)
);
},
{
closed = 1;
nodes = (
(751,0,l),
(751,512,l),
(531,512,l),
(531,0,l)
);
}
);
width = 769;
},
{
layerId = "257EBA85-25A6-4EFE-A653-BCCD9A912022";
shapes = (
{
closed = 1;
nodes = (
(287,0,ls),
(382,0,o),
(460,35,o),
(460,164,cs),
(460,259,o),
(417,329,o),
(273,329,cs),
(110,329,l),
(130,316,l),
(130,500,l),
(90,500,l),
(90,0,l)
);
},
{
closed = 1;
nodes = (
(130,304,l),
(110,291,l),
(288,291,ls),
(350,291,o),
(419,264,o),
(419,157,cs),
(419,62,o),
(364,38,o),
(288,38,cs),
(108,38,l),
(130,20,l)
);
},
{
closed = 1;
nodes = (
(596,0,l),
(596,500,l),
(556,500,l),
(556,0,l)
);
}
);
width = 686;
},
{
layerId = "6D4AB606-1E4E-4A6F-BC39-70F25E2B516B";
shapes = (
{
closed = 1;
nodes = (
(312,0,ls),
(413,0,o),
(491,62,o),
(491,183,cs),
(491,269,o),
(450,350,o),
(299,350,cs),
(153,350,l),
(186,326,l),
(186,506,l),
(53,506,l),
(53,0,l)
);
},
{
closed = 1;
nodes = (
(186,297,l),
(163,255,l),
(266,255,ls),
(309,255,o),
(356,237,o),
(356,174,cs),
(356,110,o),
(312,95,o),
(261,95,cs),
(162,95,l),
(186,57,l)
);
},
{
closed = 1;
nodes = (
(676,0,l),
(676,506,l),
(543,506,l),
(543,0,l)
);
}
);
width = 729;
}
);
metricLeft = "=n";
metricRight = "=|";
unicode = 1099;
},
{
glyphname = "softsign-cy";
kernLeft = n;
kernRight = o;
lastChange = "2024-10-16 20:02:38 +0000";
layers = (
{
layerId = m01;
shapes = (
{
closed = 1;
nodes = (
(359,0,ls),
(456,0,o),
(534,88,o),
(534,200,cs),
(534,279,o),
(495,370,o),
(347,370,cs),
(193,370,l),
(238,336,l),
(238,512,l),
(18,512,l),
(18,0,l)
);
},
{
closed = 1;
nodes = (
(238,291,l),
(212,252,l),
(254,252,ls),
(290,252,o),
(317,242,o),
(317,190,cs),
(317,131,o),
(281,125,o),
(244,125,cs),
(212,125,l),
(238,92,l)
);
}
);
width = 545;
},
{
layerId = "257EBA85-25A6-4EFE-A653-BCCD9A912022";
shapes = (
{
closed = 1;
nodes = (
(287,0,ls),
(382,0,o),
(460,35,o),
(460,164,cs),
(460,259,o),
(417,329,o),
(273,329,cs),
(105,329,l),
(130,304,l),
(130,500,l),
(90,500,l),
(90,0,l)
);
},
{
closed = 1;
nodes = (
(130,320,l),
(105,291,l),
(288,291,ls),
(350,291,o),
(419,264,o),
(419,157,cs),
(419,62,o),
(364,38,o),
(288,38,cs),
(105,38,l),
(130,13,l)
);
}
);
width = 514;
},
{
layerId = "6D4AB606-1E4E-4A6F-BC39-70F25E2B516B";
shapes = (
{
closed = 1;
nodes = (
(329,0,ls),
(425,0,o),
(503,57,o),
(503,177,cs),
(503,264,o),
(462,350,o),
(316,350,cs),
(150,350,l),
(186,320,l),
(186,506,l),
(53,506,l),
(53,0,l)
);
},
{
closed = 1;
nodes = (
(186,305,l),
(160,255,l),
(270,255,ls),
(319,255,o),
(368,253,o),
(368,174,cs),
(368,96,o),
(321,95,o),
(265,95,cs),
(160,95,l),
(186,54,l)
);
}
);
width = 535;
}
);
metricLeft = "=n";
metricRight = "=o";
unicode = 1100;
},
{
glyphname = "ereversed-cy";
kernLeft = n;
kernRight = o;
lastChange = "2024-10-16 20:02:47 +0000";
layers = (
{
layerId = m01;
shapes = (
{
closed = 1;
nodes = (
(424,-16,o),
(532,88,o),
(532,263,cs),
(532,474,o),
(375,528,o),
(245,528,cs),
(175,528,o),
(97,510,o),
(15,479,c),
(15,359,l),
(93,373,o),
(175,376,o),
(197,376,cs),
(310,376,o),
(308,312,o),
(308,279,cs),
(308,158,o),
(281,134,o),
(194,134,cs),
(117,134,o),
(71,153,o),
(11,174,c),
(11,32,l),
(68,5,o),
(154,-16,o),
(238,-16,cs)
);
},
{
closed = 1;
nodes = (
(324,197,l),
(324,324,l),
(48,324,l),
(48,197,l)
);
}
);
width = 543;
},
{
layerId = "257EBA85-25A6-4EFE-A653-BCCD9A912022";
shapes = (
{
closed = 1;
nodes = (
(349,-16,o),
(441,88,o),
(441,252,cs),
(441,420,o),
(346,516,o),
(220,516,cs),
(168,516,o),
(126,500,o),
(85,478,c),
(85,443,l),
(125,463,o),
(174,478,o),
(220,478,cs),
(324,478,o),
(397,401,o),
(397,253,cs),
(397,106,o),
(325,22,o),
(206,22,cs),
(140,22,o),
(91,47,o),
(54,80,c),
(54,29,l),
(94,3,o),
(148,-16,o),
(207,-16,cs)
);
},
{
closed = 1;
nodes = (
(417,251,l),
(417,289,l),
(141,289,l),
(141,251,l)
);
}
);
width = 495;
},
{
layerId = "6D4AB606-1E4E-4A6F-BC39-70F25E2B516B";
shapes = (
{
closed = 1;
nodes = (
(388,-16,o),
(488,88,o),
(488,257,cs),
(488,448,o),
(361,522,o),
(233,522,cs),
(172,522,o),
(111,505,o),
(49,479,c),
(49,383,l),
(109,400,o),
(175,408,o),
(214,408,cs),
(316,408,o),
(353,353,o),
(353,254,cs),
(353,136,o),
(302,98,o),
(203,98,cs),
(128,98,o),
(81,120,o),
(32,146,c),
(32,31,l),
(81,4,o),
(151,-16,o),
(223,-16,cs)
);
},
{
closed = 1;
nodes = (
(369,218,l),
(369,313,l),
(93,313,l),
(93,218,l)
);
}
);
width = 520;
}
);
metricLeft = "=ze-cy";
metricRight = "=o";
unicode = 1101;
},
{
glyphname = "yu-cy";
kernLeft = n;
kernRight = o;
lastChange = "2024-10-16 20:02:31 +0000";
layers = (
{
layerId = m01;
shapes = (
{
closed = 1;
nodes = (
(673,-16,o),
(791,82,o),
(791,259,cs),
(791,436,o),
(672,528,o),
(530,528,cs),
(388,528,o),
(269,436,o),
(269,259,cs),
(269,82,o),
(387,-16,o),
(530,-16,cs)
);
},
{
closed = 1;
nodes = (
(238,0,l),
(238,512,l),
(18,512,l),
(18,0,l)
);
},
{
closed = 1;
nodes = (
(294,188,l),
(294,324,l),
(175,324,l),
(175,188,l)
);
},
{
closed = 1;
nodes = (
(500,188,o),
(484,214,o),
(484,257,cs),
(484,300,o),
(500,324,o),
(530,324,cs),
(560,324,o),
(576,300,o),
(576,257,cs),
(576,214,o),
(560,188,o),
(530,188,cs)
);
}
);
width = 802;
},
{
layerId = "257EBA85-25A6-4EFE-A653-BCCD9A912022";
shapes = (
{
closed = 1;
nodes = (
(586,-16,o),
(667,88,o),
(667,253,cs),
(667,420,o),
(585,516,o),
(443,516,cs),
(301,516,o),
(221,420,o),
(221,253,cs),
(221,88,o),
(300,-16,o),
(443,-16,cs)
);
},
{
closed = 1;
nodes = (
(130,0,l),
(130,500,l),
(90,500,l),
(90,0,l)
);
},
{
closed = 1;
nodes = (
(243,247,l),
(243,283,l),
(108,283,l),
(108,247,l)
);
},
{
closed = 1;
nodes = (
(326,22,o),
(261,106,o),
(261,254,cs),
(261,401,o),
(325,478,o),
(443,478,cs),
(561,478,o),
(625,401,o),
(625,254,cs),
(625,106,o),
(560,22,o),
(443,22,cs)
);
}
);
width = 721;
},
{
layerId = "6D4AB606-1E4E-4A6F-BC39-70F25E2B516B";
shapes = (
{
closed = 1;
nodes = (
(631,-16,o),
(731,85,o),
(731,256,cs),
(731,428,o),
(630,522,o),
(488,522,cs),
(346,522,o),
(246,428,o),
(246,256,cs),
(246,85,o),
(345,-16,o),
(488,-16,cs)
);
},
{
closed = 1;
nodes = (
(186,0,l),
(186,506,l),
(53,506,l),
(53,0,l)
);
},
{
closed = 1;
nodes = (
(269,203,l),
(269,318,l),
(143,318,l),
(143,203,l)
);
},
{
closed = 1;
nodes = (
(419,107,o),
(381,162,o),
(381,256,cs),
(381,349,o),
(418,399,o),
(488,399,cs),
(557,399,o),
(596,349,o),
(596,256,cs),
(596,162,o),
(557,107,o),
(488,107,cs)
);
}
);
width = 763;
}
);
metricLeft = "=n";
metricRight = "=o";
unicode = 1102;
},
{
glyphname = "ya-cy";
kernLeft = o;
kernRight = n;
lastChange = "2024-10-16 19:53:56 +0000";
layers = (
{
layerId = m01;
shapes = (
{
closed = 1;
nodes = (
(573,0,l),
(573,512,l),
(218,512,ls),
(106,512,o),
(48,437,o),
(48,352,cs),
(48,279,o),
(76,183,o),
(196,183,cs),
(353,183,l),
(353,0,l)
);
},
{
closed = 1;
nodes = (
(252,0,l),
(372,218,l),
(167,232,l),
(12,0,l)
);
},
{
closed = 1;
nodes = (
(291,294,o),
(272,309,o),
(272,352,cs),
(272,374,o),
(291,393,o),
(323,393,cs),
(353,393,l),
(353,294,l),
(323,294,ls)
);
}
);
width = 587;
},
{
layerId = "257EBA85-25A6-4EFE-A653-BCCD9A912022";
shapes = (
{
closed = 1;
nodes = (
(445,0,l),
(445,500,l),
(202,500,ls),
(114,500,o),
(58,427,o),
(58,365,cs),
(58,302,o),
(99,218,o),
(216,218,cs),
(405,218,l),
(405,0,l)
);
},
{
closed = 1;
nodes = (
(75,0,l),
(324,237,l),
(280,243,l),
(16,0,l)
);
},
{
closed = 1;
nodes = (
(138,256,o),
(99,300,o),
(99,365,cs),
(99,410,o),
(137,462,o),
(203,462,cs),
(405,462,l),
(405,256,l),
(202,256,ls)
);
}
);
width = 521;
},
{
layerId = "6D4AB606-1E4E-4A6F-BC39-70F25E2B516B";
shapes = (
{
closed = 1;
nodes = (
(510,0,l),
(510,506,l),
(225,506,ls),
(94,506,o),
(52,420,o),
(52,358,cs),
(52,294,o),
(84,196,o),
(221,196,cs),
(377,196,l),
(377,0,l)
);
},
{
closed = 1;
nodes = (
(196,0,l),
(393,210,l),
(230,220,l),
(15,0,l)
);
},
{
closed = 1;
nodes = (
(216,291,o),
(187,320,o),
(187,358,cs),
(187,391,o),
(215,411,o),
(264,411,cs),
(377,411,l),
(377,291,l),
(263,291,ls)
);
}
);
width = 554;
}
);
metricLeft = "=|k";
metricRight = "=n";
unicode = 1103;
},
{
glyphname = zero;
lastChange = "2024-10-16 18:50:57 +0000";
layers = (
{
layerId = m01;
shapes = (
{
closed = 1;
nodes = (
(452,-16,o),
(610,56,o),
(610,362,cs),
(610,667,o),
(452,728,o),
(315,728,cs),
(178,728,o),
(20,667,o),
(20,362,cs),
(20,56,o),
(178,-16,o),
(315,-16,cs)
);
},
{
closed = 1;
nodes = (
(262,174,o),
(252,238,o),
(252,357,cs),
(252,479,o),
(262,538,o),
(315,538,cs),
(368,538,o),
(378,479,o),
(378,357,cs),
(378,238,o),
(368,174,o),
(315,174,cs)
);
}
);
width = 636;
},
{
layerId = "257EBA85-25A6-4EFE-A653-BCCD9A912022";
shapes = (
{
closed = 1;
nodes = (
(412,-16,o),
(524,106,o),
(524,355,cs),
(524,604,o),
(412,715,o),
(277,715,cs),
(142,715,o),
(30,604,o),
(30,355,cs),
(30,106,o),
(142,-16,o),
(277,-16,cs)
);
},
{
closed = 1;
nodes = (
(168,22,o),
(74,124,o),
(74,355,cs),
(74,586,o),
(168,677,o),
(277,677,cs),
(386,677,o),
(480,586,o),
(480,355,cs),
(480,124,o),
(386,22,o),
(277,22,cs)
);
}
);
width = 554;
},
{
layerId = "6D4AB606-1E4E-4A6F-BC39-70F25E2B516B";
shapes = (
{
closed = 1;
nodes = (
(433,-16,o),
(568,80,o),
(568,359,cs),
(568,636,o),
(433,722,o),
(297,722,cs),
(161,722,o),
(25,636,o),
(25,359,cs),
(25,80,o),
(161,-16,o),
(297,-16,cs)
);
},
{
closed = 1;
nodes = (
(228,120,o),
(173,183,o),
(173,356,cs),
(173,531,o),
(228,586,o),
(297,586,cs),
(365,586,o),
(420,531,o),
(420,356,cs),
(420,183,o),
(365,120,o),
(297,120,cs)
);
}
);
width = 596;
}
);
unicode = 48;
},
{
glyphname = one;
lastChange = "2024-10-16 18:38:46 +0000";
layers = (
{
layerId = m01;
shapes = (
{
closed = 1;
nodes = (
(438,712,l),
(203,712,l),
(40,597,l),
(40,404,l),
(208,496,l),
(208,0,l),
(438,0,l)
);
}
);
width = 500;
},
{
layerId = "257EBA85-25A6-4EFE-A653-BCCD9A912022";
shapes = (
{
closed = 1;
nodes = (
(269,700,l),
(222,700,l),
(50,575,l),
(68,542,l),
(227,654,l),
(227,0,l),
(269,0,l)
);
}
);
width = 329;
},
{
layerId = "6D4AB606-1E4E-4A6F-BC39-70F25E2B516B";
shapes = (
{
closed = 1;
nodes = (
(362,706,l),
(212,706,l),
(45,586,l),
(54,471,l),
(217,573,l),
(217,0,l),
(362,0,l)
);
}
);
width = 417;
}
);
unicode = 49;
},
{
glyphname = two;
lastChange = "2024-10-16 18:52:24 +0000";
layers = (
{
layerId = m01;
shapes = (
{
closed = 1;
nodes = (
(390,340,ls),
(455,413,o),
(493,473,o),
(493,553,cs),
(493,673,o),
(409,728,o),
(299,728,cs),
(223,728,o),
(104,702,o),
(50,680,c),
(50,506,l),
(83,519,o),
(128,533,o),
(180,533,cs),
(240,533,o),
(246,515,o),
(246,498,cs),
(246,441,o),
(181,379,o),
(141,332,cs),
(20,188,l),
(20,0,l),
(490,0,l),
(490,188,l),
(253,188,l)
);
}
);
width = 537;
},
{
layerId = "257EBA85-25A6-4EFE-A653-BCCD9A912022";
shapes = (
{
closed = 1;
nodes = (
(319,319,ls),
(360,369,o),
(436,465,o),
(436,561,cs),
(436,661,o),
(354,715,o),
(238,715,cs),
(171,715,o),
(119,697,o),
(69,670,c),
(69,626,l),
(119,652,o),
(168,677,o),
(242,677,cs),
(337,677,o),
(392,635,o),
(392,563,cs),
(392,479,o),
(319,384,o),
(277,332,cs),
(40,38,l),
(40,0,l),
(443,0,l),
(443,38,l),
(88,38,l)
);
}
);
width = 483;
},
{
layerId = "6D4AB606-1E4E-4A6F-BC39-70F25E2B516B";
shapes = (
{
closed = 1;
nodes = (
(356,330,ls),
(413,387,o),
(465,469,o),
(465,555,cs),
(465,667,o),
(382,722,o),
(269,722,cs),
(198,722,o),
(111,700,o),
(59,675,c),
(59,559,l),
(100,578,o),
(147,598,o),
(217,598,cs),
(287,598,o),
(317,568,o),
(317,521,cs),
(317,454,o),
(251,379,o),
(207,332,cs),
(30,132,l),
(30,0,l),
(467,0,l),
(467,132,l),
(173,132,l)
);
}
);
width = 502;
}
);
metricRight = "=three";
unicode = 50;
},
{
glyphname = three;
lastChange = "2024-10-16 18:40:29 +0000";
layers = (
{
layerId = m01;
shapes = (
{
closed = 1;
nodes = (
(442,-16,o),
(562,96,o),
(562,227,cs),
(562,356,o),
(460,403,o),
(389,403,c),
(534,524,l),
(534,712,l),
(66,712,l),
(66,524,l),
(334,524,l),
(140,403,l),
(140,284,l),
(191,284,ls),
(272,284,o),
(330,272,o),
(330,232,cs),
(330,197,o),
(309,172,o),
(253,172,cs),
(192,172,o),
(93,186,o),
(30,218,c),
(30,37,l),
(94,0,o),
(161,-16,o),
(277,-16,cs)
);
}
);
width = 606;
},
{
layerId = "257EBA85-25A6-4EFE-A653-BCCD9A912022";
shapes = (
{
closed = 1;
nodes = (
(441,-16,o),
(494,111,o),
(494,200,cs),
(494,339,o),
(364,418,o),
(242,418,c),
(483,662,l),
(483,700,l),
(65,700,l),
(65,662,l),
(433,662,l),
(189,414,l),
(189,381,l),
(225,381,ls),
(334,381,o),
(450,321,o),
(450,202,cs),
(450,144,o),
(422,24,o),
(247,24,cs),
(159,24,o),
(88,54,o),
(30,91,c),
(30,46,l),
(92,11,o),
(160,-16,o),
(249,-16,cs)
);
}
);
width = 534;
},
{
layerId = "6D4AB606-1E4E-4A6F-BC39-70F25E2B516B";
shapes = (
{
closed = 1;
nodes = (
(442,-16,o),
(536,84,o),
(536,205,cs),
(536,345,o),
(413,410,o),
(318,410,c),
(509,570,l),
(509,706,l),
(66,706,l),
(66,570,l),
(382,570,l),
(164,408,l),
(164,331,l),
(207,331,ls),
(302,331,o),
(388,300,o),
(388,222,cs),
(388,181,o),
(364,117,o),
(250,117,cs),
(176,117,o),
(91,138,o),
(30,173,c),
(30,51,l),
(85,16,o),
(161,-16,o),
(263,-16,cs)
);
}
);
width = 571;
}
);
unicode = 51;
},
{
glyphname = four;
lastChange = "2024-10-16 18:40:56 +0000";
layers = (
{
layerId = m01;
shapes = (
{
closed = 1;
nodes = (
(203,298,l),
(331,546,l),
(331,298,l)
);
},
{
closed = 1;
nodes = (
(331,0,l),
(561,0,l),
(561,110,l),
(643,110,l),
(643,298,l),
(561,298,l),
(561,712,l),
(236,712,l),
(20,300,l),
(20,110,l),
(331,110,l)
);
}
);
width = 665;
},
{
layerId = "257EBA85-25A6-4EFE-A653-BCCD9A912022";
shapes = (
{
closed = 1;
nodes = (
(79,218,l),
(411,645,l),
(411,218,l)
);
},
{
closed = 1;
nodes = (
(411,0,l),
(453,0,l),
(453,180,l),
(515,180,l),
(515,218,l),
(453,218,l),
(453,700,l),
(406,700,l),
(30,218,l),
(30,180,l),
(411,180,l)
);
}
);
width = 555;
},
{
layerId = "6D4AB606-1E4E-4A6F-BC39-70F25E2B516B";
shapes = (
{
closed = 1;
nodes = (
(143,276,l),
(370,594,l),
(370,276,l)
);
},
{
closed = 1;
nodes = (
(370,0,l),
(515,0,l),
(515,144,l),
(587,144,l),
(587,276,l),
(515,276,l),
(515,706,l),
(318,706,l),
(25,277,l),
(25,144,l),
(370,144,l)
);
}
);
width = 622;
}
);
unicode = 52;
},
